<svg width="150" height="88" viewBox="0 0 150 88" fill="none" xmlns="http://www.w3.org/2000/svg">
<mask id="mask0_4_701" style="mask-type:luminance" maskUnits="userSpaceOnUse" x="0" y="0" width="150" height="88">
<path d="M150 0.879883H0V87.8845H150V0.879883Z" fill="white"/>
</mask>
<g mask="url(#mask0_4_701)">
<path d="M86.103 47.5969C86.1224 48.5502 85.9076 49.4937 85.4775 50.3446C85.0764 51.1205 84.5002 51.7924 83.7945 52.307C82.9915 52.909 82.082 53.3537 81.1138 53.618C80.1606 53.8752 78.9293 54.0039 77.42 54.0039H71.0605V33.15H76.94C78.125 33.1319 79.3101 33.181 80.4895 33.297C81.2802 33.3956 82.048 33.6298 82.7591 33.9894C83.4841 34.3278 84.0908 34.8762 84.5005 35.5635C84.8807 36.2647 85.0706 37.0534 85.0512 37.8508C85.063 38.7928 84.7742 39.7141 84.2267 40.4808C83.6438 41.2812 82.8554 41.9092 81.9448 42.2981V42.4101C83.2663 42.7465 84.29 43.3611 85.0157 44.2537C85.7415 45.1464 86.104 46.2608 86.103 47.5969ZM81.9806 38.2452C81.9917 37.7949 81.9002 37.3479 81.7132 36.9381C81.5274 36.5619 81.2254 36.2555 80.8519 36.0641C80.3578 35.8073 79.8178 35.6505 79.2629 35.603C78.6782 35.5471 77.8713 35.519 76.8421 35.5189H74.0208V41.6149H77.3621C78.043 41.6324 78.7241 41.588 79.397 41.4822C79.8757 41.3764 80.3329 41.1895 80.7488 40.9297C81.1707 40.6859 81.5036 40.3136 81.6989 39.8671C81.9011 39.351 81.9969 38.7993 81.9806 38.2452ZM83.0331 47.7064C83.056 47.0404 82.9342 46.3773 82.6761 45.7629C82.4383 45.2531 81.9574 44.8204 81.2336 44.4648C80.7556 44.2275 80.2397 44.0756 79.7094 44.016C78.9309 43.94 78.1489 43.9072 77.3668 43.9176H74.0208V51.6362H76.415C77.4339 51.6525 78.4527 51.5963 79.4636 51.468C80.1617 51.3724 80.8311 51.1283 81.427 50.7523C81.928 50.4432 82.3465 50.0169 82.6463 49.5103C82.926 48.9512 83.0591 48.3303 83.0331 47.7057V47.7064Z" fill="#0071B9"/>
<path d="M89.0437 54.0032V33.1499H102.924V35.6058H92.0039V41.329H102.178V43.7849H92.0039V51.5473H102.924V54.0032H89.0437Z" fill="#0071B9"/>
<path d="M112.348 54.3761C110.965 54.4029 109.586 54.2455 108.245 53.9081C107.156 53.6096 106.092 53.224 105.065 52.7548V49.2888H105.273C106.246 50.1462 107.366 50.8209 108.579 51.2802C109.712 51.7317 110.918 51.9709 112.138 51.986C113.766 51.986 114.997 51.6662 115.831 51.0266C116.228 50.7381 116.55 50.3573 116.768 49.917C116.986 49.4766 117.094 48.9899 117.082 48.4987C117.082 47.6684 116.863 46.9915 116.426 46.468C115.989 45.9446 115.293 45.5571 114.339 45.3055C113.654 45.1191 113.028 44.9651 112.462 44.8436C111.896 44.7221 111.186 44.5584 110.331 44.3524C109.623 44.1858 108.934 43.9467 108.274 43.6388C107.677 43.3557 107.133 42.9721 106.665 42.5047C106.205 42.043 105.842 41.4932 105.6 40.8882C105.334 40.2034 105.205 39.4735 105.22 38.7393C105.22 37.0502 105.92 35.6342 107.322 34.4913C108.724 33.3483 110.513 32.7767 112.69 32.7763C113.875 32.7706 115.057 32.8882 116.217 33.1272C117.277 33.3452 118.31 33.6791 119.297 34.1229V37.4469H119.073C118.259 36.7729 117.343 36.2335 116.358 35.8494C115.256 35.3946 114.075 35.1625 112.883 35.1665C111.511 35.1665 110.402 35.4677 109.557 36.0701C108.711 36.6725 108.289 37.4637 108.289 38.4437C108.289 39.331 108.537 40.0359 109.034 40.5586C109.531 41.0812 110.251 41.4641 111.195 41.7071C111.821 41.8661 112.586 42.0459 113.49 42.2463C114.394 42.4468 115.144 42.631 115.741 42.7991C117.271 43.2376 118.388 43.9003 119.093 44.787C119.799 45.6737 120.152 46.7654 120.152 48.0621C120.148 48.8931 119.968 49.7137 119.623 50.47C119.285 51.2435 118.779 51.9321 118.141 52.4857C117.425 53.0931 116.605 53.5671 115.721 53.8853C114.822 54.2124 113.698 54.376 112.348 54.3761Z" fill="#0071B9"/>
<path d="M128.336 54.0032V35.6058H120.881V33.1499H138.752V35.6058H131.296V54.0032H128.336Z" fill="#0071B9"/>
<path d="M59.7578 54.0657L54.8723 51.25H42.1135L37.2283 54.0657C41.9025 62.186 55.8794 75.4876 71.0235 76.6373C65.7457 73.6802 57.3479 63.0598 59.7578 54.0657Z" fill="#0071B9"/>
<path d="M63.2074 12.1275C63.2846 18.1735 58.2893 30.7544 49.2926 33.1661L49.2961 38.806L55.6762 49.856L60.5568 52.6803C65.2536 44.5716 69.7833 25.8144 63.208 12.1272L63.2074 12.1275Z" fill="#FFA615"/>
<path d="M11.2467 51.1514C16.4459 48.0571 29.8431 46.0943 36.427 52.6795L41.309 49.8552L41.2125 50.0227L47.6879 38.8073L47.6925 33.1676C38.3225 33.1539 19.8154 38.6098 11.2467 51.1514Z" fill="#75BF1E"/>
<path d="M45.5028 46.638C45.5028 46.0464 45.6782 45.468 46.0069 44.9761C46.3356 44.4842 46.8027 44.1008 47.3493 43.8745C47.8959 43.6481 48.4973 43.5889 49.0776 43.7044C49.6578 43.8199 50.1908 44.1048 50.609 44.5232C51.0273 44.9416 51.3121 45.4746 51.4274 46.0549C51.5427 46.6351 51.4833 47.2366 51.2568 47.7831C51.0302 48.3296 50.6467 48.7967 50.1547 49.1252C49.6627 49.4537 49.0843 49.629 48.4927 49.6288C48.1 49.6287 47.7112 49.5514 47.3484 49.401C46.9856 49.2507 46.6559 49.0304 46.3783 48.7527C46.1007 48.4749 45.8804 48.1452 45.7302 47.7824C45.58 47.4196 45.5027 47.0307 45.5028 46.638Z" fill="#0071B9"/>
</g>
<path d="M128.8 61.8199H127.985L126.264 59.6238L125.989 59.9342V61.8199H125.361V57.1011H125.989V59.2719L127.922 57.1011H128.686L126.733 59.2079L128.8 61.8199Z" fill="#0071B9"/>
<path d="M132.479 57.1011L130.885 59.7314V61.8199H130.257V59.798L128.663 57.1011H129.36L130.577 59.1832L131.813 57.1011H132.479Z" fill="#0071B9"/>
<path d="M134.565 61.8201H132.733V61.3384H133.335V57.5829H132.733V57.1012H134.565V57.5829H133.963V61.3384H134.565V61.8201Z" fill="#0071B9"/>
<path d="M138.757 57.1011L137.135 61.8199H136.457L134.834 57.1011H135.506L136.812 61.0183L138.117 57.1011H138.757Z" fill="#0071B9"/>
</svg>
