<svg width="546" height="100" viewBox="0 0 546 100" fill="none" xmlns="http://www.w3.org/2000/svg">
<path fill-rule="evenodd" clip-rule="evenodd" d="M2.5 97.9993V2.5H39.2292C56.7776 2.5 69.1566 11.2314 69.1566 27.057C69.1566 36.0612 63.3072 42.8825 57.4577 45.884C66.572 49.2946 73.7818 56.9346 73.7818 69.7588C73.7818 87.4944 60.5865 97.9993 40.5895 97.9993H2.5ZM20.1844 82.3101H38.8211C50.9281 82.3101 56.5055 77.6716 56.5055 68.8038C56.5055 60.0724 50.9281 55.161 38.8211 55.161H20.1844V82.3101ZM20.1844 39.8811H38.0049C47.5272 39.8811 52.2884 35.7883 52.2884 28.4212C52.2884 21.0541 47.5272 16.9613 37.7328 16.9613H20.1844V39.8811Z" fill="white"/>
<path d="M161.231 8.50269H177.963V29.2397H207.891V8.50269H224.623V29.2397H243.668V43.2917H224.623V73.3058C224.623 80.2636 228.296 83.8107 234.553 83.8107H243.668V97.9991H232.649C217.685 97.9991 207.891 89.2678 207.891 73.9879V43.2917H177.963V73.3058C177.963 80.2636 181.636 83.8107 187.894 83.8107H197.008V97.9991H185.989C171.025 97.9991 161.231 89.2678 161.231 73.9879V43.2917H147.764V29.2397H161.231V8.50269Z" fill="white"/>
<path fill-rule="evenodd" clip-rule="evenodd" d="M508.877 85.9938C497.762 85.9938 489.008 80.5367 486.646 69.8954H541.944C542.222 67.9854 542.5 65.8025 542.5 63.7561C542.5 44.1106 528.328 27.7393 507.626 27.7393C485.813 27.7393 470.946 43.4284 470.946 63.6197C470.946 84.0838 485.813 99.5001 508.738 99.5001L510.061 99.3751C523.522 98.226 536.213 89.4154 540.294 77.5353L525.737 77.3564C522.84 81.5561 517.044 85.6895 508.877 85.9938ZM486.507 57.8897H527.356C525.271 46.157 516.518 41.1092 507.487 41.1092C496.233 41.1092 488.591 47.6577 486.507 57.8897Z" fill="white"/>
<path fill-rule="evenodd" clip-rule="evenodd" d="M261.475 69.8954C263.837 80.5367 272.59 85.9938 283.705 85.9938C291.873 85.6895 297.669 81.5561 300.566 77.3564L315.123 77.5353C311.042 89.4154 298.351 98.226 284.89 99.3751L283.566 99.5001C260.641 99.5001 245.775 84.0838 245.775 63.6197C245.775 43.4284 260.641 27.7393 282.455 27.7393C303.157 27.7393 317.329 44.1106 317.329 63.7561C317.329 65.8025 317.051 67.9854 316.773 69.8954H261.475ZM302.184 57.8897H261.336C263.42 47.6577 271.062 41.1092 282.316 41.1092C291.347 41.1092 300.1 46.157 302.184 57.8897Z" fill="white"/>
<path fill-rule="evenodd" clip-rule="evenodd" d="M115.325 85.9938C104.21 85.9938 95.4567 80.5367 93.0947 69.8954H148.393C148.671 67.9854 148.948 65.8025 148.948 63.7561C148.948 44.1106 134.777 27.7393 114.075 27.7393C92.2611 27.7393 77.3945 43.4284 77.3945 63.6197C77.3945 84.0838 92.2611 99.5001 115.186 99.5001L116.51 99.3751C129.971 98.226 142.661 89.4154 146.742 77.5353L132.186 77.3564C129.289 81.5561 123.493 85.6895 115.325 85.9938ZM92.9558 57.8897H133.804C131.72 46.157 122.967 41.1092 113.936 41.1092C102.682 41.1092 95.0398 47.6577 92.9558 57.8897Z" fill="white"/>
<path d="M366.169 97.9569V2.5H386.875L415.755 73.0018L444.635 2.5H465.342V97.9569H448.45V34.6826L422.567 97.9569H408.944L382.925 34.6826V97.9569H366.169Z" fill="white"/>
<path d="M360.356 29.2399C351.958 29.262 343.837 32.6178 339.821 41.6894V29.5758H323.171V97.9992H339.821V62.6187C340.382 48.5438 351.109 44.3386 360.356 44.9619L360.44 44.9677V29.2397L360.356 29.2399Z" fill="white"/>
</svg>
