<svg width="450" height="71" viewBox="0 0 450 71" fill="none" xmlns="http://www.w3.org/2000/svg">
<path d="M64.3175 4.25335C63.5704 3.12735 62.4499 2.00133 61.3294 1.25066C60.2089 0.875324 59.0884 0.5 57.5944 0.5H26.1269C24.6329 0.5 22.7654 0.875332 21.2714 1.626C19.7774 2.37667 18.6569 3.878 17.5363 5.00401L1.84927 31.7466C1.10226 32.8726 0.72876 34.374 0.72876 35.5C0.72876 37.0013 1.10226 38.1273 1.84927 39.2533L17.5363 65.996C18.2833 67.4973 19.7774 68.6233 21.2714 69.374C22.7654 70.1247 24.6329 70.5 26.1269 70.5H57.2209C58.7149 70.5 59.8354 70.1247 61.3294 69.374C62.4499 68.6233 63.5704 67.8726 64.3175 66.3713L80.0045 39.6287C80.7515 38.1273 81.4985 36.626 81.4985 34.7493C81.4985 32.8727 81.125 31.3713 80.0045 29.87L64.3175 4.25335ZM6.61141 36.2507L8.47892 33.248L22.2985 9.22653L30.889 24.2399C31.2625 24.9906 32.0095 25.366 32.7565 25.366C33.5035 25.366 34.2505 25.3659 34.9976 24.9906C35.7446 24.6153 36.1181 23.8646 36.4916 23.1139C36.8651 22.3633 36.4916 21.6126 36.1181 20.8619L29.0215 9.22653C28.2745 8.47586 27.5275 7.72519 26.7805 7.34985C26.0335 6.97452 24.913 6.59919 23.7925 6.22385H55.26L40.32 31.4651L39.1994 32.5911C38.8259 32.9665 38.0789 32.9665 37.7054 32.9665H11.4669C10.3464 32.9665 9.22593 33.3418 8.47892 33.7172C7.73192 34.374 6.98491 35.1247 6.61141 36.2507ZM55.26 65.5268H27.2474L35.8379 50.5134C36.2114 50.1381 36.2114 49.7627 36.2114 49.3874V48.2614L35.8379 47.1354C35.8379 47.1354 35.4644 46.3847 35.0909 46.3847C34.7174 46.3847 34.3439 46.0094 33.9704 46.0094H32.8499L31.7294 46.3847L30.9824 47.1354L22.3919 62.1488L20.5244 65.1515C20.8979 64.4008 21.2714 63.2748 21.2714 62.5241C21.2714 61.7734 21.2714 60.6474 20.8979 59.8968L8.5723 38.5027H38.1723C38.5458 38.5027 39.2928 38.5027 39.6663 38.878L40.7868 40.004L53.8594 62.5241C54.6064 63.2748 55.3534 64.0255 56.1004 64.4008C56.8474 64.7761 57.9679 65.1515 59.0884 65.1515H55.3534V65.5268H55.26ZM74.402 38.878L60.5824 62.8995L45.6424 37.6582C45.2689 37.2828 45.2689 36.5322 45.2689 36.1568C45.2689 35.7815 45.2689 35.0308 45.6424 34.6555L60.5824 9.41421L62.4499 6.41152C61.7029 7.53752 61.7029 8.66353 61.7029 9.78954C61.7029 10.9155 62.0764 12.0416 62.8234 13.1676C63.1969 13.9182 74.7755 33.4356 74.7755 33.4356H57.2209C56.4739 33.4356 55.7269 33.811 54.9799 34.1863C54.6064 34.5617 54.2329 35.3123 54.2329 36.063C54.2329 36.8137 54.6064 37.5643 54.9799 37.9397C55.3534 38.315 56.1004 38.6903 57.2209 38.6903H71.0405C72.161 38.6903 73.2815 38.315 74.0285 37.9397C74.7755 37.5643 75.896 36.8137 76.2695 35.6877C76.2695 35.8753 74.402 38.878 74.402 38.878ZM240.89 31.3713C241.637 30.2453 242.758 29.1193 243.505 28.3686C244.625 27.2426 246.493 26.8673 247.987 26.8673C248.36 26.8673 249.107 26.8673 249.481 27.2426L250.601 28.3686C250.975 29.4946 251.349 30.2453 251.349 31.3713H257.698C257.698 27.2426 256.951 24.6153 255.457 22.7386C254.71 21.9879 253.963 21.2373 252.842 20.8619C251.722 20.4866 250.602 20.1113 249.481 20.1113C247.613 20.1113 245.746 20.4866 244.252 21.6126C242.758 22.3633 241.264 23.8646 240.143 24.9906V25.366H239.396L238.276 21.2373H228.191C227.818 21.2373 227.444 21.2373 227.071 21.6126L226.324 22.3633L225.577 26.8673H237.155C237.155 26.8673 233.42 26.8673 233.42 29.87V46.0094H228.938C228.565 46.0094 228.191 46.0094 227.818 46.3847L227.071 47.1354L225.577 52.0147H251.442C251.815 52.0147 252.189 52.0147 252.562 51.6394L253.309 50.8887L255.177 46.0094H240.984C240.89 46.0094 240.89 31.3713 240.89 31.3713ZM289.913 35.8753C288.419 35.1247 286.551 34.374 285.057 33.9987L279.828 32.8727C278.334 32.4973 277.213 32.122 275.719 31.3713C274.599 30.996 273.852 29.87 273.852 29.1193C273.852 28.3686 274.225 27.9933 274.599 27.618C274.972 27.2426 275.346 26.8673 276.093 26.492C277.587 26.1166 279.081 25.7413 280.575 25.7413C281.696 25.7413 282.816 25.7413 283.563 26.1166L286.551 26.8673C287.672 27.2426 288.419 27.6179 289.166 27.9933L291.033 29.1193L294.021 24.2399C293.648 23.8646 292.901 23.4893 292.154 23.1139C291.407 22.3633 290.286 21.9879 289.166 21.6126L285.057 20.4866C283.19 20.1112 281.322 20.1113 279.454 20.1113C277.587 20.1113 275.72 20.4866 274.225 20.8619C272.731 21.2373 271.237 21.9879 270.117 22.7386C268.996 23.4893 267.876 24.6153 267.502 25.7413C266.755 26.8673 266.382 28.3686 266.382 29.4946C266.382 30.996 266.755 32.4973 267.876 33.9987C268.996 35.1247 270.117 36.2507 271.611 37.0013C273.105 37.752 274.972 38.5027 276.466 38.878C278.334 39.2533 280.202 39.6287 281.696 40.3794C283.19 40.7547 284.31 41.13 285.804 41.8807C286.178 41.8807 286.925 42.256 287.298 43.0067C287.672 43.382 287.672 44.1327 287.672 44.508C287.672 45.2587 287.672 45.634 287.298 46.3847C286.925 46.76 286.551 47.1354 285.804 47.5107C283.937 48.6367 280.949 48.6367 277.961 47.8861L274.225 46.76L270.864 45.2587C270.117 44.8834 269.37 44.508 268.996 44.1327L265.635 49.3874C267.502 50.8887 269.37 52.0147 271.611 52.7654C274.599 53.8914 277.96 54.2667 280.949 54.2667C285.431 54.2667 289.166 53.5161 291.407 51.6394C292.527 50.8887 293.274 49.7627 294.021 48.2614C294.768 47.1354 294.768 45.634 294.768 44.1327C294.768 42.6314 294.395 41.13 293.274 40.004C292.901 37.3767 291.407 36.626 289.913 35.8753ZM331.465 43.382L329.224 44.8834L326.609 46.0094C325.489 46.3847 324.368 46.3847 323.248 46.3847C322.127 46.3847 321.007 46.3847 320.26 46.0094C319.139 45.634 318.392 44.8834 317.645 44.1327C316.151 42.6314 315.778 40.004 315.778 36.626V26.8673H330.344L332.585 20.8619H315.778V11.4785L309.802 13.3552C309.428 13.3552 309.055 13.7306 308.681 14.1059C308.308 14.4812 308.308 14.8566 308.308 15.2319V21.2373H305.32C304.946 21.2373 304.572 21.2373 304.199 21.6126L303.452 22.3633L301.958 26.8673H312.416C312.416 26.8673 308.308 26.8673 308.308 29.87V36.2507C308.308 41.8807 309.428 46.0094 311.669 48.6367C313.91 51.2641 317.645 52.3901 322.127 52.3901C323.621 52.3901 324.742 52.3901 326.236 52.0147C327.73 51.6394 328.85 51.2641 329.971 50.8887C331.091 50.5134 332.212 49.7627 333.332 49.0121C334.079 48.6367 334.826 47.8861 335.573 47.1354L332.212 42.256L331.465 43.382ZM369.655 45.2587C369.655 44.8834 369.655 44.1327 369.282 43.382V40.3794C369.282 39.2533 369.282 37.752 369.655 36.2507C369.655 34.7493 370.029 32.8726 370.029 30.6206C370.029 29.1193 369.655 27.6179 369.282 26.1166C368.908 24.9906 368.161 23.8646 367.414 22.7386C366.294 21.6126 365.173 20.8619 363.679 20.4866C361.812 20.1112 359.944 19.7359 358.077 19.7359C355.462 19.7359 352.848 20.1112 350.233 20.4866C348.366 20.8619 346.498 21.6126 344.631 22.3633L346.498 27.9933C347.619 27.6179 349.113 26.8673 350.607 26.492C352.474 25.7413 354.715 25.7413 356.583 25.7413C358.077 25.7413 359.571 26.1166 361.065 26.8673C362.185 27.618 362.559 29.1193 362.559 30.6206V33.6233H362.185C361.065 33.6233 359.944 33.6233 358.824 33.248H356.583C354.715 33.248 352.848 33.248 350.607 33.9987C349.113 34.374 347.619 34.7493 346.125 35.8753C345.004 36.626 343.884 37.752 343.51 38.878C342.763 40.3793 342.39 41.8807 342.39 43.382C342.39 44.508 342.39 45.634 343.137 46.76C343.51 47.886 344.257 49.0121 345.004 49.7627C346.872 51.2641 349.113 52.0147 352.474 52.0147C354.715 52.0147 356.583 51.6394 358.45 50.5134C359.944 49.7627 361.065 48.6367 361.812 47.1354V46.76H362.932L363.679 51.2641H370.776C371.149 51.2641 371.523 51.2641 371.896 50.8887L372.643 49.7627L373.39 45.2587H369.282H369.655ZM362.185 42.6314C361.438 43.7574 360.691 44.508 359.571 45.2587C358.077 46.0094 356.209 46.76 354.715 46.3847C352.848 46.3847 351.727 46.0094 350.98 45.2587C350.607 44.8834 350.233 44.508 349.86 43.7574C349.486 43.382 349.486 42.6314 349.486 41.8807C349.486 41.13 349.86 40.3794 350.233 39.6287C350.607 38.878 351.354 38.5027 352.101 38.1273C352.848 37.752 353.595 37.3767 354.342 37.3767C356.209 37.0013 358.077 37.0013 359.571 37.3767C360.318 37.3767 361.065 37.752 361.438 37.752H361.812V42.6314H362.185ZM399.255 35.1247L411.954 21.2373H403.364L392.906 33.9987H390.291V8.0067H381.327C380.954 8.0067 380.58 8.0067 380.207 8.38203L379.46 9.1327L377.592 14.0121H386.556C386.556 14.0121 382.821 14.0121 382.821 16.6394V52.0147H390.291V38.878H393.279L404.484 52.0147H410.46C410.834 52.0147 411.207 52.0147 411.581 51.6394L412.328 50.8887L414.195 46.0094H408.593L399.255 35.1247ZM174.314 21.1434L173.567 21.8941L166.844 40.2855H165.723L156.759 20.7681H150.41C150.036 20.7681 149.663 20.7681 149.289 21.1434L148.542 21.8941L147.048 26.7735H156.012C156.012 26.7735 151.53 26.7735 153.398 30.5268L162.362 51.5456H169.832L181.784 20.6743H175.061C175.061 20.7681 174.687 21.1434 174.314 21.1434ZM128.653 47.1354C127.533 47.1354 126.039 47.1354 124.918 46.76C123.798 46.3847 122.677 46.0094 121.557 45.2587C120.436 44.508 119.689 43.7574 119.316 42.6314C118.569 41.5054 118.195 40.3793 118.195 38.878V38.5027H141.726C142.099 36.626 142.099 34.7493 142.099 33.248C142.099 30.996 141.726 28.744 140.605 26.8673C139.858 25.3659 138.738 23.8646 137.244 22.7386C135.75 21.6126 134.256 20.8619 132.762 20.4866C129.027 19.3606 124.918 19.7359 121.183 20.8619C119.316 21.6126 117.448 22.3633 115.954 23.8646C114.46 25.3659 113.34 26.8673 112.593 29.1193C111.846 31.3713 111.099 33.9986 111.099 36.2507C111.099 38.5027 111.472 40.7547 112.219 43.0067C112.966 44.8834 114.087 46.76 115.581 48.2614C117.075 49.7627 118.942 50.8887 120.81 51.6394C123.051 52.3901 125.665 52.7654 127.906 52.7654C129.4 52.7654 136.87 52.3901 142.099 48.6367L140.979 43.382C137.617 46.0094 133.135 47.1354 128.653 47.1354ZM118.569 33.248C118.569 32.122 118.942 30.996 119.689 30.2453C120.063 29.4946 120.81 28.3686 121.93 27.9933C122.677 27.2426 123.798 26.8673 124.918 26.492C126.039 26.1166 127.159 26.1166 128.28 26.1166C130.894 26.1166 132.762 26.8673 134.256 27.9933C135.75 29.4946 136.123 31.3713 136.123 33.248V33.6233H118.942L118.569 33.248ZM204.194 47.1354C203.073 47.1354 201.579 47.1354 200.459 46.76C199.338 46.3847 198.218 46.0094 197.097 45.2587C195.977 44.508 195.23 43.7574 194.856 42.6314C194.109 41.5054 193.736 40.3793 193.736 38.878V38.5027H217.266C217.64 36.626 217.64 34.7493 217.64 33.248C217.64 30.996 217.266 28.744 216.146 26.8673C215.399 25.3659 214.278 23.8646 212.784 22.7386C211.29 21.6126 209.796 20.8619 208.302 20.4866C204.567 19.3606 200.459 19.7359 196.724 20.8619C194.856 21.6126 192.989 22.3633 191.495 23.8646C190.001 25.3659 188.88 26.8673 187.76 29.1193C187.013 31.3713 186.266 33.9986 186.266 36.2507C186.266 38.5027 186.639 40.7547 187.386 43.0067C188.133 44.8834 189.254 46.76 190.748 48.2614C192.242 49.7627 194.109 50.8887 195.977 51.6394C198.218 52.3901 200.832 52.7654 203.073 52.7654C204.567 52.7654 212.037 52.3901 217.266 48.6367L216.146 43.382C213.251 46.0094 208.769 47.1354 204.194 47.1354ZM194.109 33.248C194.109 32.122 194.483 30.996 195.23 30.2453C195.603 29.4946 196.35 28.3686 197.471 27.9933C198.218 27.2426 199.338 26.8673 200.459 26.492C201.579 26.1166 202.7 26.1166 203.82 26.1166C206.435 26.1166 208.302 26.8673 209.796 27.9933C211.29 29.4946 211.664 31.3713 211.664 33.248V33.6233H194.483L194.109 33.248ZM449.024 43.382C445.289 45.634 440.807 47.1354 436.325 47.1354C435.205 47.1354 433.711 47.1354 432.59 46.76C431.47 46.3847 430.349 46.0094 429.229 45.2587C428.108 44.508 427.361 43.7574 426.988 42.6314C426.241 41.5054 425.867 40.3793 425.867 38.878V38.5027H449.398C449.771 36.626 449.771 34.7493 449.771 33.248C449.771 30.996 449.398 28.744 448.277 26.8673C447.53 25.3659 446.41 23.8646 444.916 22.7386C443.422 21.6126 441.928 20.8619 440.434 20.4866C436.699 19.3606 432.59 19.7359 428.855 20.8619C426.988 21.6126 425.12 22.3633 423.626 23.8646C422.132 25.3659 421.012 26.8673 419.891 29.1193C419.144 31.3713 418.397 33.9986 418.397 36.2507C418.397 38.5027 418.771 40.7547 419.518 43.0067C420.265 44.8834 421.385 46.76 422.879 48.2614C424.373 49.7627 426.241 50.8887 428.108 51.6394C430.349 52.3901 432.964 52.7654 435.205 52.7654C436.699 52.7654 444.169 52.3901 449.398 48.6367L449.024 43.382ZM426.147 33.248C426.147 32.122 426.521 30.996 427.268 30.2453C427.641 29.4946 428.388 28.3686 429.509 27.9933C430.256 27.2426 431.376 26.8673 432.497 26.492C433.617 26.1166 434.738 26.1166 435.858 26.1166C438.473 26.1166 440.34 26.8673 441.834 27.9933C443.328 29.4946 443.702 31.3713 443.702 33.248V33.6233H426.521L426.147 33.248Z" fill="white"/>
</svg>
