<svg width="801" height="337" viewBox="0 0 801 337" fill="none" xmlns="http://www.w3.org/2000/svg">
<g clip-path="url(#clip0_1627_2684)">
<path d="M205.883 293.958C195.45 286.284 180.721 288.455 172.986 298.808C165.252 309.161 167.44 323.776 177.874 331.451C188.308 339.126 203.037 336.955 210.772 326.601C218.506 316.248 216.318 301.633 205.883 293.958Z" fill="#EFEFEF"/>
<path d="M165.368 245.651C143.49 229.559 112.608 234.112 96.3895 255.82C80.1719 277.529 84.7601 308.173 106.639 324.265C128.516 340.357 159.399 335.804 175.617 314.096C191.835 292.387 187.246 261.743 165.368 245.651Z" fill="#EFEFEF"/>
<path d="M30.2202 225.509C62.8555 249.515 108.923 242.723 133.116 210.34C157.308 177.958 150.464 132.246 117.828 108.24C85.1928 84.2358 39.1252 91.0275 14.9329 123.41C-9.25948 155.793 -2.41512 201.504 30.2202 225.509Z" fill="#EFEFEF"/>
<path d="M85.4319 111.678C107.528 127.93 138.719 123.332 155.098 101.407C171.479 79.4817 166.844 48.5324 144.748 32.2794C122.652 16.0264 91.4608 20.6246 75.0815 42.5499C58.7013 64.475 63.3357 95.4249 85.4319 111.678Z" fill="#EFEFEF"/>
<path d="M176.972 42.0796C187.405 49.7538 202.132 47.5827 209.867 37.2302C217.601 26.8778 215.413 12.2643 204.98 4.5901C194.546 -3.0841 179.819 -0.912927 172.085 9.43951C164.351 19.7919 166.539 34.4054 176.972 42.0796Z" fill="#EFEFEF"/>
<path d="M311.52 165.07V171.889C311.52 185.527 307.021 196.702 298.024 205.415C289.027 214.034 277.283 218.343 262.793 218.343C247.451 218.343 234.76 213.371 224.721 203.426C214.777 193.482 209.805 181.265 209.805 166.775C209.805 152.379 214.777 140.209 224.721 130.265C234.76 120.226 247.167 115.207 261.941 115.207C271.222 115.207 279.698 117.338 287.37 121.6C295.041 125.861 301.008 131.591 305.269 138.789L291.205 146.886C288.554 142.151 284.623 138.363 279.414 135.521C274.205 132.586 268.381 131.118 261.941 131.118C251.523 131.118 242.952 134.527 236.228 141.346C229.504 148.165 226.142 156.688 226.142 166.917C226.142 177.145 229.504 185.621 236.228 192.346C243.047 199.07 251.949 202.432 262.935 202.432C271.743 202.432 278.893 200.396 284.386 196.323C289.974 192.156 293.526 186.616 295.041 179.702H261.799V165.07H311.52Z" fill="#EFEFEF"/>
<path d="M349.895 200.869H393.934V216.496H333.558V117.054H393.224V132.68H349.895V158.535H389.672V174.02H349.895V200.869Z" fill="#EFEFEF"/>
<path d="M475.658 117.054H491.995V216.496H479.209L432.329 149.017V216.496H415.992V117.054H428.778L475.658 184.532V117.054Z" fill="#EFEFEF"/>
<path d="M535.295 200.869H579.334V216.496H518.958V117.054H578.624V132.68H535.295V158.535H575.072V174.02H535.295V200.869Z" fill="#EFEFEF"/>
<path d="M634.492 218.343C624.927 218.343 616.782 216.165 610.058 211.808C603.429 207.451 598.788 201.485 596.136 193.908L610.2 185.669C614.178 196.844 622.417 202.432 634.919 202.432C641.075 202.432 645.668 201.248 648.699 198.88C651.824 196.418 653.387 193.245 653.387 189.362C653.387 185.29 651.729 182.212 648.414 180.128C645.1 177.95 639.228 175.583 630.799 173.025C626.064 171.605 622.228 170.279 619.292 169.048C616.356 167.817 613.231 166.112 609.916 163.934C606.696 161.661 604.281 158.867 602.671 155.552C601.061 152.237 600.256 148.354 600.256 143.903C600.256 135.095 603.381 128.134 609.632 123.02C615.883 117.811 623.412 115.207 632.22 115.207C640.175 115.207 647.136 117.148 653.102 121.031C659.069 124.914 663.662 130.265 666.882 137.084L653.102 145.04C648.935 135.758 641.974 131.118 632.22 131.118C627.484 131.118 623.696 132.254 620.855 134.527C618.013 136.705 616.593 139.689 616.593 143.477C616.593 147.17 618.013 150.106 620.855 152.285C623.791 154.368 629.047 156.594 636.623 158.961C640.412 160.193 643.158 161.14 644.863 161.803C646.662 162.371 649.125 163.318 652.25 164.644C655.47 165.97 657.885 167.296 659.495 168.622C661.105 169.947 662.81 171.605 664.609 173.594C666.503 175.583 667.829 177.855 668.587 180.413C669.345 182.97 669.723 185.858 669.723 189.078C669.723 198.075 666.456 205.226 659.921 210.529C653.481 215.738 645.005 218.343 634.492 218.343Z" fill="#EFEFEF"/>
<path d="M690.208 117.054H706.545V216.496H690.208V117.054Z" fill="#EFEFEF"/>
<path d="M765.233 218.343C755.667 218.343 747.522 216.165 740.798 211.808C734.169 207.451 729.528 201.485 726.876 193.908L740.94 185.669C744.918 196.844 753.157 202.432 765.659 202.432C771.815 202.432 776.408 201.248 779.439 198.88C782.564 196.418 784.127 193.245 784.127 189.362C784.127 185.29 782.469 182.212 779.154 180.128C775.84 177.95 769.968 175.583 761.539 173.025C756.804 171.605 752.968 170.279 750.032 169.048C747.096 167.817 743.971 166.112 740.656 163.934C737.436 161.661 735.021 158.867 733.411 155.552C731.801 152.237 730.996 148.354 730.996 143.903C730.996 135.095 734.121 128.134 740.372 123.02C746.623 117.811 754.152 115.207 762.96 115.207C770.915 115.207 777.876 117.148 783.842 121.031C789.809 124.914 794.402 130.265 797.622 137.084L783.842 145.04C779.675 135.758 772.714 131.118 762.96 131.118C758.224 131.118 754.436 132.254 751.595 134.527C748.754 136.705 747.333 139.689 747.333 143.477C747.333 147.17 748.754 150.106 751.595 152.285C754.531 154.368 759.787 156.594 767.363 158.961C771.152 160.193 773.898 161.14 775.603 161.803C777.402 162.371 779.865 163.318 782.99 164.644C786.21 165.97 788.625 167.296 790.235 168.622C791.845 169.947 793.55 171.605 795.349 173.594C797.244 175.583 798.569 177.855 799.327 180.413C800.085 182.97 800.464 185.858 800.464 189.078C800.464 198.075 797.196 205.226 790.661 210.529C784.221 215.738 775.745 218.343 765.233 218.343Z" fill="#EFEFEF"/>
</g>
<defs>
<clipPath id="clip0_1627_2684">
<rect width="801" height="337" fill="white"/>
</clipPath>
</defs>
</svg>
