<?xml version="1.0" encoding="UTF-8" standalone="no"?>
<!DOCTYPE svg PUBLIC "-//W3C//DTD SVG 1.1//EN" "http://www.w3.org/Graphics/SVG/1.1/DTD/svg11.dtd">
<svg width="100%" height="100%" viewBox="0 0 1477 1062" version="1.1" xmlns="http://www.w3.org/2000/svg" xmlns:xlink="http://www.w3.org/1999/xlink" xml:space="preserve" xmlns:serif="http://www.serif.com/" style="fill-rule:evenodd;clip-rule:evenodd;stroke-linejoin:round;stroke-miterlimit:2;">
    <g id="School---Main---On-dark" serif:id="School / Main / On dark">
        <g>
            <path d="M212.655,379.975C240.246,394.813 254.253,412.851 254.253,470.431L254.253,671.271L332.979,671.271L332.979,452.078C332.979,358.786 280.998,297.962 193.923,289.419C164.227,286.734 139.364,289.169 113.256,297.425C104.097,300.29 95.662,304.049 88.193,308.575L83.13,311.589L83.13,83.366L79.886,85.042C73.177,88.579 60.824,95.132 41.511,105.766C10.498,123.259 -0,144.341 -0,189.297L-0,671.271L83.13,671.271L83.13,392.106L84.634,391.125C123.503,365.704 177.317,361.028 212.655,379.975Z" style="fill:white;fill-rule:nonzero;"/>
            <path d="M1021.2,456.818L1021.49,453.238C1026.16,393.015 1080.66,365.582 1129.31,365.582C1178.13,365.582 1233.07,392.994 1238.42,453.188L1238.75,456.818L1021.2,456.818ZM1271.02,353.989C1237.1,313.394 1187.71,291.045 1131.94,291.045L1130.74,291.045C1005.63,291.783 940.147,389.707 940.147,486.02C939.725,540.306 959.725,591.821 995.013,627.375C1029.41,662.019 1076.6,680.322 1131.5,680.322C1196.66,680.322 1252.85,651.228 1293.96,596.204L1295.39,594.299L1235.35,556.103L1234.14,557.779C1203.8,599.698 1163.37,605.069 1131.5,605.069C1070.52,605.069 1031.63,564.095 1021.29,526.071L1020.13,521.867L1310.81,521.867L1311.14,520.056C1322.58,458.694 1307.94,398.164 1271.02,353.989Z" style="fill:white;fill-rule:nonzero;"/>
            <path d="M507.517,262.452C500.779,265.989 488.426,272.527 469.121,283.175C438.1,300.676 427.631,321.758 427.631,366.692L427.631,671.271L510.782,671.271L510.782,260.755L507.517,262.452Z" style="fill:white;fill-rule:nonzero;"/>
            <path d="M783.281,669.774L783.281,190.757C783.281,145.823 793.779,124.742 824.864,107.198C844.105,96.592 856.436,90.062 863.174,86.546L866.44,84.842L866.44,669.774L783.281,669.774Z" style="fill:white;fill-rule:nonzero;"/>
            <path d="M605.463,669.774L605.463,190.757C605.463,145.823 615.961,124.742 647.017,107.198C666.287,96.592 678.618,90.062 685.328,86.546L688.6,84.842L688.6,669.774L605.463,669.774Z" style="fill:white;fill-rule:nonzero;"/>
            <path d="M1393.25,669.774L1393.25,190.757C1393.25,145.823 1403.72,124.742 1434.8,107.198C1454.05,96.592 1466.4,90.062 1473.12,86.546L1476.38,84.842L1476.38,669.774L1393.25,669.774Z" style="fill:white;fill-rule:nonzero;"/>
            <path d="M458.981,233.837C469.006,227.55 478.451,222.895 486.056,219.179C498.229,213.207 508.684,208.037 516.468,199.601C554.671,158.247 544.954,94.716 544.531,92.031L543.457,85.472L540.371,91.358C540.213,91.673 522.984,124.14 492.794,146.675C489.371,149.203 485.161,152.046 480.198,155.383C471.111,161.513 459.769,169.117 446.113,179.816C401.229,215.026 400.713,273.286 400.713,275.749L400.713,282.015L404.673,277.139C404.716,277.046 420.112,258.248 458.981,233.837Z" style="fill:rgb(255,214,0);fill-rule:nonzero;"/>
            <path d="M449.457,116.006C470.044,103.095 484.652,93.041 494.141,82.815C523.901,50.591 515.96,8.006 515.58,6.216L514.37,-0L511.441,5.593C511.348,5.793 498.28,30.613 474.921,48.021C472.415,49.897 469.371,51.959 465.812,54.351C458.609,59.206 449.521,65.321 438.981,73.578C404.229,100.81 403.807,145.945 403.807,147.85L403.807,154.137L407.767,149.232C407.831,149.146 419.288,134.96 449.457,116.006Z" style="fill:rgb(0,174,239);fill-rule:nonzero;"/>
        </g>
        <g>
            <rect x="-0" y="795.212" width="42.52" height="262.161" style="fill:white;"/>
            <path d="M76.454,795.585L76.454,834.743L138.353,834.743L138.353,1057.37L181.246,1057.37L181.246,834.743L242.773,834.743L242.773,795.585L76.454,795.585Z" style="fill:white;fill-rule:nonzero;"/>
            <path d="M429.978,943.632C418.04,941.025 400.514,938.78 400.142,922.372C399.769,905.219 417.668,900.004 429.978,900.004C443.025,900.004 453.846,904.846 465.775,914.168L488.152,889.183C469.882,870.167 448.622,864.198 429.233,864.198C394.173,864.198 360.611,884.713 360.611,922C360.984,957.805 389.702,973.096 421.029,978.311C433.704,980.546 453.101,986.143 453.101,1004.41C453.101,1020.45 435.194,1025.67 421.029,1024.93C406.111,1023.81 391.192,1015.24 380.753,1001.81L355.396,1026.42C372.549,1050.66 396.417,1061.47 422.147,1061.47C452.728,1061.47 492.623,1046.55 492.623,1003.3C492.623,966.382 462.05,949.61 429.978,943.632Z" style="fill:white;fill-rule:nonzero;"/>
            <path d="M688.778,895.152C667.527,874.265 644.777,864.57 618.302,864.57C555.276,864.943 520.597,911.56 520.224,963.02C520.224,1014.49 553.786,1061.47 618.302,1061.47C644.777,1061.47 670.134,1049.54 690.268,1029.4L667.154,1004.41C649.628,1020.08 636.573,1024.56 618.302,1024.56C580.634,1024.56 560.5,996.21 560.5,963.765C560.872,922.745 588.838,901.494 617.929,901.866C633.965,901.866 651.118,905.964 666.037,920.519L688.778,895.152Z" style="fill:white;fill-rule:nonzero;"/>
            <path d="M730.544,796.33L730.544,1057.37L771.192,1057.37L771.192,913.795C783.13,906.336 797.676,900.749 811.095,901.121C837.198,901.866 860.32,917.157 860.32,946.985L860.32,1057.37L900.969,1057.37L900.969,946.985C900.969,894.78 865.172,865.315 817.064,865.315C804.381,865.315 786.11,869.422 771.564,881.724L771.564,796.33L730.544,796.33Z" style="fill:white;fill-rule:nonzero;"/>
            <path d="M981.148,963.02C981.148,921.255 1011.36,901.866 1039.32,901.866C1068.03,901.866 1097.12,921.255 1097.12,963.02C1097.12,1004.79 1068.03,1024.93 1039.32,1024.93C1011.36,1024.93 981.148,1004.79 981.148,963.02ZM1137.77,963.02C1137.77,907.835 1096.38,864.943 1039.32,864.943C982.638,864.943 940.5,907.835 940.5,963.02C940.5,1017.84 982.638,1061.47 1039.32,1061.47C1096.38,1061.47 1137.77,1017.84 1137.77,963.02Z" style="fill:white;fill-rule:nonzero;"/>
            <path d="M1209.75,963.02C1209.75,921.255 1239.95,901.866 1267.92,901.866C1296.63,901.866 1325.73,921.255 1325.73,963.02C1325.73,1004.79 1296.63,1024.93 1267.92,1024.93C1239.95,1024.93 1209.75,1004.79 1209.75,963.02ZM1366.37,963.02C1366.37,907.835 1324.98,864.943 1267.92,864.943C1211.24,864.943 1169.1,907.835 1169.1,963.02C1169.1,1017.84 1211.24,1061.47 1267.92,1061.47C1324.98,1061.47 1366.37,1017.84 1366.37,963.02Z" style="fill:white;fill-rule:nonzero;"/>
            <path d="M1476.38,1021.2C1453.63,1023.07 1448.41,1014.5 1448.41,999.204L1448.41,796.335L1407.77,796.335L1407.77,999.204C1407.77,1042.83 1431.63,1062.59 1476.38,1057.75L1476.38,1021.2Z" style="fill:white;fill-rule:nonzero;"/>
        </g>
    </g>
</svg>
