<svg width="122" height="122" viewBox="0 0 122 122" fill="none" xmlns="http://www.w3.org/2000/svg">
<path d="M58.5415 0.0290833C49.7934 0.442062 41.7606 2.51858 34.1235 6.33427C24.6191 11.0922 16.6155 18.1536 10.6709 27.0355C5.19753 35.2136 1.78319 44.747 0.817635 54.548C0.457006 58.1659 0.427923 61.9176 0.730386 65.5705C1.66686 77.0931 6.04094 88.3017 13.1837 97.5152C15.7081 100.772 18.6629 103.867 21.8737 106.618C33.0125 116.157 47.5307 121.369 62.1187 121.067C69.215 120.921 75.7703 119.671 82.3314 117.21C97.3615 111.574 109.78 99.8709 116.364 85.1317C123.769 68.5602 123.309 49.4527 115.108 33.2884C112.095 27.3496 108.337 22.2194 103.521 17.4672C100.549 14.5299 97.8733 12.3486 94.4299 10.0569C85.3676 4.02509 75.0083 0.622375 63.98 0.0465317C62.9796 -0.00582123 59.4838 -0.0174484 58.5415 0.0290833ZM63.7532 2.60583C77.0499 3.26893 89.2182 8.19558 99.3158 17.0019C100.584 18.1071 103.498 21.0212 104.591 22.2776C109.076 27.4252 112.578 33.1371 115.021 39.3085C120.25 52.518 120.389 67.4259 115.416 80.7227C111.833 90.2852 105.726 98.8239 97.8035 105.339C91.7368 110.323 84.6348 114.075 77.1779 116.233C65.9635 119.479 53.9348 119.258 42.8949 115.593C36.0371 113.319 29.476 109.66 23.9328 105.013C22.054 103.436 19.39 100.866 17.901 99.1904C9.59487 89.8315 4.59842 78.5415 3.37694 66.3557C3.15591 64.1977 3.10937 63.1624 3.10937 60.5391C3.10937 57.9216 3.15591 56.8921 3.37694 54.7225C4.31341 45.3287 7.48345 36.4758 12.7649 28.5129C17.011 22.1147 22.5775 16.5482 28.9758 12.2788C37.7414 6.43316 47.7343 3.12933 58.1925 2.61165C59.5885 2.54185 62.4095 2.54185 63.7532 2.60583Z" fill="white"/>
<path d="M59.2105 3.57139C56.8547 3.6819 55.0225 3.83895 53.1903 4.09488C39.498 6.00854 26.9225 12.9012 17.8545 23.4525C5.79668 37.4821 1.30627 56.421 5.79086 74.3361C8.70498 85.9925 15.301 96.474 24.6134 104.268C33.5011 111.696 44.4596 116.245 55.9532 117.274C59.1523 117.565 62.9622 117.565 66.1613 117.28C75.5376 116.442 84.629 113.243 92.4814 108.014C94.6917 106.548 96.5588 105.117 98.7051 103.245C99.659 102.413 102.585 99.5161 103.446 98.5505C108.814 92.5245 112.758 85.7133 115.213 78.2215C116.777 73.4519 117.644 68.851 117.964 63.6801C118.045 62.2957 118.045 58.7825 117.964 57.3981C117.469 49.3538 115.498 41.9783 111.967 34.9752C107.511 26.1572 100.892 18.6771 92.6501 13.1571C84.3614 7.60229 75.0025 4.40315 64.9689 3.6819C63.7823 3.60046 60.1527 3.52486 59.2105 3.57139ZM65.4051 4.72307C68.6741 5.00227 71.7103 5.49667 74.5895 6.21793C94.6277 11.2376 110.431 27.0704 115.399 47.1028C117.597 55.9847 117.568 65.4192 115.311 74.2953C112.578 85.0502 106.598 94.8628 98.2631 102.285C91.4867 108.317 83.4889 112.574 74.7989 114.785C68.8311 116.303 62.4387 116.82 56.244 116.291C45.1692 115.337 34.6237 111.074 25.9221 104.03C23.0545 101.709 19.9252 98.5796 17.5811 95.6888C10.5837 87.0686 6.32017 76.5813 5.32553 65.5414C5.08124 62.889 5.05215 58.6371 5.26155 56.2057C5.88974 48.743 7.71615 42.1587 10.9676 35.6441C13.1489 31.2816 15.7489 27.4078 19.012 23.6677C20.1055 22.4171 22.9673 19.5554 24.2004 18.4793C27.8706 15.2802 31.7154 12.686 35.9441 10.5455C42.8367 7.06716 49.9563 5.1535 57.9308 4.64163C59.2046 4.5602 64.1255 4.61837 65.4051 4.72307Z" fill="white"/>
<path d="M30.9651 88.895C30.8371 88.9997 30.6044 89.2382 30.4532 89.4127L30.174 89.7384L30.3892 90.1339C30.9767 91.21 31.8783 92.4082 32.7798 93.3098C33.4022 93.9322 34.6877 95.0315 34.7866 95.0315C34.9611 95.0315 36.5664 94.7814 36.6304 94.7465C36.6886 94.7174 36.5199 94.5662 36.1186 94.2753C33.9955 92.763 32.5821 91.21 31.5118 89.2324C31.3548 88.9357 31.221 88.6914 31.2152 88.6914C31.2094 88.6914 31.0988 88.7845 30.9651 88.895Z" fill="white"/>
<path d="M28.5279 63.7789C28.336 63.9883 28.0277 64.3606 27.8474 64.6049L27.51 65.047V67.0537V69.0604L27.9928 69.5315C28.4349 69.962 28.8536 70.311 28.9293 70.311C28.9467 70.311 28.9642 68.7521 28.9642 66.8501C28.9642 64.9481 28.9467 63.3892 28.9234 63.395C28.8944 63.395 28.7199 63.5695 28.5279 63.7789Z" fill="white"/>
<path d="M28.4698 45.1949C28.2604 45.4218 27.9579 45.7824 27.795 45.9918L27.51 46.3757V51.5874V56.799L27.9637 57.2353C28.2138 57.4738 28.5396 57.7529 28.6908 57.8518L28.9642 58.0438V51.407C28.9642 47.4808 28.9409 44.7761 28.9118 44.7761C28.8827 44.7761 28.685 44.9623 28.4698 45.1949Z" fill="white"/>
<path d="M93.3596 63.8953L93.3538 68.2112L93.6795 68.3101C94.0053 68.4031 94.2903 68.3915 94.5985 68.2752L94.7498 68.217V66.1056V63.9942L94.5811 63.6742C94.2554 63.0751 93.9936 62.191 93.4236 59.812C93.3829 59.655 93.3654 61.0044 93.3596 63.8953Z" fill="white"/>
<path d="M58.716 8.07343C54.3478 8.28283 50.0144 9.02735 45.9486 10.2605C45.3553 10.4408 44.8202 10.6036 44.762 10.6211C44.6631 10.6444 44.6573 10.6269 44.6864 10.4524C44.7388 10.179 44.6573 9.9231 44.4887 9.82422C44.3549 9.7486 44.3083 9.75443 44.0117 9.89403C43.8314 9.97546 43.43 10.2256 43.1159 10.4466C42.3307 10.9992 41.72 11.3424 41.0161 11.6216C40.2774 11.9124 40.1786 11.9764 39.9808 12.2846C39.8528 12.4824 39.7423 12.5638 39.3235 12.75C36.3222 14.1111 32.7042 16.2457 29.9763 18.2699L29.2085 18.8341H28.3592H27.51V19.5147V20.201L26.8527 20.7594C25.4393 21.9693 23.3046 24.0574 22.0133 25.4941C21.2746 26.3201 20.1811 27.6346 19.4889 28.5362C19.1865 28.9259 18.9189 29.2458 18.9015 29.2458C18.8782 29.2458 18.8317 29.1004 18.7909 28.9201C18.6746 28.4141 18.2267 28.0069 18.0173 28.2221C17.9592 28.2745 17.9185 28.4955 17.8894 28.8503C17.8428 29.5541 17.616 30.5429 17.4124 30.9385C17.3252 31.113 17.1332 31.4329 16.982 31.6597C16.633 32.1774 16.4818 32.4799 16.3945 32.8172C16.3596 32.9685 16.1502 33.3814 15.935 33.7421C15.7256 34.1027 15.4231 34.6204 15.2661 34.9054L14.9811 35.4114L14.8008 35.2369C14.4692 34.9112 14.4111 35.0101 14.3936 35.9058L14.382 36.5457L14.097 37.1099L13.8119 37.6799H13.5909C13.1198 37.6799 13.0325 37.8486 12.9685 38.9014C12.9278 39.6168 12.922 39.6401 12.5963 40.4021C12.416 40.8267 12.1368 41.3851 11.9797 41.6526C11.7354 42.0482 11.6889 42.1761 11.6889 42.4146C11.6889 42.6007 11.59 42.9788 11.3922 43.5488C10.5256 46.0558 9.79849 48.9059 9.33898 51.5641L9.15285 52.6576L8.35598 52.6751C7.79759 52.6867 7.44859 52.6634 7.18102 52.5995C6.59936 52.4657 6.36088 52.4831 6.24455 52.6576C6.07005 52.9252 6.17476 53.1579 6.7157 53.7279C7.29736 54.3444 7.39042 54.5131 7.56492 55.2984C7.75687 56.1708 7.95463 56.4093 8.48394 56.4093H8.73987L8.69916 56.7118C8.68171 56.8805 8.66426 57.0957 8.66426 57.1887C8.66426 57.3051 8.64099 57.3458 8.57701 57.3225C8.53047 57.2993 8.21638 57.2469 7.8732 57.1946C7.40206 57.1248 7.23919 57.1189 7.20429 57.1713C7.12867 57.2934 7.26828 57.6424 7.89647 58.9395L8.51885 60.2192L8.58864 62.0223C8.66426 64.1163 8.72824 64.9888 8.93182 66.7047C9.75777 73.7602 12.1193 80.8157 15.6965 86.9115C16.1502 87.6851 16.1677 87.7317 16.1677 88.0749C16.1677 88.3715 16.1386 88.4704 16.0223 88.6332C15.8129 88.9124 15.9117 88.9881 16.5341 89.0346L17.0227 89.0695L17.5346 89.8257C23.7583 98.9926 32.6054 105.955 42.8658 109.765C47.7576 111.58 52.6959 112.615 58.0471 112.952C59.3849 113.034 62.7411 113.034 64.0964 112.947C71.3439 112.493 78.0039 110.719 84.3963 107.531C93.7552 102.866 101.468 95.5666 106.726 86.3939C107.407 85.2131 108.675 82.6712 109.227 81.4032C111.676 75.7495 113.09 69.8282 113.479 63.6219C113.508 63.0926 113.537 62.3132 113.537 61.8886C113.537 61.1324 113.543 61.1091 113.7 60.8706C113.968 60.4751 113.968 60.4809 113.782 60.5158L113.613 60.5507L113.578 60.1494C113.555 59.9342 113.537 59.4863 113.537 59.1548C113.537 58.6254 113.555 58.5207 113.689 58.259C113.881 57.8809 113.857 57.5494 113.607 57.0375C113.462 56.7292 113.421 56.5547 113.369 55.9614C113.276 54.9028 113.258 54.9726 113.584 54.9261C114.183 54.8388 114.323 54.7109 114.788 53.8733C115.364 52.8379 115.765 51.663 115.631 51.4129C115.527 51.2093 115.416 51.2733 115.09 51.7095C114.689 52.2446 114.48 52.4424 114.23 52.5122C113.91 52.6053 113.671 52.582 113.276 52.4133L112.909 52.2505L112.839 51.8142C112.618 50.3892 112.031 47.8124 111.554 46.143C111.042 44.3748 110.141 41.7864 109.536 40.3846L109.309 39.8553L109.413 39.4947L109.518 39.1282L109.39 39.1689C109.076 39.2736 109.064 39.262 108.588 38.2616L108.134 37.3018L108.169 36.6038C108.198 35.9931 108.192 35.8942 108.105 35.8244C108.006 35.743 107.959 35.7546 107.546 35.9756C107.529 35.9873 107.343 35.5103 107.139 34.9112L106.761 33.8351L106.685 34.0678C106.639 34.2016 106.587 34.3063 106.563 34.3063C106.54 34.3063 106.418 34.1318 106.296 33.9166C106.168 33.7013 105.86 33.1953 105.609 32.794C105.173 32.1018 105.156 32.0553 105.191 31.8168C105.243 31.4794 105.127 31.3049 104.813 31.2526C104.592 31.2177 104.551 31.1769 104.115 30.5371C103.853 30.159 103.568 29.7519 103.469 29.6239L103.294 29.3854L103.475 28.8154C103.742 27.9429 103.725 27.8789 103.132 27.1868C102.835 26.8378 102.66 26.5411 102.66 26.3783C102.66 26.2503 102.538 26.1921 102.48 26.2852C102.451 26.3317 102.323 26.6342 102.189 26.9599C102.055 27.2915 101.933 27.559 101.91 27.559C101.887 27.559 101.724 27.3845 101.549 27.1693C99.9499 25.1917 97.3673 22.5509 95.4129 20.8874L94.7498 20.3174V19.5728V18.8341H93.8308H92.9118L92.0451 18.1885C88.9914 15.92 85.2862 13.8028 81.6625 12.2497C81.0401 11.9822 80.3712 11.6681 80.1793 11.5518C79.7605 11.3016 79.1614 11.005 78.6204 10.7781C78.1027 10.5629 77.8701 10.2896 77.6839 9.70207C77.4978 9.12623 77.4222 9.1146 76.9511 9.59156L76.5962 9.958L76.0029 9.33563C75.4038 8.71326 75.2061 8.59111 74.985 8.70744C74.8513 8.77724 74.7931 9.10878 74.8396 9.5741C74.8745 9.87075 74.8687 9.89403 74.764 9.85331C74.7058 9.83004 74.1824 9.69626 73.6065 9.55084C70.6982 8.82959 67.6387 8.35844 64.3872 8.13159C63.189 8.05016 59.9492 8.01527 58.716 8.07343ZM63.9975 9.12041C65.725 9.22511 68.1389 9.49268 69.6163 9.7486L69.8723 9.78932L69.9479 10.1441C70.0409 10.5978 70.2387 11.0573 70.4772 11.3714L70.6691 11.6216H70.5063C70.3201 11.6216 69.7036 11.418 68.581 10.9875C68.104 10.8072 67.7608 10.7025 67.691 10.7258C67.5631 10.7665 67.4118 11.0748 67.4118 11.29C67.4118 11.4296 67.406 11.4354 66.7022 11.4587C66.0857 11.4878 65.917 11.5169 65.4633 11.6797C64.6606 11.9647 64.2418 12.2149 63.5496 12.8081L62.9098 13.3549L62.2118 12.7383C61.8221 12.401 61.4266 12.052 61.3277 11.9589L61.1474 11.7902L57.1165 15.3151C54.1849 17.8686 53.039 18.8341 52.9402 18.8341C52.8296 18.8341 52.9634 18.7003 53.5393 18.2292L54.2722 17.6185L54.0802 17.5894C53.9755 17.5719 53.7312 17.5428 53.5393 17.5196C53.1147 17.4789 52.8122 17.3567 52.8122 17.2346C52.8122 17.095 53.1147 16.9437 53.9871 16.6471C55.0574 16.2865 55.1388 16.1934 55.1388 15.3965C55.1388 14.7102 55.2377 14.6578 56.2207 14.7858C56.6744 14.8498 56.9303 14.8556 57.0758 14.8149C57.4131 14.7218 57.4073 14.6055 57.0525 14.082C56.7907 13.7039 56.8198 13.605 57.3375 13.1513C58.0355 12.5406 58.3961 12.1567 58.3961 12.0345C58.3961 11.8251 58.2623 11.7902 57.3899 11.7786C56.3952 11.767 56.3487 11.7437 55.9881 11.1504C55.5285 10.3826 55.261 10.1732 54.7666 10.1674C54.4176 10.1674 53.5974 10.4699 52.3236 11.0748C50.4739 11.9589 50.0202 12.1509 49.7643 12.1625C49.5782 12.1741 49.5258 12.1509 49.5084 12.0694C49.4793 11.9298 49.6712 11.7321 50.3169 11.2086C50.8578 10.7665 51.0149 10.5862 51.1777 10.2081L51.2882 9.958L52.5853 9.74279C54.5106 9.4287 56.4825 9.20767 58.3961 9.10297C59.2337 9.05643 63.1076 9.06807 63.9975 9.12041ZM73.9264 10.6618C75.2003 10.9992 75.049 10.8945 75.4446 11.6914C75.6307 12.0811 75.7877 12.465 75.7877 12.5522C75.7877 12.8954 75.5085 12.9186 75.0665 12.6162C74.8047 12.4359 74.0835 11.6972 73.7287 11.2435C73.6007 11.0806 73.3913 10.8421 73.2633 10.7025C73.1354 10.5687 73.0539 10.4582 73.083 10.4582C73.1179 10.4582 73.496 10.5513 73.9264 10.6618ZM45.7741 11.7728C45.2099 12.3428 44.7853 12.6685 44.5992 12.6685C44.4712 12.6685 44.4247 12.494 44.4479 12.0869L44.4654 11.7728L45.3088 11.4994C45.7741 11.3482 46.1929 11.226 46.2394 11.2202C46.286 11.2144 46.0766 11.4645 45.7741 11.7728ZM54.0104 13.256C54.0744 13.3665 53.737 13.6457 53.2252 13.9133C52.5272 14.2681 51.3057 14.8032 51.0847 14.8498C50.8404 14.8963 50.6601 14.7974 50.6601 14.6113C50.6601 14.5008 50.7415 14.4193 51.0556 14.2158C51.2708 14.0762 51.6023 13.8958 51.7943 13.8144C52.3759 13.5701 53.5335 13.2327 53.8999 13.1979C53.9348 13.192 53.9871 13.2211 54.0104 13.256ZM69.564 13.4014C69.8664 13.4538 70.5761 13.6108 71.1345 13.7504C71.6929 13.89 72.5944 14.0994 73.1412 14.2158C74.1533 14.4251 74.5372 14.5531 74.6768 14.7276C74.7466 14.8091 74.7408 14.8381 74.6535 14.937C74.4906 15.1173 74.0835 15.2802 72.9143 15.6117C72.3036 15.7921 71.6114 16.0073 71.3788 16.1003C70.611 16.4086 69.7094 16.4726 69.2732 16.2457C68.9067 16.0538 69.1743 15.8444 70.2562 15.4489C71.117 15.1406 71.245 14.9835 70.7971 14.8032C70.5412 14.7043 70.3899 14.6753 69.4767 14.5589C68.3076 14.4077 67.9062 14.2332 67.7259 13.7911C67.5922 13.4829 67.6212 13.32 67.8074 13.2909C68.0633 13.2444 68.9649 13.3025 69.564 13.4014ZM82.5466 13.7504C83.6169 14.239 85.4898 15.1988 86.4903 15.7746C87.3395 16.2632 88.9972 17.2811 88.974 17.2986C88.9681 17.3102 88.7006 17.2753 88.3807 17.2346C88.0608 17.188 87.2348 17.1124 86.5484 17.0601C85.8621 17.0135 85.0478 16.9321 84.7453 16.8856C84.4428 16.839 83.6809 16.746 83.0585 16.682C81.0692 16.4668 80.4759 16.3504 80.3538 16.1585C80.2607 16.0073 80.6213 15.478 81.1972 14.9137C81.5171 14.6055 81.7963 14.2856 81.8137 14.2158C81.8428 14.0994 81.8021 13.8784 81.6858 13.4654C81.6683 13.4131 81.6683 13.3665 81.6858 13.3665C81.7032 13.3665 82.0929 13.541 82.5466 13.7504ZM39.4631 14.2797C39.4631 14.873 39.5736 15.0766 40.2833 15.8153C40.5799 16.1294 40.8416 16.4551 40.8649 16.5366C40.9696 16.9612 39.975 17.4207 38.0671 17.822C37.1656 18.014 35.6823 18.4095 35.1007 18.6189C34.9727 18.6655 34.8738 18.7353 34.8796 18.7701C34.8913 18.8167 34.3329 18.8341 32.9136 18.8341C30.9709 18.8341 30.9302 18.8341 31.0639 18.7294C31.8666 18.1071 33.9839 16.7402 35.4497 15.8909C36.4327 15.3209 39.2944 13.8377 39.4049 13.8319C39.4398 13.8319 39.4689 14.0122 39.4631 14.2797ZM46.3209 14.0413C46.3732 14.0878 46.4139 14.175 46.4139 14.2274C46.4081 14.367 46.2162 14.7741 46.0184 15.065C45.6113 15.6583 45.4484 16.1818 45.6229 16.3272C45.7974 16.4726 46.7513 16.2341 47.3097 15.9026C47.6529 15.699 48.2811 15.0417 48.6708 14.4891C48.9907 14.0354 49.1245 13.9017 49.2001 13.9831C49.2175 14.0005 49.235 14.2681 49.235 14.5764V15.1406L49.7468 15.1231C50.026 15.1115 50.2529 15.129 50.2529 15.158C50.2529 15.2278 49.4095 15.9433 48.8395 16.3563C48.2869 16.746 47.618 17.095 47.1643 17.2288C46.6931 17.3683 45.7101 17.444 45.0296 17.4032L44.4305 17.3625L44.4654 17.095C44.5352 16.5831 44.7911 15.7223 44.9889 15.3151C45.3379 14.6113 45.9079 13.9482 46.1638 13.9482C46.1987 13.9482 46.2743 13.9889 46.3209 14.0413ZM64.7246 14.1401C65.1317 14.3612 65.5622 14.7567 65.5389 14.9021C65.4982 15.1697 64.678 15.2627 64.2127 15.0475C63.8928 14.9021 63.5962 14.6811 63.5089 14.524C63.4275 14.3728 63.5205 14.2565 63.8346 14.1169C64.1487 13.9715 64.4279 13.9773 64.7246 14.1401ZM60.4203 15.8619C60.3156 15.9549 58.844 17.2346 57.1514 18.712L54.0686 21.3934H50.9974H47.9263V21.2015C47.9263 21.1026 47.9088 20.8467 47.8914 20.6373L47.8565 20.2592L50.7473 20.2418L53.6381 20.2243L57.1048 17.1997L60.5773 14.175L60.5948 14.937L60.6122 15.6932L60.4203 15.8619ZM62.0431 14.4833C62.1478 14.588 62.3572 14.9137 62.5026 15.1988C62.6539 15.4896 62.8226 15.7921 62.8807 15.8735C63.0261 16.0771 63.41 16.2516 63.8986 16.333C64.1197 16.3737 65.0096 16.6529 65.8821 16.9612L67.4584 17.5196L67.5514 17.8686C67.7899 18.7469 67.6678 18.7992 66.9581 18.1129C66.5161 17.6941 66.3939 17.6068 66.1031 17.5254C65.7425 17.4207 65.1899 17.4265 65.0736 17.5428C64.9805 17.6359 65.283 17.9907 65.9519 18.5898C66.8069 19.346 67.2199 19.6136 67.7608 19.759L68.2262 19.8869L68.3832 19.7706C68.4763 19.695 68.6159 19.6485 68.7671 19.6485H68.9998L68.9649 19.9393L68.93 20.2301H70.0177C70.6226 20.2301 71.1345 20.2068 71.1694 20.1778C71.1984 20.1487 71.4253 20.0847 71.6754 20.0382C72.2629 19.916 72.926 19.5903 73.6879 19.0377C74.0253 18.7992 74.3336 18.6015 74.3743 18.6015C74.5081 18.6015 74.5255 18.7643 74.4616 19.2529C74.3859 19.7822 74.415 19.8811 74.7 20.0556C74.8047 20.1196 74.8629 20.172 74.828 20.1778C74.7 20.1836 75.6016 20.4046 75.9041 20.4395C76.1658 20.4686 76.3112 20.4453 76.6486 20.329C77.1023 20.172 78.0155 19.5961 78.1202 19.41C78.2191 19.218 78.6204 19.0668 79.0334 19.0668C79.3766 19.0668 79.394 19.0726 79.394 19.2064C79.394 19.3518 79.1555 19.6136 78.8182 19.8346C78.6553 19.9451 78.5913 20.0382 78.5099 20.329C78.3703 20.7943 78.1958 20.9397 77.5153 21.155C76.2763 21.5389 76.1833 21.6319 75.7005 22.9465C75.3166 24.0109 75.1421 24.1796 74.2929 24.3308C73.717 24.4297 73.5949 24.4762 73.1528 24.7787C72.4025 25.2906 72.0884 25.7035 72.2396 25.9827C72.449 26.3783 73.1296 26.2794 74.1067 25.7152C74.479 25.4999 74.6186 25.4534 75.0316 25.4069C75.7354 25.3255 76.0262 25.2149 76.3054 24.9125C76.5555 24.6449 76.8696 24.0458 77.1779 23.2722C77.2826 23.0104 77.3989 22.772 77.4338 22.7429C77.4745 22.708 77.7014 22.6789 77.9457 22.6615C78.5157 22.6382 78.6088 22.5626 79.5045 21.4865C79.9524 20.9514 80.2665 20.6256 80.4003 20.5617C80.6853 20.4279 81.1332 20.4395 82.1744 20.6082C83.3028 20.7943 83.5413 20.7943 83.9077 20.6082C84.28 20.4162 84.3905 20.3174 84.6173 19.9567C84.722 19.7939 84.9256 19.5496 85.071 19.4158C85.356 19.1541 85.9028 18.869 86.0715 18.9039C86.2285 18.933 86.3274 19.3286 86.2983 19.8055L86.2751 20.2301H89.4684C91.2192 20.2301 92.6559 20.2476 92.6559 20.2708C92.6559 20.2941 92.4116 20.5558 92.1207 20.8525L91.5798 21.3934H85.8504H80.1153L79.8128 21.9286L79.5162 22.4695L85.3037 22.487L91.0854 22.4986V51.0173C91.0854 76.0287 91.0738 79.6524 90.9981 80.4668C90.6201 84.4628 89.259 88.0632 87.293 90.3026C86.1413 91.6172 84.501 92.8328 82.5931 93.7868C80.5806 94.793 78.632 95.4503 74.8513 96.3984C71.6754 97.1953 69.5291 97.8584 67.7376 98.6087C65.347 99.6033 63.4507 100.743 61.665 102.256L61.1241 102.715L60.7635 102.389C59.2861 101.046 56.9187 99.5684 54.7026 98.6087C52.9809 97.8584 51.9223 97.5326 48.1008 96.5729C43.4009 95.3979 41.8305 94.8919 39.9575 93.9554C36.3629 92.1523 34.0188 89.7209 32.6926 86.4229C32.5297 86.0216 32.396 85.7366 32.396 85.7831C32.3843 86.2077 32.2156 87.5339 32.1633 87.6561C32.0993 87.7957 32.1168 87.8596 32.3901 88.3715C33.9257 91.2449 36.5665 93.6006 40.0331 95.1885C41.7781 95.9854 43.3719 96.4856 47.4609 97.5036C51.1952 98.4342 52.5097 98.8356 54.086 99.5103C56.5406 100.557 58.4485 101.744 60.24 103.343L60.6064 103.669V104.507V105.344L59.8386 104.594C57.9482 102.75 55.5285 101.261 52.7191 100.208C51.6256 99.7953 50.1656 99.3881 47.0247 98.6087C45.5531 98.2423 44.035 97.8525 43.6511 97.742C43.2672 97.6315 42.9473 97.5443 42.9414 97.5501C42.9356 97.5617 43.0229 97.8525 43.1276 98.1957C43.2381 98.5447 43.3312 98.8705 43.3312 98.9228C43.3312 98.9752 43.3544 99.0508 43.3777 99.0915C43.4068 99.1264 44.9656 99.551 46.856 100.028C48.7406 100.505 50.5844 100.988 50.9509 101.098C53.9232 102.011 56.593 103.5 58.6753 105.42C59.1988 105.909 59.2919 106.025 59.129 106.025C59.0883 106.025 58.908 106.1 58.7277 106.199C58.1402 106.513 58.0529 106.467 57.3666 105.49C57.1863 105.228 56.7617 104.734 56.4185 104.385C55.8368 103.791 55.7903 103.756 55.5751 103.756C55.4471 103.756 55.2319 103.809 55.0923 103.873C54.9527 103.937 54.7317 104.018 54.6037 104.053C54.4699 104.088 54.2663 104.181 54.1558 104.257C53.5974 104.635 53.1612 104.344 52.0619 102.872C51.835 102.564 51.5907 102.291 51.5209 102.267C51.3929 102.227 51.329 102.279 51.1196 102.587C51.0439 102.709 51.0149 102.715 50.9044 102.657C50.8346 102.622 50.5786 102.331 50.3401 102.011C49.8806 101.406 49.6887 101.255 49.3688 101.255C49.1536 101.255 48.8104 101.441 48.7697 101.575C48.7522 101.622 48.7289 101.703 48.7115 101.755C48.6882 101.831 48.6475 101.814 48.4788 101.668C48.1298 101.366 47.9495 101.296 47.5831 101.337C47.4028 101.36 47.0131 101.389 46.7222 101.412C46.1929 101.441 46.1813 101.441 45.9021 101.261C45.4717 100.988 45.2797 101.023 44.7911 101.453C44.4479 101.755 44.2385 101.796 43.9303 101.604C43.7441 101.494 43.7325 101.476 43.6511 100.86C43.5929 100.423 43.4009 100.15 42.5401 99.2776C41.6909 98.4168 41.2604 97.9223 40.5741 97.044C40.3531 96.7648 40.1262 96.5322 40.0564 96.5147C39.9866 96.5031 39.5736 96.4798 39.1432 96.474L38.358 96.4566L37.7472 96.125C36.7235 95.5783 34.8331 95.1071 34.4492 95.3107C34.2747 95.4038 34.2573 95.5957 34.3271 96.5438C34.3969 97.4745 34.3736 97.7071 34.2049 97.7071C34.042 97.7071 33.8501 97.4512 33.4429 96.6776L33.0765 95.9912L33.1172 94.9617L33.1521 93.9322L32.9834 93.7344C32.8206 93.5483 32.3901 93.2807 32.1284 93.2051C32.047 93.1818 31.9655 93.1993 31.9015 93.2633C31.8201 93.3447 31.7736 93.3563 31.6456 93.304C31.5642 93.2691 31.3257 93.1702 31.1221 93.0829C30.7789 92.9375 30.7208 92.9317 30.4532 92.9899C30.0984 93.0655 29.9821 93.0364 29.3248 92.7107C28.5337 92.3152 27.6671 91.4136 26.6782 89.9594C26.2827 89.3836 26.2304 89.2149 26.3002 88.8659C26.3641 88.5344 26.5386 88.4413 26.9807 88.482C27.3762 88.5169 27.51 88.5809 27.8823 88.9241C28.2138 89.2265 28.4698 89.3022 28.8769 89.2149C29.319 89.1218 30.046 88.7496 30.3543 88.4529C30.7208 88.0981 30.7848 87.9062 30.7906 87.0918C30.8022 86.2543 30.8197 86.2019 31.4711 85.4341C32.3901 84.3464 32.8089 83.6542 32.8147 83.2006C32.8206 82.8399 32.5937 82.4095 32.14 81.9093C31.727 81.4614 31.6863 81.3567 31.4944 80.3155C31.3839 79.7513 31.285 79.5594 31.0989 79.5594C31.0232 79.5594 30.6684 79.7164 30.302 79.9084C29.2608 80.4551 28.8944 80.618 28.6326 80.6529C28.429 80.6762 28.3825 80.6587 28.3243 80.5482C28.1208 80.1643 28.4116 79.4488 29.2085 78.3786C29.8483 77.5294 29.9646 77.2734 30.1333 76.4533C30.238 75.9124 30.2496 75.7786 30.1915 75.5168C30.0635 74.9468 29.7959 74.5687 29.1328 74.0045C28.6152 73.5683 28.5454 73.4403 28.2429 72.4166C27.9812 71.5266 27.8241 71.1893 27.638 71.1079C27.4402 71.0148 27.3588 71.1427 27.3123 71.6313C27.2715 72.0385 27.1261 72.4399 26.9749 72.562C26.8644 72.6551 26.2013 72.8121 25.9046 72.8121H25.672L25.5673 72.0967C25.5091 71.707 25.3579 70.8752 25.2357 70.2528C25.0322 69.2407 24.974 69.0546 24.7181 68.5369C24.561 68.217 24.1422 67.5132 23.7874 66.9723C23.3686 66.3324 23.1476 65.9369 23.1476 65.8322C23.1476 65.745 23.2406 65.489 23.3512 65.2622C23.6245 64.7212 23.6885 64.698 24.8577 64.7503L25.736 64.791L26.0966 64.6165C26.591 64.3781 27.289 63.7033 27.6438 63.11C28.2894 62.0456 28.5803 60.5856 28.3534 59.5328C28.1789 58.7127 27.7485 58.131 26.8411 57.5203C26.5096 57.2876 26.2013 57.0433 26.1606 56.9735C26.0675 56.799 26.0733 56.0371 26.1722 55.3507C26.2129 55.0366 26.2304 54.7632 26.2071 54.74C26.1838 54.7167 26.0442 54.7458 25.893 54.8039C25.5091 54.9494 25.259 54.9843 25.1485 54.8912C25.0961 54.8505 24.9682 54.6353 24.8577 54.42C24.7471 54.199 24.5494 53.8442 24.4156 53.629L24.1771 53.2393L24.2178 52.5122C24.2644 51.6339 24.34 51.0639 24.4272 50.9766C24.4621 50.9417 24.7297 50.9068 25.0263 50.8952C25.6952 50.8777 25.8058 50.8545 25.8814 50.7091C25.9744 50.5346 25.8232 50.2961 25.4509 50.0402C25.2706 49.918 25.1252 49.8017 25.1252 49.79C25.1252 49.6737 25.7185 48.8478 26.021 48.5453C26.37 48.1905 26.3874 48.1614 26.5387 47.5972C26.6259 47.2773 26.8004 46.5735 26.9284 46.0325C27.1901 44.9216 27.3064 44.6714 27.9928 43.7001C28.2487 43.3511 28.5163 42.9381 28.5919 42.7869C28.7839 42.4088 28.8537 41.862 28.8362 40.8499L28.8188 39.9774H28.557C28.4116 39.9774 28.2138 40.0007 28.1091 40.024L27.9288 40.0705L28.0335 39.7273C28.1906 39.2155 28.2836 38.4768 28.2487 37.9998C28.2138 37.5112 27.9346 36.6329 27.6671 36.1676C27.3181 35.5627 26.7946 35.1671 26.5968 35.3649C26.5561 35.4114 26.4921 35.6615 26.463 35.9233C26.399 36.5049 26.0791 37.168 25.6662 37.5868C25.2823 37.9765 25.0089 38.0173 24.8867 37.6973C24.8111 37.4996 24.846 37.232 25.0787 36.2548C25.2532 35.5394 25.259 35.4289 25.2648 34.3005L25.2706 33.1022L25.0845 32.7998L24.8926 32.4973L25.0612 31.8168C25.3055 30.8454 25.323 30.6767 25.2125 30.1881C25.1601 29.9555 25.131 29.6937 25.1543 29.6065C25.1717 29.5192 25.3172 29.2226 25.4742 28.9492C25.8988 28.193 25.9395 28.036 25.9977 26.7796C26.0617 25.2789 26.2071 24.8776 26.7422 24.6391C26.9342 24.5518 27.0621 24.5344 27.2541 24.5635L27.51 24.5984V29.9089V35.2195L27.8706 35.5685C28.0742 35.7604 28.3418 35.9815 28.4698 36.0629C28.5977 36.1443 28.7373 36.2781 28.7838 36.3653C28.8304 36.4468 28.8885 36.5166 28.9176 36.5166C28.9409 36.5166 28.9642 32.951 28.9642 28.5944V20.6664L29.5458 21.248L30.1275 21.8297V47.8589V73.8882L30.4823 74.179C30.6801 74.3361 30.9127 74.5571 31.0058 74.6618L31.1745 74.8537V48.6733V22.4986H36.8166C39.9226 22.4986 42.4587 22.4811 42.4587 22.4579C42.4587 22.4346 42.3656 22.1845 42.2493 21.9053L42.0341 21.3934H36.328H30.6219L30.0868 20.8583C29.7901 20.5617 29.5458 20.2999 29.5458 20.2708C29.5458 20.2476 32.2622 20.2359 35.5834 20.2418C41.5629 20.2592 41.6211 20.265 42.0573 20.3872C42.86 20.614 43.7383 21.1375 43.7383 21.3934C43.7383 21.4458 43.6569 21.7773 43.558 22.1263C43.3428 22.8767 43.3428 23.4002 43.5638 23.9818C43.7616 24.4995 43.9768 24.6682 44.6864 24.8892C45.7218 25.2033 45.7741 25.2266 45.7741 25.3778C45.7741 25.4592 45.6171 25.7152 45.4135 25.9885C44.6282 27.0065 44.5759 27.1693 44.9307 27.5299C45.1459 27.7393 45.5647 27.9778 45.8497 28.0476C46.1289 28.1116 46.2162 28.0127 46.2627 27.5823C46.286 27.3671 46.3325 27.1402 46.3674 27.0704C46.4023 27.0006 46.7513 26.6225 47.141 26.2212C47.9088 25.436 48.1008 25.1451 48.1008 24.7554C48.1008 24.2319 47.8972 24.1505 46.8095 24.2377C46.0242 24.3017 45.7101 24.261 45.524 24.0749C45.3495 23.9062 45.4542 23.7317 45.9079 23.406C46.4547 23.0163 46.4605 22.9581 45.9661 22.487C45.809 22.3415 45.5589 22.01 45.4135 21.7599C44.9074 20.8874 44.4014 20.4628 43.4242 20.0847C42.8309 19.8579 42.6797 19.7299 42.4238 19.2471C42.2318 18.8865 41.9352 18.6189 41.4117 18.3223L41.0394 18.1129L41.7025 17.7988C42.575 17.3916 43.081 17.2229 43.209 17.3044C43.2614 17.3335 43.3253 17.4905 43.3486 17.6475C43.4242 18.1012 43.558 18.3223 43.8488 18.4677C44.0408 18.5666 44.128 18.6538 44.1746 18.7992C44.5061 19.7532 45.5647 20.6315 47.1701 21.2713L47.49 21.3993L47.6587 21.946L47.8274 22.4986H51.1312H54.4408L57.7563 19.6019C59.5827 18.014 61.095 16.7053 61.1241 16.6936C61.1474 16.6878 62.6713 17.9849 64.5035 19.5903L67.8365 22.4986H71.1635H74.4965L74.671 21.9809C74.7698 21.6959 74.8338 21.4458 74.8105 21.4283C74.7931 21.4109 73.2982 21.3934 71.4893 21.3934L68.1971 21.3876L64.9282 18.5375L61.6534 15.6815V14.9312C61.6534 14.0878 61.6592 14.082 62.0431 14.4833ZM76.4799 16.1352C77.0267 16.2748 77.1139 16.3039 77.0558 16.3621C76.9627 16.4551 75.2933 17.031 75.113 17.031C74.8571 17.031 74.351 16.7692 74.2987 16.6122C74.2114 16.3388 74.4441 16.0887 74.8803 15.9782C75.1537 15.9084 75.8692 15.9782 76.4799 16.1352ZM79.1032 17.4847C79.5802 17.6301 79.6325 17.6359 80.7609 17.6126C83.0643 17.5661 83.4133 17.5777 83.6692 17.6999C83.8728 17.8046 83.9019 17.8395 83.9019 18.0198C83.9019 18.1943 83.8728 18.235 83.6518 18.3572C83.2737 18.5666 82.6571 18.648 80.79 18.712C79.0799 18.776 78.5564 18.7527 78.3703 18.5957C78.2307 18.4793 77.9399 17.9267 77.9399 17.7755C77.9399 17.5487 78.3238 17.2346 78.5215 17.3044C78.5681 17.316 78.8298 17.3974 79.1032 17.4847ZM82.1627 19.2936C82.6629 19.3518 82.9421 19.4507 82.9421 19.567C82.9421 19.6775 82.599 19.9393 82.4477 19.9393C82.3721 19.9393 82.2383 19.9102 82.1453 19.8753C82.058 19.8404 81.7032 19.7939 81.3542 19.7706C80.6969 19.7241 80.5399 19.6659 80.6504 19.4856C80.8075 19.2413 81.2204 19.1889 82.1627 19.2936ZM94.0169 55.4031C94.3659 54.327 94.6742 53.4603 94.7033 53.4778C94.7266 53.4952 94.7498 50.8894 94.7498 47.6844V41.862L95.157 42.0772C95.8433 42.4321 96.2621 42.8741 96.2621 43.2289C96.2621 43.3104 96.14 43.5488 95.9888 43.7699C95.8375 43.9851 95.6689 44.2934 95.6107 44.4562C95.3257 45.2647 95.6572 46.3583 96.3727 46.9923C96.617 47.2133 97.2568 47.5681 97.5418 47.6437C97.6174 47.6612 97.6581 47.7193 97.6581 47.8124C97.6639 48.3184 97.7861 49.3422 97.8501 49.3829C97.885 49.4003 98.3038 49.697 98.7807 50.0285L99.6416 50.6393L99.2461 50.9185C98.6818 51.3198 97.9257 52.0643 97.6349 52.5064C97.3498 52.931 96.8322 53.914 96.5937 54.4724L96.4425 54.833L95.8317 54.6643C95.4944 54.5713 95.2152 54.5247 95.2152 54.5538C95.2152 54.7981 94.8604 56.9037 94.5986 58.2008C94.4299 59.0733 94.2845 59.8993 94.2845 60.0389C94.2845 61.3534 95.8957 62.54 98.4725 63.1217C98.8331 63.2031 99.1355 63.2787 99.153 63.2904C99.1646 63.3078 99.0076 63.6568 98.804 64.064C98.1351 65.396 97.472 66.8385 97.3324 67.2514C97.1288 67.8389 96.9601 68.7928 96.9194 69.5374L96.8845 70.1946H96.6751C95.7096 70.1772 94.1624 70.0783 94.0577 70.0201C93.9879 69.9852 93.7843 69.8224 93.6098 69.6712C93.1328 69.2349 92.8943 69.2116 92.7373 69.5897C92.5628 70.0027 92.5221 70.8345 92.5919 72.1839C92.6791 73.6846 92.778 74.2197 93.1677 75.2318C93.6389 76.4475 93.6738 76.9419 93.3713 78.1634C93.2259 78.7334 93.2259 78.7974 93.2899 79.2802C93.3713 79.8967 93.3539 79.9374 92.6908 80.8099C91.8474 81.9151 91.6554 82.4967 91.8881 83.2645C92.1964 84.2766 93.1445 85.1898 94.174 85.4632C94.8313 85.6435 95.7503 85.5504 96.3378 85.248C97.123 84.8525 98.1525 85.0909 98.4666 85.7424L98.5946 86.01L98.4841 86.2601C98.4201 86.3997 98.234 86.6672 98.0653 86.8592C97.6465 87.3361 97.5243 87.627 97.4953 88.2145C97.472 88.6623 97.4604 88.703 97.3149 88.7728C97.0707 88.895 96.7449 88.9357 96.5995 88.8601C96.5239 88.8252 96.361 88.6798 96.2272 88.5402C96.0295 88.3308 95.9539 88.2843 95.7794 88.2843C95.4943 88.2843 94.9011 88.5693 94.459 88.9241C94.2612 89.0811 93.9239 89.2905 93.7145 89.3952C93.1445 89.657 92.97 89.814 92.778 90.2212C92.5163 90.7796 92.3592 91.4194 92.301 92.2163C92.2196 93.2865 92.1789 93.3389 91.1145 93.7286C90.7945 93.8449 90.463 93.9903 90.3758 94.0485C90.1838 94.1881 90.0558 94.5371 90.0093 95.0606C89.9919 95.2816 89.9453 95.5666 89.9104 95.683C89.829 95.9563 89.9162 96.189 90.2362 96.5322C90.4456 96.759 90.4572 96.7881 90.3758 96.8754C90.242 97.0033 90.0617 96.9452 89.6021 96.602C89.3869 96.4449 89.1775 96.3112 89.1426 96.3112C89.1019 96.3112 88.974 96.4449 88.8576 96.602C88.5959 96.951 88.2004 97.2534 88.0317 97.2302C87.927 97.2127 87.9153 97.1662 87.8979 96.7358C87.8863 96.4042 87.8572 96.253 87.799 96.2355C87.6885 96.189 87.3802 96.3577 86.7986 96.7939C85.7632 97.5559 85.484 97.6548 83.9542 97.7944C82.5873 97.9165 82.535 97.9107 82.9712 97.7246C83.7158 97.3989 85.2164 96.602 85.9086 96.1657C87.8572 94.9268 89.6487 93.3389 90.7655 91.8615C91.4867 90.8959 92.365 89.3371 92.8304 88.1737L93.0281 87.6793L92.5977 86.8476C92.365 86.388 92.1556 86.0274 92.1324 86.0565C92.1091 86.0798 92.0044 86.3531 91.8997 86.6556C91.446 87.9643 90.6608 89.5348 89.9337 90.5818C88.7762 92.2512 86.944 93.8856 84.7744 95.1885C82.6164 96.4856 80.3712 97.3291 76.4276 98.3179C75.4504 98.5622 74.5546 98.789 74.4267 98.8181L74.1998 98.8763L74.8222 99.1613C75.1654 99.3183 75.6191 99.4986 75.8343 99.5743C76.0495 99.6441 76.2414 99.7197 76.2705 99.7371C76.2938 99.7604 76.1193 99.8825 75.8866 100.005C75.3631 100.278 75.2293 100.261 74.8396 99.8476L74.5604 99.551L73.6879 99.5859C72.7398 99.6266 72.8038 99.6382 72.513 99.2834C72.4199 99.1671 72.4025 99.1613 72.1931 99.2485C72.0768 99.3009 71.658 99.551 71.2682 99.8069C70.5761 100.261 70.5412 100.272 69.9362 100.389C68.7555 100.615 68.3832 100.848 68.2901 101.436C68.2378 101.744 68.2785 102.337 68.3949 103.012C68.4705 103.46 68.3949 103.704 68.0633 104.065C67.4467 104.716 66.423 105.28 65.7774 105.315C65.4807 105.333 65.376 105.315 65.3004 105.24C65.1376 105.083 65.1201 104.885 65.2422 104.646C65.3877 104.361 66.1845 103.669 66.9 103.198C67.2083 103 67.4875 102.779 67.5224 102.715C67.6096 102.558 67.6038 101.645 67.5224 101.564C67.47 101.511 67.47 101.447 67.5282 101.313C67.5689 101.215 67.5863 101.121 67.5689 101.104C67.534 101.063 66.7662 101.447 66.0915 101.843C64.6897 102.675 63.5903 103.5 62.5201 104.553C62.0897 104.978 61.7174 105.327 61.6941 105.327C61.6709 105.327 61.6534 104.96 61.6534 104.518V103.71L62.0199 103.372C63.2123 102.267 64.7944 101.197 66.5394 100.325C68.7089 99.2369 70.8902 98.4982 74.9734 97.4745C77.271 96.8986 78.5215 96.5438 79.8652 96.0843C83.9426 94.6883 86.8218 92.7747 88.8053 90.1456C89.608 89.0753 90.4339 87.3652 91.0621 85.4807L91.3413 84.6489L91.3239 83.3983L91.3122 82.1477L91.731 80.9553L92.1498 79.7629L92.1789 77.7097L92.2022 75.6564L92.0277 75.3249C91.7427 74.7839 91.5158 73.9754 91.3704 72.9633C91.318 72.5678 91.318 72.5678 91.7543 71.1486L92.1905 69.7351V45.7243V21.7133L92.7606 21.1433L93.3248 20.5791L93.3539 38.9654L93.3829 57.3574L94.0169 55.4031ZM27.4926 22.5393C27.4751 22.5509 27.225 22.5509 26.9225 22.5451L26.3816 22.5277L26.9284 22.0333L27.4809 21.5388L27.4984 22.0275C27.51 22.295 27.5042 22.5219 27.4926 22.5393ZM95.5409 22.3357C96.1342 22.8709 96.2621 23.0163 96.2272 23.1093C96.0876 23.5514 96.1516 23.7666 96.7449 24.7729C97.0416 25.2789 97.0765 25.372 97.1346 25.8489C97.3033 27.2217 97.6407 27.8557 98.4259 28.3036C98.804 28.513 98.8796 28.6235 98.8796 28.9434C98.8796 29.304 98.6877 29.5192 97.8908 30.0427C96.9776 30.6418 96.71 30.9268 96.5472 31.462C96.4134 31.9098 96.425 32.0727 96.6402 32.3519C96.8845 32.6776 96.9543 33.3349 96.7507 33.4163C96.7042 33.4338 96.5006 33.3989 96.297 33.3465C95.9771 33.2593 95.9073 33.2593 95.7619 33.3233C95.4827 33.457 95.4187 33.6723 95.4304 34.3935C95.4362 34.9461 95.5467 35.7081 95.7096 36.3537L95.7503 36.5049L95.2501 36.2665L94.7557 36.0222L94.7498 28.8503C94.7498 24.9125 94.7673 21.6843 94.7847 21.6843C94.8022 21.6843 95.1454 21.9809 95.5409 22.3357ZM25.7418 23.5805C25.7941 23.755 25.8174 23.9702 25.7999 24.0458C25.7767 24.1272 25.6254 24.3425 25.4568 24.5228C25.2881 24.7031 25.0612 24.9881 24.9507 25.1451C24.8402 25.308 24.6541 25.5639 24.5319 25.7152C24.4098 25.8722 24.2818 26.0932 24.2469 26.2154C24.1887 26.4131 24.2004 26.4771 24.3691 26.8552C24.5843 27.3554 24.5726 27.4718 24.2527 27.6928C23.9852 27.8731 23.7874 28.1639 23.7874 28.3675C23.7874 28.4431 23.8514 28.5769 23.9328 28.6758C24.0433 28.8038 24.0782 28.9143 24.0782 29.1121C24.0782 29.4727 23.9445 29.717 23.5722 30.0602L23.2581 30.351L23.6129 30.9617L23.9735 31.5725L23.8048 31.8051C23.7176 31.9331 23.578 32.0553 23.5024 32.0785C23.4268 32.096 23.0894 32.0494 22.7462 31.9622C22.4089 31.8808 21.9203 31.7993 21.6643 31.7877C21.1583 31.7528 20.4138 31.5318 20.0648 31.3107C19.8438 31.1653 19.6344 30.9501 19.4308 30.6535L19.297 30.4615L20.0531 29.4611C20.9431 28.2861 21.5829 27.5125 22.659 26.2968C23.45 25.4069 25.5324 23.2547 25.608 23.2547C25.6254 23.2547 25.6894 23.4002 25.7418 23.5805ZM100.037 26.9425C101.352 28.478 101.323 28.4257 100.939 28.5478C100.584 28.67 100.485 28.6002 100.223 28.0534C99.9091 27.4136 99.4264 26.8901 98.7982 26.5179C98.5364 26.3666 98.2747 26.163 98.2049 26.0642C98.1409 25.9653 98.0537 25.6977 98.0188 25.4767C97.978 25.2498 97.8966 24.9474 97.8326 24.7961C97.7686 24.6449 97.7163 24.5053 97.7163 24.4879C97.7221 24.4064 99.2112 25.9827 100.037 26.9425ZM101.736 32.4682C101.788 32.5846 101.776 32.6893 101.654 33.0383C101.573 33.2709 101.474 33.6257 101.439 33.8235C101.357 34.219 101.195 34.5389 101.067 34.5389C100.77 34.5389 100.601 34.2539 100.607 33.7362C100.613 33.2244 100.84 32.7765 101.23 32.5148C101.567 32.2937 101.654 32.2821 101.736 32.4682ZM105.272 34.1783C105.691 34.8821 105.743 35.0043 105.615 35.0043C105.575 35.0043 105.377 35.0799 105.179 35.1729C104.923 35.2951 104.638 35.5161 104.202 35.9349C103.655 36.4642 103.574 36.5224 103.405 36.5049C103.277 36.4933 103.19 36.441 103.132 36.3363C103.056 36.2025 103.062 36.156 103.201 35.8535C103.283 35.6732 103.603 35.202 103.905 34.8065C104.208 34.411 104.528 33.9456 104.615 33.7653C104.702 33.585 104.795 33.4512 104.813 33.4629C104.836 33.4803 105.039 33.8002 105.272 34.1783ZM16.3305 35.9349C16.3073 36.534 16.2316 36.8074 16.0979 36.8074C16.0106 36.8074 15.6442 36.4584 15.6442 36.377C15.6442 36.3479 15.7954 36.0454 15.9815 35.7139C16.2026 35.3009 16.3189 35.138 16.3363 35.2137C16.348 35.2718 16.3422 35.5976 16.3305 35.9349ZM101.52 35.7139C101.532 35.8535 101.573 36.2665 101.608 36.6329C101.643 37.0168 101.718 37.4472 101.788 37.645C101.858 37.8311 101.986 38.3314 102.085 38.7502C102.178 39.1689 102.335 39.7448 102.422 40.0356C102.515 40.3206 102.649 40.8674 102.719 41.2397C102.852 41.9376 102.94 42.1529 103.062 42.0714C103.102 42.0482 103.323 41.6294 103.562 41.1408C103.795 40.6522 104.068 40.1287 104.167 39.9833C104.336 39.739 104.376 39.7157 104.586 39.7157C104.877 39.7157 105.103 39.9193 105.103 40.1694C105.103 40.373 104.638 41.7573 104.434 42.1645C104.353 42.3215 104.103 42.7287 103.876 43.0777C103.387 43.8106 103.23 44.1131 103.108 44.5318C103.015 44.8343 103.015 44.8459 103.248 45.7533C103.376 46.2536 103.574 47.126 103.69 47.6844C103.888 48.6616 103.894 48.7372 103.864 49.6039C103.818 50.8603 103.678 51.3198 103.102 52.0876C102.759 52.5413 102.364 52.8147 102.079 52.7914C101.881 52.774 101.875 52.7681 101.858 52.5006C101.846 52.3203 101.91 51.9713 102.05 51.471C102.282 50.6276 102.294 50.459 102.096 50.4299C101.997 50.4124 101.864 50.5113 101.567 50.8196C101.171 51.2326 100.968 51.3314 100.892 51.1395C100.875 51.0871 100.857 50.6218 100.857 50.0983C100.857 49.5748 100.834 49.0804 100.799 48.999C100.718 48.778 100.404 48.7896 100.037 49.0281C99.4962 49.3712 99.4147 49.2607 99.0192 47.7019C98.7051 46.4688 98.6818 46.4339 97.7686 45.9802C97.251 45.7184 97.1463 45.6428 97.0416 45.4451C96.8729 45.1251 96.8205 44.8285 96.9194 44.6889C97.0009 44.59 97.0241 44.59 97.6349 44.8227C99.1355 45.3811 99.2984 45.3287 100.456 43.9502C100.77 43.5779 101.096 43.2173 101.183 43.1533C101.387 42.9904 101.608 42.9963 101.852 43.1766C101.962 43.2522 102.108 43.3627 102.178 43.4151C102.346 43.5372 102.457 43.4907 102.579 43.2522C102.73 42.9672 102.707 42.5658 102.521 42.2517C102.434 42.1063 102.183 41.4374 101.962 40.7627C101.503 39.3551 101.264 38.8258 100.886 38.3779C100.473 37.8835 100.433 37.7788 100.468 37.3018C100.497 36.9179 100.793 35.9524 100.939 35.7662C101.02 35.6615 101.328 35.4696 101.421 35.4696C101.456 35.4696 101.503 35.5801 101.52 35.7139ZM20.2858 35.9233C20.5359 36.5108 21.0012 38.4535 21.2979 40.1519C21.4026 40.7743 21.4259 41.1175 21.4259 42.1005C21.42 43.9095 21.2863 44.4039 20.693 44.782C20.408 44.9623 20.3963 44.9681 20.3207 44.8634C20.2102 44.7122 20.216 44.4271 20.3498 43.8164C20.6523 42.4262 20.6464 41.8562 20.3265 38.9595C20.0939 36.8947 20.0124 35.6441 20.1055 35.6441C20.1404 35.6441 20.2218 35.7721 20.2858 35.9233ZM98.9029 38.785C99.851 39.39 101.049 40.437 101.125 40.7336C101.177 40.9546 101.107 40.9954 100.654 40.9954C100.252 40.9954 100.188 40.9779 99.5834 40.6754C98.6818 40.2217 98.2107 39.7215 98.0013 38.9944C97.885 38.5873 98.4026 38.471 98.9029 38.785ZM95.1919 39.5063C95.9248 39.7506 96.0876 39.8786 96.0876 40.1985C96.0876 40.437 95.948 40.4951 95.3257 40.5184L94.7498 40.5417V39.9542C94.7498 39.6343 94.7557 39.3667 94.7673 39.3667C94.7789 39.3667 94.9709 39.4307 95.1919 39.5063ZM109.309 42.5658C110.292 45.2298 111.025 47.795 111.554 50.4473C111.682 51.0871 111.804 51.7386 111.827 51.8898L111.862 52.169L111.641 52.076C111.379 51.9713 111.414 52.0004 111.106 51.5699C110.786 51.1395 110.53 51.0348 109.861 51.0697C109.495 51.093 109.181 51.1628 108.541 51.3722C108.052 51.535 107.651 51.6339 107.575 51.6164C107.378 51.5641 107.29 51.2907 107.337 50.8545C107.36 50.6451 107.389 50.4357 107.413 50.3833C107.442 50.3077 107.424 50.2961 107.308 50.331C107.005 50.4182 106.336 50.773 106.034 50.9999C105.766 51.2093 105.685 51.2384 105.516 51.2093C105.406 51.1918 105.231 51.1162 105.121 51.0464L104.923 50.9127L104.906 49.4585C104.888 48.08 104.877 47.9462 104.679 46.812C104.562 46.1547 104.464 45.5323 104.464 45.4218V45.224L104.836 45.2647C105.039 45.2822 105.452 45.2764 105.755 45.2415C106.691 45.1368 107.133 44.9506 107.593 44.4853C108.07 44.0025 108.332 43.4034 108.715 41.9376C108.785 41.6701 108.861 41.4723 108.884 41.5014C108.913 41.5247 109.099 42.0074 109.309 42.5658ZM17.3252 43.0312C17.4473 43.2057 17.6044 43.4616 17.6742 43.5954C17.7498 43.7466 18.0057 44.02 18.3373 44.3108C18.8898 44.782 19.1341 45.0728 19.361 45.5148C19.5064 45.8057 19.5238 46.1838 19.3901 46.2943C19.3144 46.3583 19.2272 46.2943 18.7677 45.8115C18.471 45.5032 17.9883 45.0495 17.6916 44.8052C17.046 44.2701 16.7842 43.9444 16.6912 43.543C16.6214 43.2522 16.6388 42.6531 16.7261 42.4262C16.7668 42.3215 16.7842 42.3332 16.9413 42.5135C17.0343 42.624 17.2088 42.8567 17.3252 43.0312ZM23.4268 43.1766C23.4384 43.3104 23.3744 43.4674 23.1592 43.7873C22.7171 44.462 21.8039 45.2589 21.6527 45.1019C21.5073 44.9623 21.8156 44.0374 22.1646 43.5488C22.3158 43.3336 23.0487 42.9614 23.2639 42.9846C23.3802 42.9963 23.4151 43.037 23.4268 43.1766ZM12.8813 44.2759L13.3466 44.4737L13.3815 44.9332C13.428 45.5788 13.5269 45.9569 13.7887 46.5037C14.1842 47.3413 14.8706 47.8938 15.586 47.9578C15.9699 47.9927 16.7086 47.824 17.2437 47.5739C17.4357 47.4867 17.7789 47.254 17.9999 47.0621C18.4943 46.6433 18.6397 46.556 18.82 46.6026C18.9189 46.6316 18.9713 46.7014 19.0178 46.8759C19.0818 47.1028 19.0701 47.1493 18.7386 47.8764C18.3663 48.6965 18.0406 49.5341 17.8777 50.0983C17.7963 50.3892 17.7847 50.5927 17.8138 51.3024C17.8545 52.2505 17.8661 52.2214 17.4531 52.2214C17.203 52.2214 16.9762 52.0178 16.5923 51.4361C16.3189 51.029 16.1444 50.8545 16.0513 50.9127C16.0164 50.9301 15.9001 51.1337 15.7896 51.3547C15.6442 51.6397 15.5511 51.7561 15.4755 51.7561C15.365 51.7561 15.2719 51.6921 14.1958 50.8428C13.7596 50.4997 13.6084 50.4124 13.335 50.3601C12.8638 50.2612 11.7529 50.3484 10.6884 50.5695C10.5605 50.5927 10.5372 50.5811 10.5605 50.4939C10.5721 50.4357 10.7001 49.8482 10.8455 49.1909C11.2875 47.1784 12.1949 44.0781 12.3462 44.0781C12.3869 44.084 12.6254 44.1712 12.8813 44.2759ZM21.2106 48.0742C21.8214 48.7838 21.8796 48.8245 22.3449 48.9292C23.0545 49.0979 23.008 49.0513 23.0603 49.6912L23.101 50.2496L22.8626 50.616C22.6939 50.8719 22.6241 51.0406 22.6241 51.186C22.6241 51.4129 22.4147 52.361 22.3274 52.5238C22.2983 52.5762 22.0599 52.7274 21.7923 52.8554C21.2455 53.1171 21.1176 53.2218 20.7337 53.7046C20.5825 53.8966 20.4196 54.0769 20.3789 54.1001C20.3207 54.1292 20.2393 54.0303 20.088 53.7221C19.9717 53.4952 19.8147 53.2044 19.7391 53.0822C19.5995 52.867 19.5995 52.8379 19.5995 51.5408C19.5995 50.0518 19.6634 49.3131 19.8379 48.6674C20.0182 47.9927 20.2858 47.6844 20.6872 47.6844C20.8442 47.6844 20.9256 47.7426 21.2106 48.0742ZM11.0083 51.3431C11.1247 51.5525 11.2236 51.7909 11.2352 51.8724C11.2526 52.012 11.241 52.0178 10.8455 52.0352C10.2696 52.0527 10.2696 52.0527 10.3802 51.4303C10.5198 50.6509 10.5081 50.6742 10.671 50.8254C10.7466 50.8952 10.8978 51.1279 11.0083 51.3431ZM106.93 56.2465C107.081 56.4966 106.424 57.2527 104.83 58.6545C103.126 60.1436 102.399 60.6031 102.149 60.353C102.044 60.2483 102.067 59.9225 102.195 59.6724C102.486 59.0908 103.771 57.7471 104.667 57.0724C105.673 56.3163 106.732 55.9324 106.93 56.2465ZM17.6683 58.1718C17.8836 58.3695 18.25 58.6603 18.4885 58.8174C19.0178 59.1722 19.518 59.655 19.6285 59.9225C19.6809 60.0505 19.7158 60.3181 19.7158 60.6322V61.1324L20.3731 61.9816C22.0017 64.093 22.118 64.3024 22.1471 65.204C22.1588 65.553 22.1471 65.8322 22.1239 65.8322C22.0482 65.8264 21.2688 64.8143 20.7046 64C20.0939 63.1159 19.6983 62.6156 19.0818 61.9758C18.5292 61.4058 18.4594 61.3709 17.4182 61.208C17.0983 61.1557 16.7202 61.0626 16.5748 60.9928C16.1153 60.7718 14.888 59.4514 14.6146 58.8814C14.5158 58.672 14.5158 58.6662 14.6263 58.5847C14.7077 58.5266 14.9287 58.5033 15.4639 58.5033C16.1851 58.5091 16.2026 58.5091 16.569 58.7069C17.075 58.9744 17.1158 58.9512 17.0634 58.3753C17.0343 58.0089 17.0402 57.8984 17.1041 57.8577C17.2379 57.7762 17.2612 57.7879 17.6683 58.1718ZM99.1181 58.3055C99.1704 58.4393 99.4729 58.9454 99.7812 59.4281C100.462 60.4926 100.694 60.9695 100.642 61.1731C100.59 61.3883 100.456 61.5745 100.328 61.6152C100.136 61.6792 99.9673 61.5105 99.6997 60.9986C99.5602 60.7311 99.3275 60.3355 99.1937 60.1203C98.7982 59.5037 98.7109 59.306 98.6179 58.765C98.5248 58.2357 98.5481 58.0961 98.7516 57.9856C98.8796 57.91 98.9843 58.0031 99.1181 58.3055ZM22.9033 58.5964C23.1883 58.7941 23.6013 59.9342 23.6536 60.6554C23.6827 61.0917 23.4384 63.6452 23.3279 64C23.229 64.3373 23.1243 64.5002 22.9905 64.5293C22.7811 64.5875 22.6415 64.413 22.467 63.8895L22.31 63.4183L22.2867 61.0161L22.2635 58.6196L22.4031 58.5673C22.6066 58.4858 22.7579 58.4917 22.9033 58.5964ZM112.549 59.9284V60.7136H111.955C111.129 60.7078 110.687 60.5333 110.687 60.2134C110.687 60.0214 110.984 59.8178 111.804 59.4572C112.2 59.2885 112.525 59.1431 112.537 59.1431C112.543 59.1431 112.549 59.4979 112.549 59.9284ZM107.314 61.1091L107.517 61.1557L107.372 61.2545C107.29 61.3069 106.86 61.5221 106.412 61.7315C104.783 62.4993 104.19 62.8192 103.568 63.2787C102.73 63.8895 102.067 64.2152 101.613 64.2501C101.166 64.285 101.02 64.2443 100.805 64.0232C100.409 63.6277 100.694 63.1449 101.532 62.7727C101.741 62.6796 102.015 62.4877 102.236 62.2783C102.631 61.9002 102.951 61.7315 103.94 61.3825C104.935 61.0335 105.138 61.0044 106.179 61.0335C106.691 61.0452 107.203 61.08 107.314 61.1091ZM12.0611 61.4407C12.4741 61.5861 12.8464 61.7315 12.8871 61.7664C13.0034 61.8595 12.986 62.098 12.8638 62.1619C12.8057 62.1968 12.4683 62.2783 12.1193 62.3481C11.7703 62.412 11.3341 62.5342 11.1538 62.6098C10.9676 62.6854 10.8048 62.7494 10.7873 62.7494C10.7175 62.7494 10.2813 62.3074 10.1998 62.1619C9.98463 61.7373 10.1766 61.3243 10.6244 61.2371C11.0781 61.1498 11.3166 61.1789 12.0611 61.4407ZM112.432 64.0291C111.775 73.8882 108.204 83.4507 102.224 91.3961C100.671 93.4668 99.438 94.8803 97.5127 96.8114C95.2617 99.0682 93.2899 100.749 90.8062 102.517L89.9628 103.117H89.608C89.1485 103.117 88.8751 102.965 88.8751 102.715C88.8751 102.448 89.0612 102.326 89.6603 102.186C89.957 102.116 90.242 102.017 90.2885 101.965C90.3409 101.913 90.4339 101.721 90.4979 101.54C90.6317 101.185 90.876 100.924 91.2366 100.743C91.5623 100.581 91.8415 100.336 91.9113 100.156C91.9462 100.074 91.9869 99.5045 92.0102 98.8937L92.0509 97.7886L92.3185 97.236C92.6093 96.6369 93.1794 95.7411 93.5458 95.3049C93.6738 95.1478 94.1973 94.6767 94.7091 94.2579C95.9597 93.2225 95.9015 93.2807 96.4366 92.5653C96.9834 91.8266 97.0183 91.7626 97.1812 91.2216C97.2626 90.9482 97.4429 90.6051 97.7163 90.1921C97.9373 89.8489 98.1235 89.5057 98.1235 89.4301C98.1235 89.3138 98.1525 89.2905 98.3154 89.2905C98.5539 89.2905 99.6358 88.9532 99.9964 88.7728C100.322 88.6042 100.689 88.1505 101.008 87.499L101.218 87.0744L101.637 86.9697C103.056 86.6265 103.812 86.2077 104.033 85.6319C104.126 85.3934 104.126 85.3585 104.027 85.1084C103.975 84.963 103.934 84.835 103.946 84.8292C103.957 84.8176 104.103 84.7419 104.266 84.6547C105.01 84.2534 105.476 83.7182 106.057 82.584L106.43 81.8569L106.267 81.6417C106.022 81.3102 105.65 80.5598 105.54 80.1759C105.481 79.984 105.435 79.6466 105.435 79.4198C105.429 78.6694 105.743 78.2041 106.912 77.256C107.721 76.5987 107.942 76.337 107.826 76.1974C107.732 76.0869 107.488 76.1334 106.598 76.4126C105.656 76.715 105.243 76.7848 104.714 76.7383C103.824 76.6511 103.417 76.2148 103.417 75.3365C103.417 74.9468 103.568 74.7258 104.056 74.4C104.655 73.9987 104.859 73.8184 105.028 73.5276C105.162 73.2949 105.191 73.1727 105.22 72.6493C105.255 71.8989 105.266 71.8873 106.214 71.6546C106.581 71.5616 106.965 71.4452 107.058 71.3987C107.471 71.1835 107.93 70.4506 108.064 69.7817C108.18 69.2058 107.988 68.7347 107.593 68.6533C107.343 68.5951 106.895 68.723 106.656 68.9208C106.354 69.1709 106.331 69.3687 106.552 69.7933C106.761 70.1946 106.773 70.3575 106.616 70.5553C106.377 70.8636 106.156 70.9101 105.226 70.8694C104.225 70.8228 103.876 70.8926 103.62 71.1951C103.486 71.3521 103.475 71.4045 103.515 71.6139C103.539 71.7477 103.562 72.1025 103.562 72.405C103.562 72.9168 103.545 72.9924 103.37 73.3472C103.172 73.7486 103.015 73.8707 102.858 73.7369C102.701 73.609 102.492 73.1262 102.346 72.5678C102.213 72.0618 102.201 72.0385 102.143 72.1897C102.108 72.2828 102.079 72.3817 102.079 72.4108C102.079 72.5213 101.666 73.4868 101.526 73.6962C101.142 74.2721 100.782 74.1965 100.555 73.4868C100.52 73.388 100.473 72.6492 100.45 71.8524C100.409 70.6309 100.386 70.3284 100.276 69.962C100.072 69.2524 99.6532 68.5078 99.4613 68.5078C99.3391 68.5078 99.2286 68.8045 99.0832 69.5257C98.9087 70.3691 98.7516 70.7356 98.5364 70.7647C98.4608 70.7763 98.3736 70.753 98.3503 70.7065C98.2049 70.4797 98.3678 69.1477 98.7109 67.7982C98.9203 66.9664 99.0832 66.5593 99.2519 66.4429C99.4089 66.3324 99.9964 66.3266 100.206 66.4371C100.293 66.4837 100.607 66.7861 100.904 67.106C101.334 67.5714 101.52 67.7284 101.829 67.8796C102.189 68.0541 102.259 68.0658 102.742 68.06C103.097 68.0541 103.626 67.9843 104.347 67.8331C105.505 67.6004 105.982 67.5714 107 67.6586C107.529 67.7051 107.628 67.6993 108.017 67.583C108.989 67.2864 110.117 66.5593 110.681 65.8787C111.03 65.4483 111.374 64.8085 111.56 64.2326C111.734 63.6975 111.926 63.3136 112.223 62.9239L112.461 62.604L112.479 62.8076C112.49 62.9181 112.473 63.4707 112.432 64.0291ZM10.6593 63.8313C11.2003 64.1861 11.3283 64.3024 11.462 64.5642C11.6365 64.9016 11.6133 65.0179 11.369 65.0179H11.1654V65.5065C11.1654 66.3092 11.2352 66.4255 12.1368 67.1526C12.7242 67.6179 12.858 67.7866 12.701 67.8506C12.6486 67.868 12.4916 67.8564 12.352 67.8273C12.1019 67.7691 12.0961 67.7691 12.0961 67.9087C12.0961 68.1414 12.3811 68.9034 12.6952 69.5199C12.922 69.9678 13.0849 70.1888 13.4106 70.5204C13.8352 70.945 14.4401 71.3463 14.8473 71.4743C15.0916 71.5499 15.3359 71.8407 15.6209 72.3991C15.778 72.6958 15.7896 72.7714 15.7779 73.2658C15.7721 73.5625 15.7896 73.8649 15.8187 73.9463C15.8536 74.0452 15.9932 74.1499 16.2549 74.2721C16.6563 74.4582 16.7144 74.5164 16.9878 75.0108C17.2786 75.5226 17.5985 75.5866 18.3314 75.2784C18.7677 75.0922 19.0701 75.0922 19.2446 75.2784C19.3901 75.4354 19.6169 76.0927 19.7216 76.6685C19.7914 77.0466 19.7914 77.0524 19.6111 77.3316C19.5122 77.4828 19.0992 77.9133 18.6862 78.2797C17.773 79.1057 17.395 79.5943 17.1565 80.2457C16.8366 81.124 16.8191 81.2985 16.8947 82.7992C16.9355 83.5786 16.9296 83.7473 16.8657 83.7473C16.8191 83.7473 16.4294 83.6077 15.999 83.4332C15.5627 83.2587 15.109 83.0959 14.9811 83.0726C14.7659 83.0377 14.7542 83.0202 14.4692 82.4153C11.8052 76.7325 10.2464 70.8519 9.74033 64.5933C9.6938 63.9883 9.65308 63.3892 9.65308 63.2613V63.0286L9.94972 63.2962C10.1126 63.4416 10.4325 63.6859 10.6593 63.8313ZM18.9887 64.1745C19.5762 64.3315 20.0066 64.6922 19.9194 64.9597C19.8263 65.2447 19.0178 65.3611 17.7149 65.2796C17.0983 65.2447 17.0053 65.2215 16.8831 65.0993C16.7144 64.9306 16.7144 64.7329 16.8715 64.5293C17.1623 64.157 18.2326 63.9825 18.9887 64.1745ZM23.2639 67.8157C23.4617 68.089 23.8979 69.1767 24.2702 70.3401C24.5261 71.1253 24.6715 71.7942 24.7413 72.4631L24.7762 72.783L24.3632 72.7947C24.1422 72.8005 23.8107 72.847 23.6362 72.8994C23.2116 73.0215 22.8218 73.4229 22.3333 74.2372C22.1239 74.5862 21.8563 74.9992 21.7341 75.1504C21.5422 75.4005 21.263 75.6041 21.1234 75.6041C21.0943 75.6041 21.0536 75.4645 21.0361 75.2958C20.9489 74.5629 20.7162 74.2023 20.216 74.0685C19.803 73.9522 19.5936 73.9289 18.5001 73.8591C17.3077 73.7893 17.2728 73.7719 17.2728 73.2542C17.2728 72.9343 17.2495 72.8528 17.1216 72.6958C17.0343 72.5969 16.8715 72.4689 16.7493 72.405C16.4992 72.277 16.4585 72.1781 16.4585 71.6313C16.4585 71.2591 16.4643 71.2358 16.6214 71.1777C16.7086 71.1428 17.4648 71.0904 18.3082 71.0613C19.1458 71.0381 19.995 70.9857 20.1986 70.9508C21.106 70.7879 21.3561 70.5204 22.3333 68.6823C22.8044 67.7924 22.944 67.5772 23.0371 67.5772C23.0661 67.5772 23.165 67.6819 23.2639 67.8157ZM97.2161 73.5683C97.536 73.7835 98.0595 74.3535 98.4841 74.9468C99.4729 76.3137 99.7986 77.5119 99.9382 80.2864C100.049 82.3397 100.037 83.282 99.9091 83.4739C99.7812 83.6717 99.6707 83.6717 99.4962 83.4856C99.2926 83.2704 99.1297 82.6887 98.9959 81.729C98.6469 79.2278 98.3968 78.0005 98.0129 76.9419C97.8384 76.4707 97.7047 76.209 96.8496 74.6851C96.4657 74.0045 96.3843 73.6846 96.5472 73.4868C96.6693 73.3414 96.9427 73.3763 97.2161 73.5683ZM26.3874 76.1974C26.4979 76.3021 26.5212 76.3835 26.5212 76.6743C26.5212 77.2269 25.9454 78.873 25.323 80.1119C24.9158 80.9263 24.8111 81.188 24.7413 81.5952C24.689 81.8685 24.5552 82.4444 24.4389 82.8748C24.2353 83.631 24.2295 83.7066 24.212 84.7652C24.1887 85.9867 24.1713 86.1321 24.0491 86.1321C23.9386 86.1321 23.863 85.8413 23.7525 84.9746C23.6187 83.9276 23.5664 83.7938 23.3046 83.7066C23.1883 83.6659 23.0254 83.5903 22.944 83.5379C22.7404 83.4041 22.3682 82.8167 21.8621 81.8395C21.4491 81.0368 21.4375 80.9961 21.548 80.9204C21.6934 80.8099 22.0075 80.8157 22.2576 80.9379C22.5368 81.0717 22.7346 81.3625 23.0371 82.0896C23.293 82.7178 23.4733 82.9912 23.642 82.9912C23.7118 82.9912 23.7292 82.9155 23.7292 82.6073C23.7292 82.2524 23.7525 82.1826 24.0433 81.665C24.4621 80.9204 24.5377 80.6354 24.6017 79.5303C24.6773 78.2913 25.0089 76.9768 25.3986 76.3777C25.608 76.0636 26.1373 75.9647 26.3874 76.1974ZM97.1579 79.4256C97.2859 79.6873 97.5418 80.5366 97.5418 80.7285C97.5418 80.8855 97.5243 80.8972 97.3266 80.8972C96.9427 80.8972 96.8671 80.7692 96.8089 80.0421C96.7682 79.5012 96.8205 79.2685 96.9892 79.2685C97.0358 79.2685 97.1114 79.3383 97.1579 79.4256ZM103.108 79.6873C103.335 79.9374 103.434 80.2166 103.434 80.5773C103.44 80.9204 103.422 80.9495 102.783 82.0198C102.183 83.0202 102.079 83.1598 101.532 83.695C101.206 84.0091 100.828 84.3522 100.7 84.4453L100.462 84.6198L100.34 84.4686C100.171 84.2534 100.188 84.1196 100.427 83.7182C100.677 83.3052 100.753 83.1017 100.95 82.3281C101.119 81.6708 101.23 81.4265 101.526 81.0717C101.643 80.9321 101.893 80.5889 102.09 80.3039C102.602 79.5535 102.847 79.4081 103.108 79.6873ZM96.5297 82.933C96.9892 83.282 97.9664 84.2534 97.9257 84.3173C97.8675 84.4162 97.4022 84.4046 97.1463 84.2999C97.0299 84.2475 96.8147 84.1312 96.6693 84.0381C96.5239 83.9509 96.2505 83.8287 96.0586 83.7764C95.5758 83.6426 95.4478 83.5495 95.4478 83.346C95.4478 83.0726 95.506 82.9853 95.7619 82.869C96.0935 82.7178 96.268 82.7294 96.5297 82.933ZM26.719 83.8753C26.9458 84.1545 26.7073 84.835 25.7767 86.5335L25.544 86.9639L25.5673 86.039C25.5847 85.533 25.6196 84.9455 25.6545 84.7361C25.7243 84.2766 25.9512 83.788 26.1257 83.7066C26.3002 83.631 26.5794 83.7124 26.719 83.8753ZM22.9556 85.5912C23.4617 86.3299 23.6245 86.6731 23.6013 86.9581C23.5722 87.3827 23.2581 87.4059 22.8567 87.0046C22.5077 86.6556 22.3798 86.359 22.3798 85.9053C22.3798 85.4807 22.4845 85.0037 22.5601 85.056C22.5892 85.0677 22.7695 85.312 22.9556 85.5912ZM99.8684 87.0046C100.078 87.214 99.9731 87.6735 99.6474 87.9469C99.3042 88.2319 98.8098 88.2145 98.7749 87.912C98.7516 87.7375 98.9843 87.3012 99.2344 87.0453C99.4264 86.8534 99.6997 86.8359 99.8684 87.0046ZM24.3749 88.2784C24.4854 88.3715 24.6541 88.5867 24.7413 88.7554C24.8344 88.9299 25.2706 89.6163 25.7069 90.291C26.1431 90.9599 26.5503 91.5997 26.6026 91.6986C26.6957 91.8905 26.6957 91.8905 26.5619 91.8905C26.2653 91.8905 25.4277 91.7626 25.1717 91.6811C24.9973 91.623 24.8228 91.5066 24.6832 91.3554C24.4621 91.1053 24.1422 90.4829 24.0142 90.0292C23.9735 89.8838 23.8746 89.6802 23.799 89.5755C23.6711 89.4069 23.6594 89.3487 23.6885 89.0113C23.7351 88.5227 23.9212 88.1447 24.1364 88.1156C24.1538 88.1098 24.2585 88.1854 24.3749 88.2784ZM19.3261 88.9939C19.425 89.0695 19.774 89.3603 20.0939 89.6453C20.7977 90.2677 21.199 90.5469 21.4724 90.5876C21.7167 90.6283 22.2809 90.4946 22.7171 90.2852L23.0429 90.1339L23.3046 90.384C23.6594 90.733 23.7292 90.8901 23.7292 91.3496C23.7351 92.065 24.0084 92.4082 25.1252 93.1004C25.957 93.6181 26.0152 93.6355 27.2425 93.6588C27.8241 93.6704 28.3941 93.7111 28.5105 93.746C28.8304 93.8449 28.9642 94.0485 28.9642 94.4324C28.9642 94.8977 29.1212 95.1536 29.9006 95.904C30.3252 96.317 30.6219 96.6543 30.6801 96.7881C30.7382 96.9335 30.7673 97.1836 30.7615 97.5501C30.7557 98.3702 30.8197 98.5331 31.3315 99.0333C31.8201 99.5161 31.8899 99.6441 32.047 100.4C32.1807 101.075 32.2505 101.244 32.4425 101.447C32.7042 101.726 32.9369 101.79 33.8327 101.831C34.804 101.872 34.9145 101.924 34.5423 102.157C34.1758 102.384 34.0246 102.535 34.0246 102.68C34.0246 103.128 35.6184 104.67 36.5316 105.112C36.898 105.292 37.9973 105.629 38.6313 105.757C39.3584 105.909 39.7016 105.885 40.1727 105.647C40.6439 105.408 41.2372 104.896 41.4466 104.536C41.6443 104.204 41.6094 103.995 41.2953 103.617C41.1674 103.46 41.0452 103.268 41.0278 103.181C40.9696 102.936 40.766 102.611 40.6264 102.535C40.417 102.424 40.2774 102.512 39.8994 102.971C39.5038 103.46 39.3526 103.582 39.1607 103.582C38.992 103.582 38.992 103.495 39.1723 102.925C39.3468 102.372 39.3526 102.244 39.1956 102.046C38.992 101.785 38.8698 101.755 37.9508 101.721C36.9969 101.686 36.7526 101.61 36.6304 101.337C36.5199 101.098 36.7177 100.784 37.0376 100.674C37.2644 100.598 37.3517 100.598 38.0555 100.72C38.9047 100.86 39.213 100.877 39.3817 100.79C39.6667 100.633 39.3817 100.319 38.2649 99.5219C37.5204 98.9926 36.7293 98.2248 36.6653 97.9747C36.6188 97.7886 36.77 97.5908 36.962 97.5908C37.2063 97.5908 37.8345 98.0736 38.736 98.9519C39.5678 99.772 39.6841 99.8651 40.2484 100.156C41.2837 100.685 41.6502 101.162 41.5571 101.849C41.528 102.029 41.5396 102.198 41.5862 102.308C41.7258 102.64 42.2144 102.756 42.5459 102.535C42.7379 102.407 43.0578 102.384 43.3021 102.477C43.3835 102.506 43.8546 102.558 44.3491 102.593C45.5705 102.669 45.8323 102.779 45.8323 103.239C45.8323 103.372 45.7741 103.477 45.5996 103.652C45.3146 103.937 45.2332 103.937 44.4189 103.588C43.7732 103.314 43.6103 103.297 43.4184 103.489C43.2962 103.617 43.2846 103.652 43.337 103.809C43.4707 104.181 44.6864 105.164 45.9195 105.885C46.9316 106.473 47.1003 106.7 47.3446 107.787C47.5482 108.689 47.7459 108.834 48.4032 108.584L48.7057 108.468L48.8569 108.607C49.1245 108.858 49.2641 108.898 49.8166 108.892C50.852 108.869 51.8815 108.549 52.3992 108.084C52.7366 107.776 52.9111 107.409 53.0274 106.723C53.0739 106.449 53.1205 106.223 53.1321 106.211C53.1379 106.199 53.4811 106.566 53.8883 107.014C54.3129 107.485 54.7259 107.88 54.848 107.944C55.1388 108.096 55.6856 108.177 56.3778 108.177C57.1746 108.177 57.6923 108.003 58.3787 107.502C58.495 107.421 58.6288 107.415 59.4082 107.45L60.304 107.491L60.5192 108.014C60.8391 108.788 61.0485 108.986 61.3684 108.817C61.508 108.741 61.6709 108.421 61.7988 107.979C61.8512 107.793 61.9501 107.526 62.0082 107.386C62.1129 107.159 62.1478 107.13 62.3165 107.13C62.4212 107.13 62.6713 107.2 62.8807 107.281C63.1948 107.415 63.3635 107.444 64.0033 107.467C64.4919 107.485 64.8584 107.467 65.0794 107.421C65.376 107.357 65.4516 107.305 65.9228 106.828C66.6092 106.135 66.6499 106.118 67.47 106.118C68.4007 106.112 68.5112 106.141 68.9416 106.543C69.4244 106.985 69.6105 107.113 70.006 107.252C70.419 107.392 71.0763 107.462 71.2275 107.374C71.3148 107.322 71.3788 107.357 71.5823 107.543C71.9546 107.886 72.2454 107.84 72.9027 107.334C73.0598 107.217 73.211 107.136 73.2459 107.153C73.2866 107.171 73.5018 107.334 73.7228 107.508C74.2929 107.962 74.5953 108.061 75.3748 108.061C76.2531 108.061 76.4857 107.962 76.4857 107.572C76.4857 107.491 76.5264 107.322 76.573 107.2L76.666 106.979L77.1139 107.049C77.6316 107.136 78.2249 107.147 78.3354 107.078C78.3877 107.049 78.4052 106.926 78.3936 106.688L78.3761 106.345L78.7833 106.362C79.2195 106.38 79.679 106.479 80.2258 106.676C80.5457 106.793 80.569 106.793 80.8191 106.694C81.0925 106.595 81.267 106.368 81.2088 106.199C81.1972 106.153 81.1041 106.025 81.0052 105.926C80.8365 105.746 80.6039 105.647 79.8884 105.449C79.3824 105.309 78.6379 104.513 78.5448 104.012C78.4925 103.733 78.5739 103.687 79.0799 103.716C79.6499 103.745 79.9641 103.908 80.1444 104.251C80.3189 104.582 81.075 105.304 81.4647 105.507C81.7963 105.688 82.1976 105.763 83.2911 105.856C84.1404 105.926 84.7569 105.891 84.9605 105.757C85.0943 105.676 85.2106 105.356 85.2106 105.077C85.2106 104.99 85.2513 104.838 85.2979 104.745C85.4084 104.524 85.4898 104.524 86.4263 104.739L87.1534 104.902L86.31 105.379C85.2513 105.984 83.0817 107.078 81.965 107.572C73.3622 111.394 63.9801 112.778 54.5863 111.603C46.7746 110.632 39.2363 107.811 32.5995 103.39C29.5284 101.343 27.0563 99.2951 24.3691 96.5613C22.2402 94.4033 20.6988 92.5594 18.9305 90.0583L18.1918 89.0113L18.5292 88.9473C19.0352 88.8485 19.1283 88.8543 19.3261 88.9939ZM95.6979 89.8373C96.1167 89.9652 96.3203 90.163 96.3203 90.4306C96.3203 90.6691 96.2214 90.8436 95.7852 91.3787C95.6398 91.5532 95.3082 92.036 95.0523 92.4489C94.4183 93.4494 94.2089 93.717 93.761 94.0892C93.5516 94.2637 93.2492 94.5196 93.0863 94.6592C92.9176 94.7988 92.557 95.2118 92.2836 95.5783C91.5216 96.5962 91.1552 96.8521 90.9342 96.5147C90.7073 96.1716 90.7829 95.6597 91.1552 95.0548C91.3529 94.7232 91.5798 94.572 92.0742 94.4266C92.7373 94.2346 92.8536 94.095 93.1735 93.0829C93.3946 92.3908 93.633 92.0127 94.1042 91.5939C94.4299 91.3089 94.4823 91.2333 94.6859 90.6981C94.808 90.3782 94.9418 90.0176 94.9825 89.8954C95.0465 89.6861 95.0639 89.6744 95.2326 89.7093C95.3373 89.7326 95.5467 89.7849 95.6979 89.8373ZM31.4537 94.7349C31.8259 94.9268 32.3378 95.5259 32.3378 95.7702C32.3378 95.9912 32.1749 96.0959 31.8608 96.0669C31.4769 96.0261 30.8487 95.7062 30.7382 95.4968C30.651 95.3281 30.6161 94.7349 30.6917 94.6651C30.7673 94.5836 31.2443 94.6302 31.4537 94.7349ZM80.1793 98.853C80.156 98.9112 80.1211 99.2369 80.0978 99.5801C80.0746 99.9349 80.028 100.237 79.9815 100.284C79.8477 100.453 79.6092 100.453 79.109 100.296C78.4052 100.074 78.3761 100.086 77.6898 100.994C77.0383 101.854 76.858 101.942 76.509 101.569C76.2822 101.337 76.2414 101.04 76.4159 100.895C76.4683 100.842 76.7126 100.714 76.9569 100.604C77.5094 100.348 77.649 100.179 77.649 99.772V99.4696L78.4517 99.2543C78.888 99.138 79.4464 98.981 79.6849 98.8995C80.22 98.7309 80.2316 98.7309 80.1793 98.853ZM86.8276 100.045C86.8102 100.086 86.752 100.255 86.6997 100.418C86.5077 101.005 86.054 101.366 84.9314 101.837C83.9717 102.232 83.6983 102.477 83.4017 103.181C83.169 103.727 83.1108 103.785 82.82 103.774C82.5234 103.762 82.3023 103.559 82.3023 103.297C82.3023 102.779 83.3028 101.639 84.3905 100.924C85.2106 100.383 85.5247 100.237 86.1529 100.092C86.7404 99.964 86.8625 99.9523 86.8276 100.045ZM82.3547 101.18C82.3081 101.238 82.1104 101.465 81.9184 101.692C81.4473 102.238 81.3484 102.395 81.2321 102.756C81.1216 103.093 81.0169 103.175 80.7086 103.175C80.4701 103.175 80.4119 103.058 80.4701 102.692C80.5283 102.331 80.6911 102.11 81.1274 101.779C81.5171 101.488 82.3663 101.011 82.4128 101.057C82.4245 101.069 82.4012 101.127 82.3547 101.18ZM78.2016 101.79C78.2831 101.825 78.347 101.895 78.347 101.947C78.347 102.139 78.2249 102.465 78.1144 102.564C78.0097 102.657 77.998 102.657 77.8526 102.5C77.7654 102.407 77.6549 102.256 77.6083 102.163C77.5269 102.011 77.5327 101.988 77.6549 101.86C77.8003 101.709 77.969 101.686 78.2016 101.79ZM72.9492 102.116C72.9783 102.145 72.9725 102.285 72.9376 102.448C72.8096 103.012 72.9027 103.093 74.1009 103.495C75.1886 103.861 76.0495 104.262 76.0495 104.396C76.0495 104.524 75.8052 104.559 74.7408 104.565C73.6065 104.571 72.8387 104.507 71.3264 104.28C69.9944 104.076 69.7966 104.012 69.7966 103.762C69.7966 103.506 70.0002 103.326 70.547 103.093C70.8145 102.983 71.2915 102.727 71.6114 102.529C71.9313 102.331 72.2629 102.134 72.3501 102.087C72.5014 102.006 72.8562 102.023 72.9492 102.116ZM51.5733 104.978C51.7885 105.059 52.0153 105.379 51.9862 105.571C51.9688 105.693 51.9397 105.705 51.6198 105.699C51.1661 105.693 50.2471 105.56 50.154 105.484C49.9679 105.339 50.1191 104.978 50.3983 104.902C50.5786 104.85 51.3639 104.902 51.5733 104.978ZM54.6735 105.56C54.8771 105.641 55.1737 105.688 55.6507 105.711C56.4592 105.757 56.6919 105.839 57.1048 106.234C57.5294 106.647 57.5702 106.95 57.1979 106.956C57.1339 106.956 56.9245 106.862 56.7326 106.746C56.0346 106.316 56.1044 106.327 55.6332 106.577C55.2726 106.769 55.1795 106.793 54.9469 106.769C54.627 106.734 54.1616 106.455 54.0162 106.211C53.8825 105.978 53.8883 105.728 54.0337 105.571C54.1849 105.414 54.2954 105.408 54.6735 105.56Z" fill="white"/>
<path d="M58.9021 58.5207L56.593 60.8008L58.9196 63.1275L61.2462 65.4541L63.5554 63.1391L65.8704 60.8299L63.5729 58.5324C62.3107 57.2702 61.2637 56.2348 61.2462 56.2406C61.2288 56.2406 60.176 57.2644 58.9021 58.5207ZM63.9335 59.6782L64.6315 60.4228H62.9389H61.2462V58.6952V56.9619L62.2409 57.9507C62.7876 58.4975 63.5496 59.2711 63.9335 59.6782ZM64.7362 61.1964C64.7362 61.2022 63.9509 61.9932 62.9912 62.953L61.2462 64.698V62.9355V61.1789H62.9912C63.9509 61.1789 64.7362 61.1847 64.7362 61.1964Z" fill="white"/>
<path d="M57.9541 20.5267L54.7607 23.3071L51.2475 23.3129H47.7401L47.775 23.4409C47.7925 23.5165 47.8099 23.5921 47.8099 23.6154C47.8099 23.6444 49.4095 23.6619 51.358 23.6619H54.912L57.1339 21.725C58.3554 20.6605 59.3908 19.7706 59.4315 19.7415C59.4838 19.7066 59.5013 21.1666 59.5013 26.9541V34.2074L59.1116 34.1667C58.8905 34.1434 58.6811 34.091 58.6404 34.0503C58.5997 34.0096 58.4485 33.5559 58.3089 33.0382C58.0122 31.9564 57.925 31.7644 57.7098 31.683C57.5004 31.6015 56.2847 31.6364 56.1742 31.7295C56.1276 31.7702 55.9357 32.3635 55.7496 33.0499L55.4122 34.3004L55.1156 34.3702C54.9527 34.4051 54.5804 34.4459 54.2896 34.4633L53.7603 34.4982L52.9343 33.3523C52.4806 32.7241 52.0735 32.2123 52.0386 32.2123C51.8815 32.2123 50.2354 32.8812 50.2064 32.9568C50.1889 33.0033 50.2471 33.5327 50.3343 34.1259C50.5379 35.5045 50.5321 35.5626 50.1947 35.7895C50.0493 35.8884 49.741 36.028 49.5084 36.1094L49.0837 36.2548L48.1705 35.3125C47.6703 34.7948 47.1934 34.3295 47.1119 34.283C46.9781 34.2016 46.9374 34.2074 46.635 34.3295C46.2627 34.4808 45.7857 34.7716 45.5007 35.0275C45.367 35.138 45.3088 35.2427 45.3088 35.3532C45.3088 35.4405 45.4542 36.0163 45.6287 36.6329C45.8032 37.2495 45.9486 37.8253 45.9486 37.9125C45.9486 38.1103 45.4309 38.6163 45.0005 38.8432L44.7271 38.9886L44.3607 38.7967C44.1571 38.6978 43.5813 38.3081 43.081 37.9474C42.575 37.581 42.1155 37.2611 42.0515 37.2436C41.9061 37.1971 41.6967 37.3134 41.2372 37.6915C40.7718 38.0812 40.5101 38.436 40.5566 38.6222C40.5799 38.6978 40.894 39.2678 41.2663 39.8902C41.6385 40.5126 41.9526 41.0826 41.9701 41.1466C41.9933 41.2455 41.9003 41.3734 41.5164 41.7457C41.0918 42.1645 41.0103 42.2168 40.8591 42.1936C40.766 42.1819 40.1785 41.9842 39.5562 41.7573C38.9396 41.5247 38.3056 41.3094 38.1544 41.2745C37.8054 41.1931 37.6949 41.2571 37.3168 41.7399C36.9678 42.1936 36.7933 42.5716 36.834 42.7519C36.8573 42.8334 37.2586 43.3103 37.7298 43.8106C38.2067 44.3108 38.6953 44.8459 38.8233 44.9855L39.0559 45.2531L38.6837 45.9743L38.3114 46.6956H36.6479H34.9785L34.7982 46.9981C34.5655 47.3994 34.3154 48.0392 34.3154 48.2486C34.3154 48.458 34.6004 48.743 35.8859 49.79C36.4152 50.2263 36.8805 50.616 36.9154 50.6625C36.9678 50.7265 36.9329 50.9184 36.7409 51.5815L36.4966 52.4249L35.1588 52.4598C34.4201 52.4773 33.7512 52.5238 33.6698 52.5587C33.5767 52.5936 33.4837 52.7041 33.4255 52.8496C33.3324 53.088 33.1521 53.8849 33.1521 54.0769C33.1521 54.2804 34.3038 55.2111 35.3508 55.8567C35.5544 55.9789 35.7405 56.1243 35.7754 56.1825C35.8045 56.2406 35.8277 56.4849 35.8277 56.7234V57.1655H34.0828H32.3378V40.4137V23.6619H37.5145H42.6913V23.4874V23.3129H37.34H31.9888V40.8034C31.983 50.4299 31.983 62.8425 31.9888 68.3915L31.9946 78.4833L32.1516 78.6112C32.2389 78.681 32.3203 78.7392 32.3378 78.745C32.3552 78.745 32.361 75.4063 32.3494 71.3289L32.3378 63.9127H44.2211H56.1102L56.2672 64.2559C56.3545 64.4595 56.4185 64.698 56.4185 64.855C56.4185 65.3669 55.8775 66.1288 55.4587 66.2045C55.3424 66.2277 55.0341 66.2277 54.7724 66.2103C54.1733 66.1637 53.7719 66.2626 53.6032 66.4895C53.5044 66.6233 53.4811 66.7745 53.4462 67.4667C53.3822 68.5951 53.452 68.5253 52.2712 68.7463C51.6082 68.8685 51.3929 69.2407 51.3871 70.2528V70.8054L51.1603 70.8926C50.9741 70.9624 50.9218 71.0206 50.8694 71.1951L50.8055 71.4103L50.1656 71.1486C49.2524 70.7763 47.6529 69.9678 46.9374 69.5199C46.4139 69.1884 46.2976 69.1418 46.1289 69.1709C45.8497 69.2116 45.6752 69.4036 45.5996 69.7526C45.4949 70.2005 45.0529 71.2474 44.6573 71.9978C42.6273 75.8193 38.2184 81.4032 35.4555 83.6601C34.8971 84.1196 34.8505 84.2301 35.1356 84.4686C35.2344 84.55 35.3333 84.6198 35.3566 84.6198C35.4206 84.6198 37.3633 83.3518 38.2416 82.7294C41.1092 80.7052 43.6103 78.6229 46.0708 76.2032C47.0887 75.2027 47.1643 75.1387 47.4377 75.0864C47.8216 75.0108 48.2636 75.098 48.4497 75.2842C48.5719 75.4121 48.5952 75.4819 48.5893 75.7611C48.5777 76.0403 48.5254 76.1857 48.2462 76.7325C47.4726 78.2215 46.0475 80.4377 43.9186 83.4797C42.1271 86.039 41.4117 87.2082 41.4117 87.6037C41.4117 88.0865 42.0806 87.7084 43.2788 86.5567C44.1106 85.754 45.2913 84.4686 47.6063 81.8569C49.3746 79.8618 50.4565 78.6927 50.7764 78.4193C51.1196 78.1285 51.7419 77.9714 52.1433 78.0703C52.4283 78.1401 52.5388 78.6694 52.3934 79.2569C52.3469 79.4605 52.1782 79.7222 51.7361 80.2864C48.9383 83.8578 47.0712 86.9406 45.873 89.9711C45.4658 91.0064 45.0354 92.2977 44.8667 93.0189C44.7737 93.4261 44.7737 93.4726 44.8551 93.5541C44.9191 93.6181 44.9772 93.6297 45.0354 93.5948C45.0878 93.5715 45.396 93.1527 45.7218 92.6758C48.5254 88.546 52.4865 84.0847 56.7558 80.2399L57.5818 79.4896V79.2278C57.5818 78.9835 57.5527 78.937 57.1281 78.4775C56.2091 77.4945 55.354 76.2206 54.5164 74.5804C54.0046 73.5741 54.0046 73.5741 54.1035 73.4054C54.1616 73.3123 54.1907 73.1844 54.1674 73.1146C54.1384 72.9982 54.1616 72.9866 54.3652 72.9866C54.7142 72.9866 55.2552 72.8703 55.4995 72.7481C55.8426 72.5736 55.9124 72.3817 55.9531 71.4336C55.9997 70.2993 56.0462 70.2586 57.0467 70.4506C57.9948 70.6309 58.3147 70.2935 58.1286 69.2931C57.9599 68.4322 57.9599 68.1937 58.1111 67.9436C58.4717 67.3503 58.8847 66.9955 59.3151 66.9141L59.5013 66.8792V83.3111V99.7429L59.1116 99.487C56.401 97.742 53.0041 96.4391 47.49 95.0315C44.5759 94.287 43.0519 93.8158 41.5629 93.1876C38.6371 91.9545 36.3861 90.2444 35.1705 88.325C34.583 87.4001 33.9606 86.0507 33.4662 84.6256C33.4313 84.5209 33.0998 84.9513 33.0939 85.1026C33.0939 85.2829 33.7279 86.8301 34.0944 87.5281C34.5655 88.4355 35.0832 89.2091 35.6067 89.7733C37.4331 91.7742 39.719 93.1818 42.9938 94.3044C44.1862 94.7174 45.0761 94.9675 47.2573 95.5259C51.6023 96.6369 54.0395 97.4628 56.4476 98.632C58.1169 99.4463 59.4955 100.296 60.6646 101.232L61.1357 101.604L61.8163 101.069C63.0087 100.138 64.5326 99.1787 65.9635 98.4575C68.04 97.4163 69.6919 96.8637 73.6356 95.8749C76.7766 95.0897 78.3063 94.665 79.458 94.2579C82.4128 93.2051 84.1345 92.1639 85.8504 90.3957C88.3632 87.8073 89.829 84.358 90.2129 80.1119C90.2478 79.6931 90.271 69.6537 90.271 51.3896V23.3129H84.6057H78.9345L78.8124 23.4874L78.6902 23.6619H84.3032H89.9221V40.1519V56.642H78.19H66.4579L66.6091 56.4791C66.7429 56.3337 73.1354 49.1211 73.3331 48.8943C73.4087 48.807 73.4087 48.714 73.3506 48.2545C73.3157 47.9578 73.2691 47.6553 73.2517 47.5797C73.2284 47.4692 73.275 47.4285 73.5425 47.2947L73.8566 47.1435L74.3685 47.2715C75.0141 47.4343 75.5667 47.6612 76.2123 48.0334C76.6428 48.2777 76.7649 48.3242 77.0267 48.3242C77.1895 48.3242 77.5036 48.3417 77.7247 48.365L78.1144 48.3999L78.1493 48.6209C78.1784 48.7721 78.2772 48.9466 78.4634 49.1618C79.679 50.552 80.9529 52.2795 81.6567 53.4894C81.7963 53.7279 81.9242 53.8965 81.9533 53.8675C82.4012 53.3672 84.9198 50.0401 86.2343 48.2079C87.3802 46.6142 89.1077 44.1479 89.1426 44.0607C89.1601 44.0083 89.0263 43.9676 88.6599 43.9094C87.7699 43.7757 85.3328 43.2696 84.4254 43.037C83.4191 42.7752 82.5931 42.4844 81.4996 42.0191C80.5806 41.6293 79.6848 41.1873 79.6848 41.1233C79.6907 41.1 79.7546 40.7801 79.8303 40.4137C79.935 39.9018 79.9524 39.7273 79.9001 39.675C79.8361 39.6168 76.3868 37.1855 76.2065 37.075C76.16 37.0459 76.0262 37.1215 75.8285 37.2844C75.6598 37.4298 75.4969 37.5577 75.462 37.581C75.4271 37.6043 75.1479 37.4472 74.8513 37.2436C74.5488 37.0342 74.287 36.8656 74.2638 36.8656C74.2347 36.8656 71.4602 40.0182 70.1515 41.5363C70.0642 41.641 70.0991 41.6817 70.7157 42.2634L71.3671 42.8857L69.5989 44.9506L67.8306 47.0155L67.7899 48.1439L67.7434 49.2724L65.4691 51.7444L63.1948 54.2106L63.1774 37.1506C63.1715 27.7684 63.1774 20.0847 63.189 20.073C63.2006 20.0556 64.1487 20.8583 65.2888 21.8529L67.3653 23.6619H70.7564H74.1475L74.1824 23.5281C74.1998 23.4583 74.2173 23.3827 74.2173 23.3536C74.2173 23.3303 72.7108 23.3129 70.8727 23.3129H67.5282L64.3349 20.5267L61.1415 17.7406L57.9541 20.5267ZM61.857 18.8457L62.4096 19.3285V37.1273V54.9261L61.8279 54.3444L61.2462 53.7628V36.0687C61.2462 26.3317 61.2579 18.3688 61.2753 18.3688C61.2928 18.3688 61.5545 18.584 61.857 18.8457ZM59.5013 36.3711V36.9819H59.1116C58.1227 36.9819 56.4941 37.1796 55.2552 37.453C46.2802 39.3958 39.5445 47.1318 39.1606 55.9265L39.1257 56.7583H38.4917H37.8577L37.8868 56.3919C37.9043 56.1941 37.9333 55.723 37.9508 55.3507C38.0322 53.7279 38.4976 51.5292 39.1257 49.8482C41.5862 43.2405 47.4377 38.0812 54.4001 36.3711C55.9299 35.9931 57.4655 35.7837 58.7916 35.7662L59.5013 35.7604V36.3711ZM77.8061 39.1108C78.539 39.6459 79.1381 40.088 79.1497 40.0938C79.1555 40.0996 79.0508 40.2275 78.9171 40.373L78.6669 40.6405L77.3291 39.7099C76.5962 39.198 75.9913 38.756 75.9913 38.7269C75.9913 38.6745 76.4159 38.1452 76.4566 38.1452C76.4741 38.1452 77.079 38.5815 77.8061 39.1108ZM74.8396 39.0642L75.0839 39.262L74.1707 40.3555C73.6705 40.9604 73.2401 41.4548 73.211 41.4548C73.1877 41.4607 73.0248 41.3676 72.8503 41.2513L72.5363 41.0419L72.6642 40.879C73.2052 40.2043 74.4848 38.8025 74.5372 38.8316C74.5662 38.849 74.7058 38.9537 74.8396 39.0642ZM59.3733 39.2562L59.5013 39.3085V44.9215V50.5346H59.3035C59.1116 50.5346 59.0999 50.5229 58.9545 50.139C58.7742 49.6621 55.9822 42.0772 55.8252 41.6468C55.6798 41.2396 55.6274 40.5009 55.7147 40.2217C55.8892 39.6982 56.6919 39.3027 57.8145 39.1922C58.2914 39.1398 59.1639 39.1806 59.3733 39.2562ZM51.8873 41.3443C52.5621 41.4723 53.0856 41.8678 53.4055 42.4902C53.6091 42.8799 56.9129 51.4012 56.8722 51.4303C56.8664 51.4361 56.6337 51.5815 56.3661 51.756C55.8019 52.1225 55.1563 52.7274 54.784 53.2451L54.5281 53.5999L50.1075 51.8433C47.6761 50.8835 45.6229 50.0576 45.5415 50.0111C45.0354 49.7435 44.5759 49.1502 44.3781 48.5162C44.2327 48.0451 44.2269 47.4169 44.3665 47.0155C44.7446 45.922 46.9374 43.6244 48.8395 42.3273C50.0958 41.4723 51.009 41.1815 51.8873 41.3443ZM77.4687 41.5537C77.5967 41.6468 77.6025 41.6817 77.5792 42.0656C77.5385 42.6822 77.3349 42.9788 76.8987 43.066C76.7707 43.0951 76.7009 43.0719 76.6021 42.973C76.4857 42.8566 76.4741 42.7985 76.4974 42.4262C76.5264 41.9609 76.637 41.7399 76.922 41.5712C77.1372 41.4374 77.2942 41.4316 77.4687 41.5537ZM74.7524 45.2764C74.8513 45.4857 74.9327 45.7591 74.9385 45.8755C74.9443 46.0732 74.9385 46.0849 74.7698 46.0616C74.5372 46.0383 73.9206 45.7359 73.7985 45.5846C73.6938 45.4625 73.653 45.0146 73.7345 44.9332C73.7519 44.9099 73.9497 44.8925 74.1707 44.8925H74.5721L74.7524 45.2764ZM70.6691 46.271C70.6691 46.3117 70.3492 46.7189 69.9595 47.1667L69.2441 47.9869L69.2033 47.7659C69.1161 47.2831 69.1277 47.2598 69.7443 46.5502L70.3376 45.8755L70.5005 46.0325C70.5935 46.1198 70.6691 46.2303 70.6691 46.271ZM67.8074 51.0639C67.7957 51.0871 67.2548 51.7386 66.6033 52.5122L65.4167 53.914L65.1957 53.6639C65.0736 53.5243 64.9747 53.3963 64.9689 53.3789C64.9689 53.3556 65.5098 52.7216 66.1671 51.9596L67.3653 50.5811L67.5922 50.8021C67.7201 50.9243 67.8132 51.0406 67.8074 51.0639ZM44.0757 52.2214C44.4188 52.2679 45.2797 52.582 48.5544 53.8733C50.7822 54.7458 52.7191 55.4961 52.8587 55.5368C52.9925 55.5775 53.103 55.6299 53.103 55.6473C53.103 55.6648 53.0507 55.8509 52.9867 56.0487C52.9227 56.2523 52.8704 56.5373 52.8704 56.6769V56.9328H47.0887C41.7839 56.9328 41.3011 56.927 41.2313 56.8339C41.1092 56.6885 41.1383 55.6881 41.2895 54.9726C41.5222 53.85 41.8537 53.1171 42.3191 52.6925C42.6215 52.4075 42.8891 52.2853 43.3021 52.2214C43.4649 52.1981 43.6045 52.1748 43.622 52.1748C43.6394 52.169 43.843 52.1923 44.0757 52.2214ZM59.8212 54.4549C59.9433 54.5073 60.1004 54.5945 60.1585 54.6469C60.2574 54.74 60.2051 54.8039 59.0534 55.9556L57.8435 57.1655H57.3666H56.8954L56.8547 56.7816C56.7966 56.2872 56.8373 56.037 57.0292 55.6066C57.2735 55.0599 57.8028 54.6003 58.4252 54.391C58.7277 54.2921 59.5129 54.327 59.8212 54.4549ZM63.3402 56.7874L65.4051 58.8523H77.6607H89.9221V61.1208V63.3892H77.7828H65.6378L65.853 63.1798L66.0624 62.9646L65.8239 62.7668L65.5854 62.5691L63.4216 64.7329L61.2521 66.8966L59.0534 64.7038C57.8435 63.4939 56.7675 62.4353 56.6628 62.3539L56.4708 62.2085L56.2672 62.4062L56.0695 62.5982L56.4592 62.9937L56.8489 63.3892H44.5933H32.3378V61.1208V58.8523H44.7155H57.0874L59.1523 56.7874C60.2865 55.6532 61.2288 54.7225 61.2462 54.7225C61.2637 54.7225 62.206 55.6532 63.3402 56.7874ZM64.3232 55.7986L65.2655 56.6129L64.7013 56.6303L64.1313 56.6478L63.6485 56.165L63.1657 55.6822V55.2576C63.1657 54.7516 63.0378 54.6876 64.3232 55.7986ZM89.9221 57.6599V58.2706H77.8352H65.7541L65.1434 57.6599L64.5326 57.0491H77.2302H89.9221V57.6599ZM57.0583 57.9507L56.7442 58.2706H44.541H32.3378V57.9507V57.6308H44.8551H57.3724L57.0583 57.9507ZM65.1957 64.3664C64.5675 65.0702 63.3111 66.3557 63.2588 66.3382C63.2239 66.3266 63.1832 66.2568 63.1599 66.1754C63.1308 66.0532 63.253 65.902 64.1778 64.9713C65.1899 63.9534 65.2306 63.9185 65.283 64.0639C65.3179 64.1803 65.3004 64.2443 65.1957 64.3664ZM89.9046 71.7768C89.8813 80.2283 89.8872 80.0712 89.5731 81.7987C88.9565 85.1956 87.578 88.0167 85.4724 90.1979C84.373 91.3321 83.4191 92.0359 82.0871 92.7049C80.0222 93.7344 78.5681 94.2055 73.6181 95.4445C70.3434 96.2588 68.8485 96.7183 67.2664 97.393C66.1322 97.87 64.6955 98.5971 63.8405 99.1206C63.4973 99.3358 63.2006 99.5103 63.189 99.5103C63.1774 99.5103 63.1657 94.351 63.1657 88.0458V76.5871L63.3286 76.6976C63.5903 76.8895 64.3 77.6108 64.5792 77.9714C64.8642 78.3437 65.0445 78.681 65.1085 78.9486C65.2306 79.443 65.8472 80.0887 67.1326 81.0484C67.7317 81.4963 68.1564 81.758 68.7148 82.0256C69.1336 82.2292 69.5233 82.4444 69.5756 82.5026C69.628 82.5665 69.7501 82.933 69.849 83.3285C70.1398 84.5325 70.2561 84.6314 71.3439 84.6663L72.0535 84.6896L72.5363 85.2538C73.3971 86.2368 75.3864 88.4762 75.7935 88.9066C76.0088 89.1393 76.2298 89.4068 76.2821 89.4999C76.5148 89.9594 76.4217 90.5818 76.0437 91.0937C75.6772 91.5939 75.0956 91.7277 74.543 91.4427C74.3452 91.3438 72.8271 89.7849 72.3385 89.1742C72.2047 89.0113 71.972 88.8019 71.8208 88.7147C71.6231 88.5983 71.5416 88.5111 71.5416 88.4238C71.5416 88.133 70.9949 87.5921 70.5528 87.4641C70.3492 87.4001 70.2969 87.4118 69.9595 87.5688C69.4825 87.7957 68.9939 88.1854 68.8893 88.4297C68.7555 88.7496 69.0172 89.3778 69.3371 89.5174C69.9711 89.7791 70.262 90.0409 70.262 90.3433C70.262 90.4306 70.8029 91.0064 71.9953 92.193C73.5251 93.7228 73.7694 93.938 74.1009 94.095C74.7524 94.3975 75.59 94.4731 76.1542 94.2812C76.9918 93.9903 78.4052 92.7747 78.696 92.0941C79.0334 91.3089 78.981 89.7907 78.5971 88.9183C78.4924 88.6856 77.4571 87.4932 74.7117 84.4395C73.8159 83.4507 73.7228 83.2587 73.8973 82.7759C74.0718 82.2815 74.0835 82.1536 74.0311 81.473C73.9497 80.4086 73.9381 80.3853 73.0947 80.0538C72.385 79.7688 72.292 79.4896 72.7573 79.0242C72.9667 78.8206 73.0074 78.8032 73.304 78.8032C73.6356 78.8032 74.415 79.0184 74.8105 79.2162C74.9501 79.286 75.1188 79.4663 75.2875 79.7222C75.5318 80.0829 75.5551 80.1468 75.5551 80.4667C75.5551 81.0542 75.6947 81.1589 76.9685 81.5254C77.4106 81.6533 77.8584 81.8162 77.969 81.8918C78.3877 82.1768 81.6741 86.0274 81.7905 86.3648C81.8312 86.4927 81.8661 87.0569 81.8719 87.8771C81.8777 88.5983 81.8893 89.2207 81.8893 89.2556C81.901 89.3778 82.2325 89.5115 82.5699 89.5174C82.8549 89.5232 82.9072 89.5057 83.0527 89.3545C83.5122 88.8775 86.5601 85.6028 86.8218 85.312C87.165 84.9223 87.229 84.707 87.1301 84.3231C87.0545 84.0323 86.9265 83.8636 86.7811 83.8636C86.7288 83.8636 86.4903 83.9276 86.2576 84.009C86.0249 84.0905 85.7283 84.1545 85.6003 84.1545C85.2164 84.1545 84.3788 83.9276 83.9251 83.7008C83.5296 83.503 83.4482 83.4274 82.8956 82.7585C82.5699 82.3571 81.8952 81.601 81.4007 81.0717C80.3945 79.9956 79.9175 79.4198 79.9175 79.286C79.9175 79.2336 80.0629 78.8497 80.2491 78.4309C80.4294 78.0121 80.5864 77.5468 80.6039 77.4014C80.6271 77.1629 80.6097 77.1164 80.4934 77.0408C80.4119 76.9884 80.1502 76.9419 79.8477 76.9244C79.2079 76.8895 79.0159 76.7848 78.7949 76.3544C78.7077 76.1857 78.5797 75.7786 78.5157 75.4587C78.3587 74.7199 78.3877 74.2081 78.6669 72.783C79.0101 71.0322 79.0799 70.4331 78.9927 69.8573C78.8996 69.2058 78.6495 68.4322 78.2132 67.4318C77.9224 66.7628 77.8061 66.5651 77.5618 66.3208C77.0848 65.8438 75.8168 65.1575 74.7117 64.7794C74.3452 64.6514 74.2114 64.6398 73.3738 64.6456C71.9255 64.6514 70.9367 64.8143 70.6517 65.0993C70.4539 65.2912 70.3492 65.2913 70.1107 65.076C69.849 64.8492 69.6047 64.8143 68.8078 64.8841C68.4356 64.9132 68.0633 64.919 67.9702 64.8957C67.7899 64.8434 67.4118 64.506 67.1094 64.1279L66.9349 63.9127H78.4343H89.9279L89.9046 71.7768ZM58.367 65.0179C59.1232 65.7798 59.1697 65.8322 59.0069 65.8322C58.8673 65.8322 58.6869 65.6984 58.1344 65.2156C57.384 64.5584 57.291 64.4362 57.4073 64.2908C57.448 64.2443 57.4945 64.2035 57.5178 64.2035C57.5353 64.2035 57.9192 64.57 58.367 65.0179ZM62.4096 83.4099V100.063L61.8279 100.511L61.2462 100.959V84.4278V67.8971L61.8105 67.3329C62.1245 67.0188 62.3863 66.7628 62.3921 66.7628C62.4038 66.7628 62.4096 74.2546 62.4096 83.4099ZM72.4548 67.5481C73.2808 67.8215 74.0486 68.2286 74.4266 68.5893C74.6302 68.7812 75.0199 69.3222 75.5434 70.1365C76.9452 72.3119 76.9685 72.37 76.4566 72.6492C76.288 72.7423 76.0727 72.8121 75.9506 72.8121H75.7296V72.498C75.7296 72.3293 75.7005 72.1025 75.6656 71.9978C75.59 71.7884 74.7524 70.6425 74.3045 70.1365C73.7345 69.4908 72.2629 68.1297 71.9837 67.9901C71.7219 67.8505 71.5474 67.6702 71.466 67.4434C71.4078 67.2805 71.7685 67.3154 72.4548 67.5481ZM55.9473 68.0774C56.3952 68.4148 56.7733 68.7289 56.7907 68.7754C56.878 69.0022 56.5813 69.2058 56.3487 69.0837C56.0404 68.9208 54.7317 67.8564 54.7317 67.7691C54.7317 67.6353 54.9003 67.4608 55.0283 67.4608C55.0865 67.4608 55.4995 67.7342 55.9473 68.0774ZM53.5683 70.6309C54.3129 71.166 54.4234 71.3114 54.2082 71.4859C53.993 71.6604 54.0279 71.6721 52.9983 70.9275C52.4632 70.5436 52.3818 70.404 52.5795 70.2412C52.6493 70.183 52.7482 70.1365 52.7947 70.1365C52.8413 70.1365 53.1903 70.3575 53.5683 70.6309ZM78.9287 78.7392C79.1963 79.2394 78.5099 80.3155 77.9224 80.3155C77.7479 80.3155 77.4745 80.1061 77.4745 79.9723C77.4745 79.7862 78.2365 78.9021 78.5215 78.7567C78.8356 78.5996 78.8531 78.5996 78.9287 78.7392ZM72.99 81.7638C73.1819 81.886 72.7108 82.5549 72.3327 82.7003C72.1873 82.7527 72.1349 82.7468 72.0128 82.6538C71.7219 82.4386 71.8092 82.107 72.2105 81.8976C72.5537 81.7231 72.8445 81.6708 72.99 81.7638Z" fill="white"/>
</svg>
