<svg width="246" height="78" viewBox="0 0 246 78" fill="none" xmlns="http://www.w3.org/2000/svg">
<path d="M209.309 76.8452V57.8236H216.687L217.037 60.6209H217.387C217.993 59.5952 218.832 58.8143 219.904 58.2782C221 57.742 222.27 57.4739 223.715 57.4739C225.254 57.4739 226.594 57.7886 227.736 58.418C228.879 59.0241 229.741 59.9798 230.324 61.2852H230.674C231.443 59.8866 232.434 58.9075 233.646 58.3481C234.858 57.7653 236.245 57.4739 237.807 57.4739C239.439 57.4739 240.837 57.8003 242.003 58.453C243.192 59.0824 244.101 60.0614 244.73 61.3901C245.359 62.6955 245.674 64.3856 245.674 66.4602V76.8452H237.947V67.4393C237.947 66.6234 237.865 65.9008 237.702 65.2714C237.539 64.642 237.236 64.1525 236.793 63.8028C236.373 63.4298 235.755 63.2434 234.94 63.2434C234.17 63.2434 233.518 63.4065 232.981 63.7329C232.445 64.0592 232.037 64.5138 231.758 65.0966C231.478 65.656 231.338 66.3087 231.338 67.0547V76.8452H223.645V67.3694C223.645 66.5768 223.564 65.8775 223.401 65.2714C223.261 64.642 222.969 64.1525 222.527 63.8028C222.084 63.4298 221.443 63.2434 220.603 63.2434C219.834 63.2434 219.181 63.4182 218.645 63.7678C218.132 64.0942 217.736 64.5488 217.456 65.1315C217.177 65.691 217.037 66.332 217.037 67.0547V76.8452H209.309Z" fill="white"/>
<path d="M194.371 77.1949C192.995 77.1949 191.736 76.9734 190.594 76.5305C189.475 76.0643 188.508 75.3999 187.692 74.5374C186.876 73.6749 186.247 72.6376 185.804 71.4254C185.361 70.2133 185.14 68.8612 185.14 67.3694C185.14 65.3413 185.524 63.593 186.293 62.1244C187.063 60.6559 188.135 59.5253 189.51 58.7327C190.909 57.9402 192.529 57.5439 194.371 57.5439C195.513 57.5439 196.504 57.6604 197.343 57.8935C198.182 58.1266 198.893 58.453 199.476 58.8726C200.082 59.2689 200.56 59.7467 200.909 60.3062H201.189L201.399 57.8236H208.742V76.8452H201.014V74.4325H200.734C200.152 75.295 199.289 75.971 198.147 76.4606C197.005 76.9501 195.746 77.1949 194.371 77.1949ZM196.853 71.4254C197.716 71.4254 198.45 71.2623 199.056 70.9359C199.685 70.6096 200.163 70.155 200.49 69.5722C200.816 68.9895 200.979 68.3251 200.979 67.5792V67.1596C200.979 66.3903 200.816 65.726 200.49 65.1665C200.163 64.5837 199.685 64.1292 199.056 63.8028C198.45 63.4765 197.716 63.3133 196.853 63.3133C196.084 63.3133 195.396 63.4648 194.79 63.7678C194.207 64.0709 193.741 64.5254 193.392 65.1315C193.065 65.7376 192.902 66.4836 192.902 67.3694C192.902 68.2552 193.065 69.0011 193.392 69.6072C193.718 70.2133 194.172 70.6678 194.755 70.9709C195.361 71.2739 196.061 71.4254 196.853 71.4254Z" fill="white"/>
<path d="M174.683 77.195C172.282 77.195 170.196 76.8103 168.424 76.0411C166.676 75.2718 165.312 74.1646 164.333 72.7193C163.377 71.274 162.899 69.5257 162.899 67.4744C162.899 65.3298 163.389 63.5232 164.368 62.0546C165.37 60.5627 166.746 59.4322 168.494 58.6629C170.266 57.8703 172.305 57.4741 174.613 57.4741C177.154 57.4741 179.298 57.9286 181.047 58.8377C182.818 59.7469 184.135 61.0639 184.998 62.7889C185.86 64.5139 186.198 66.6002 186.012 69.0479H170.627C170.65 69.6773 170.825 70.2251 171.151 70.6913C171.501 71.1575 171.991 71.5188 172.62 71.7752C173.249 72.0083 174.007 72.1249 174.893 72.1249C175.848 72.1249 176.688 71.985 177.41 71.7053C178.133 71.4023 178.599 71.0293 178.809 70.5864H186.082C185.942 71.8918 185.359 73.0457 184.334 74.048C183.308 75.0504 181.968 75.8313 180.313 76.3908C178.657 76.9269 176.781 77.195 174.683 77.195ZM170.417 65.3764L170.172 65.0268H178.739L178.424 65.3414C178.378 64.8053 178.215 64.3274 177.935 63.9078C177.655 63.4882 177.236 63.1619 176.676 62.9288C176.14 62.6957 175.441 62.5791 174.578 62.5791C173.809 62.5791 173.133 62.684 172.55 62.8938C171.967 63.0803 171.489 63.3833 171.116 63.8029C170.767 64.2225 170.534 64.747 170.417 65.3764Z" fill="white"/>
<path d="M157.566 76.8452C156.423 76.8452 155.421 76.6587 154.559 76.2858C153.696 75.8895 153.02 75.3067 152.531 74.5375C152.064 73.7682 151.831 72.7891 151.831 71.6003V63.593H148.579V57.8236H151.831V53.4529L159.419 52.0192V57.8236H163.93V63.593H159.419V69.0478C159.419 69.5373 159.524 69.8753 159.734 70.0618C159.967 70.2483 160.34 70.3415 160.853 70.3415H163.93V76.8452H157.566Z" fill="white"/>
<path d="M134.308 77.1949C132.933 77.1949 131.674 76.9734 130.532 76.5305C129.413 76.0643 128.445 75.3999 127.629 74.5374C126.814 73.6749 126.184 72.6376 125.741 71.4254C125.298 70.2133 125.077 68.8612 125.077 67.3694C125.077 65.3413 125.462 63.593 126.231 62.1244C127 60.6559 128.072 59.5253 129.448 58.7327C130.846 57.9402 132.466 57.5439 134.308 57.5439C135.45 57.5439 136.441 57.6604 137.28 57.8935C138.119 58.1266 138.83 58.453 139.413 58.8726C140.019 59.2689 140.497 59.7467 140.847 60.3062H141.126L141.336 57.8236H148.679V76.8452H140.952V74.4325H140.672C140.089 75.295 139.227 75.971 138.084 76.4606C136.942 76.9501 135.683 77.1949 134.308 77.1949ZM136.791 71.4254C137.653 71.4254 138.387 71.2623 138.993 70.9359C139.623 70.6096 140.101 70.155 140.427 69.5722C140.753 68.9895 140.917 68.3251 140.917 67.5792V67.1596C140.917 66.3903 140.753 65.726 140.427 65.1665C140.101 64.5837 139.623 64.1292 138.993 63.8028C138.387 63.4765 137.653 63.3133 136.791 63.3133C136.021 63.3133 135.334 63.4648 134.728 63.7678C134.145 64.0709 133.679 64.5254 133.329 65.1315C133.003 65.7376 132.839 66.4836 132.839 67.3694C132.839 68.2552 133.003 69.0011 133.329 69.6072C133.655 70.2133 134.11 70.6678 134.693 70.9709C135.299 71.2739 135.998 71.4254 136.791 71.4254Z" fill="white"/>
<path d="M104.44 76.8452V51.3549H112.167V64.2574L114.44 62.0545L119.091 57.8236H128.706L119.86 65.4462L128.846 76.8452H119.266L115.349 71.6003L114.265 69.9918L112.167 71.88V76.8452H104.44Z" fill="white"/>
<path d="M93.2485 77.1949C90.8475 77.1949 88.7611 76.8102 86.9895 76.041C85.2412 75.2717 83.8775 74.1645 82.8985 72.7192C81.9427 71.2739 81.4649 69.5256 81.4649 67.4743C81.4649 65.3297 81.9544 63.5231 82.9334 62.0545C83.9358 60.5626 85.3111 59.432 87.0594 58.6628C88.8311 57.8702 90.8708 57.4739 93.1785 57.4739C95.7194 57.4739 97.864 57.9285 99.6123 58.8376C101.384 59.7467 102.701 61.0638 103.563 62.7888C104.426 64.5138 104.764 66.6001 104.577 69.0477H89.1924C89.2157 69.6771 89.3905 70.2249 89.7169 70.6911C90.0665 71.1574 90.5561 71.5187 91.1855 71.7751C91.8148 72.0082 92.5724 72.1248 93.4583 72.1248C94.414 72.1248 95.2532 71.9849 95.9758 71.7052C96.6985 71.4021 97.1647 71.0292 97.3745 70.5862H104.647C104.508 71.8916 103.925 73.0455 102.899 74.0479C101.873 75.0503 100.533 75.8312 98.878 76.3906C97.2229 76.9268 95.3464 77.1949 93.2485 77.1949ZM88.9826 65.3763L88.7378 65.0266H97.3045L96.9898 65.3413C96.9432 64.8052 96.78 64.3273 96.5003 63.9077C96.2206 63.4881 95.801 63.1618 95.2415 62.9287C94.7054 62.6955 94.0061 62.579 93.1436 62.579C92.3743 62.579 91.6983 62.6839 91.1155 62.8937C90.5328 63.0802 90.0549 63.3832 89.6819 63.8028C89.3323 64.2224 89.0991 64.7469 88.9826 65.3763Z" fill="white"/>
<path d="M45.5147 76.8452V57.8236H52.8926L53.2423 60.6209H53.5919C54.198 59.5952 55.0372 58.8143 56.1095 58.2782C57.2051 57.742 58.4755 57.4739 59.9208 57.4739C61.4593 57.4739 62.7997 57.7886 63.9419 58.418C65.0841 59.0241 65.9466 59.9798 66.5294 61.2852H66.8791C67.6483 59.8866 68.639 58.9075 69.8512 58.3481C71.0633 57.7653 72.4503 57.4739 74.0122 57.4739C75.6439 57.4739 77.0426 57.8003 78.2081 58.453C79.3969 59.0824 80.3061 60.0614 80.9355 61.3901C81.5648 62.6955 81.8795 64.3856 81.8795 66.4602V76.8452H74.152V67.4393C74.152 66.6234 74.0704 65.9008 73.9073 65.2714C73.7441 64.642 73.441 64.1525 72.9981 63.8028C72.5785 63.4298 71.9608 63.2434 71.1449 63.2434C70.3757 63.2434 69.723 63.4065 69.1868 63.7329C68.6507 64.0592 68.2427 64.5138 67.963 65.0966C67.6833 65.656 67.5434 66.3087 67.5434 67.0547V76.8452H59.8509V67.3694C59.8509 66.5768 59.7693 65.8775 59.6061 65.2714C59.4662 64.642 59.1749 64.1525 58.7319 63.8028C58.289 63.4298 57.648 63.2434 56.8088 63.2434C56.0396 63.2434 55.3868 63.4182 54.8507 63.7678C54.3379 64.0942 53.9416 64.5488 53.6619 65.1315C53.3821 65.691 53.2423 66.332 53.2423 67.0547V76.8452H45.5147Z" fill="white"/>
<path d="M30.4629 77.1949C28.8078 77.1949 27.3626 76.9151 26.1271 76.3557C24.8916 75.7962 23.9359 74.8638 23.2599 73.5584C22.5839 72.253 22.2459 70.5047 22.2459 68.3134V57.8236H29.9734V66.9148C29.9734 67.7773 30.055 68.5582 30.2181 69.2575C30.4046 69.9335 30.731 70.4697 31.1972 70.866C31.6867 71.2389 32.3627 71.4254 33.2252 71.4254C34.0644 71.4254 34.7754 71.2506 35.3582 70.9009C35.9409 70.5513 36.3838 70.0618 36.6869 69.4324C37.0132 68.803 37.1764 68.092 37.1764 67.2994V57.8236H44.9039V76.8452H37.4911L37.1764 74.0829H36.8617C36.3256 75.0153 35.4631 75.7729 34.2742 76.3557C33.1087 76.9151 31.8382 77.1949 30.4629 77.1949Z" fill="white"/>
<path d="M0 76.8452V51.3549H7.72752V64.2574L10.0003 62.0545L14.6508 57.8236H24.2665L15.4201 65.4462L24.4064 76.8452H14.8257L10.9094 71.6003L9.82549 69.9918L7.72752 71.88V76.8452H0Z" fill="white"/>
<circle cx="174.397" cy="25.5505" r="25.5505" transform="rotate(-180 174.397 25.5505)" fill="#FB6111"/>
<circle cx="123.296" cy="25.5505" r="25.5505" transform="rotate(-180 123.296 25.5505)" fill="#FC9058"/>
<circle cx="72.1951" cy="25.5505" r="25.5505" transform="rotate(-180 72.1951 25.5505)" fill="#FDB088"/>
</svg>
