<svg width="418" height="107" viewBox="0 0 418 107" fill="none" xmlns="http://www.w3.org/2000/svg">
<g clip-path="url(#clip0_2197_3476)">
<path d="M29.3929 60.2921C30.0472 59.9469 30.8071 59.8406 31.5351 59.9926C32.263 60.1446 32.911 60.5446 33.3616 61.1203L59.775 94.5827C60.2816 95.1411 60.9325 95.5581 61.6602 95.7904C62.3882 96.023 63.1667 96.0627 63.9155 95.9056C64.6643 95.7485 65.3568 95.4003 65.9206 94.8966C66.4848 94.3933 66.9005 93.7526 67.1245 93.0409C67.1245 93.0409 72.519 73.9258 81.2205 46.2163C89.8486 18.7641 91.5097 16.4942 95.3753 5.75881C97.5949 -0.522537 95.0963 -7.30352 67.8742 18.607C52.911 32.8256 13.4008 69.6288 13.4008 69.6288L29.3929 60.2921ZM69.5203 40.0493L60.5248 67.3872C60.4361 67.6467 60.2787 67.879 60.0685 68.0605C59.8579 68.2419 59.6022 68.3667 59.3264 68.4214C59.0509 68.4765 58.7651 68.4602 58.4982 68.3738C58.231 68.2874 57.9923 68.1344 57.8054 67.9299L44.8413 53.6541C44.687 53.4848 44.5731 53.2848 44.5072 53.0681C44.4416 52.8515 44.4256 52.6234 44.4608 52.4C44.4957 52.1766 44.5808 51.9635 44.7101 51.7757C44.8394 51.5878 45.0096 51.4297 45.2086 51.3129L67.2569 38.3075C67.5296 38.167 67.8384 38.1062 68.1459 38.1322C68.4534 38.1578 68.7469 38.2694 68.9907 38.4534C69.2346 38.6374 69.4182 38.8861 69.52 39.169C69.6217 39.4522 69.6374 39.7578 69.5645 40.0493H69.5203Z" fill="#5A6FEF"/>
<path d="M3.7185 21.6908C3.7185 21.6908 21.4451 19.3782 36.3494 15.7807C45.8742 13.468 58.5446 10.0704 64.4387 7.90045C64.6294 7.83168 64.839 7.83136 65.0298 7.89949C65.2208 7.96765 65.3802 8.09978 65.4794 8.27207C65.5789 8.44435 65.6115 8.64547 65.5715 8.83911C65.5318 9.03271 65.4218 9.20611 65.2621 9.32803L19.9018 41.8053C19.3377 42.2351 18.6416 42.4684 17.9248 42.4684C17.208 42.4684 16.5119 42.2351 15.9478 41.8053L1.10212 28.6289C0.579728 28.0638 0.225602 27.3712 0.077722 26.6255C-0.070158 25.8798 -0.00620987 25.109 0.262706 24.3959C0.531622 23.6828 0.995357 23.0543 1.60417 22.5777C2.21298 22.1012 2.94388 21.7946 3.7185 21.6908Z" fill="#5A6FEF"/>
</g>
<path d="M159.818 70.7124V78H133.048V70.7124H159.818ZM135.612 24.6797V78H126.42V24.6797H135.612ZM183.512 78.7324C180.583 78.7324 177.934 78.2563 175.565 77.3042C173.222 76.3276 171.22 74.9727 169.56 73.2393C167.924 71.5059 166.667 69.4673 165.788 67.1235C164.909 64.7798 164.469 62.2529 164.469 59.543V58.0781C164.469 54.9775 164.921 52.1699 165.824 49.6553C166.728 47.1406 167.985 44.9922 169.596 43.21C171.208 41.4033 173.112 40.0239 175.309 39.0718C177.506 38.1196 179.887 37.6436 182.45 37.6436C185.282 37.6436 187.76 38.1196 189.884 39.0718C192.008 40.0239 193.766 41.3667 195.158 43.1001C196.574 44.8091 197.624 46.8477 198.307 49.2158C199.015 51.584 199.369 54.1963 199.369 57.0527V60.8247H168.754V54.4893H190.653V53.7935C190.604 52.2065 190.287 50.7173 189.701 49.3257C189.14 47.9341 188.273 46.811 187.101 45.9565C185.929 45.1021 184.367 44.6748 182.414 44.6748C180.949 44.6748 179.643 44.9922 178.495 45.627C177.372 46.2373 176.432 47.1284 175.675 48.3003C174.918 49.4722 174.333 50.8882 173.917 52.5483C173.527 54.1841 173.332 56.0273 173.332 58.0781V59.543C173.332 61.2764 173.563 62.8877 174.027 64.377C174.516 65.8418 175.224 67.1235 176.151 68.2222C177.079 69.3208 178.202 70.1875 179.521 70.8223C180.839 71.4326 182.34 71.7378 184.025 71.7378C186.149 71.7378 188.041 71.3105 189.701 70.4561C191.361 69.6016 192.802 68.3931 194.022 66.8306L198.673 71.335C197.819 72.5801 196.708 73.7764 195.341 74.9238C193.974 76.0469 192.301 76.9624 190.324 77.6704C188.371 78.3784 186.1 78.7324 183.512 78.7324ZM218.632 71.0054L228.336 38.376H237.492L223.722 78H218.009L218.632 71.0054ZM211.198 38.376L221.085 71.1519L221.562 78H215.849L202.006 38.376H211.198ZM259.904 78.7324C256.974 78.7324 254.325 78.2563 251.957 77.3042C249.613 76.3276 247.611 74.9727 245.951 73.2393C244.315 71.5059 243.058 69.4673 242.179 67.1235C241.3 64.7798 240.861 62.2529 240.861 59.543V58.0781C240.861 54.9775 241.312 52.1699 242.216 49.6553C243.119 47.1406 244.376 44.9922 245.988 43.21C247.599 41.4033 249.503 40.0239 251.701 39.0718C253.898 38.1196 256.278 37.6436 258.842 37.6436C261.674 37.6436 264.152 38.1196 266.276 39.0718C268.4 40.0239 270.158 41.3667 271.549 43.1001C272.965 44.8091 274.015 46.8477 274.699 49.2158C275.407 51.584 275.761 54.1963 275.761 57.0527V60.8247H245.146V54.4893H267.045V53.7935C266.996 52.2065 266.679 50.7173 266.093 49.3257C265.531 47.9341 264.665 46.811 263.493 45.9565C262.321 45.1021 260.758 44.6748 258.805 44.6748C257.34 44.6748 256.034 44.9922 254.887 45.627C253.764 46.2373 252.824 47.1284 252.067 48.3003C251.31 49.4722 250.724 50.8882 250.309 52.5483C249.918 54.1841 249.723 56.0273 249.723 58.0781V59.543C249.723 61.2764 249.955 62.8877 250.419 64.377C250.907 65.8418 251.615 67.1235 252.543 68.2222C253.471 69.3208 254.594 70.1875 255.912 70.8223C257.23 71.4326 258.732 71.7378 260.417 71.7378C262.541 71.7378 264.433 71.3105 266.093 70.4561C267.753 69.6016 269.193 68.3931 270.414 66.8306L275.065 71.335C274.21 72.5801 273.1 73.7764 271.732 74.9238C270.365 76.0469 268.693 76.9624 266.715 77.6704C264.762 78.3784 262.492 78.7324 259.904 78.7324ZM292.094 21.75V78H283.231V21.75H292.094ZM351.237 24.6797H360.392V60.312C360.392 64.3647 359.513 67.7583 357.755 70.4927C355.998 73.2271 353.605 75.29 350.578 76.6816C347.575 78.0488 344.218 78.7324 340.507 78.7324C336.674 78.7324 333.256 78.0488 330.253 76.6816C327.25 75.29 324.882 73.2271 323.148 70.4927C321.439 67.7583 320.585 64.3647 320.585 60.312V24.6797H329.74V60.312C329.74 62.8755 330.18 64.9873 331.059 66.6475C331.938 68.2832 333.183 69.4917 334.794 70.2729C336.405 71.0542 338.31 71.4448 340.507 71.4448C342.704 71.4448 344.596 71.0542 346.183 70.2729C347.794 69.4917 349.04 68.2832 349.918 66.6475C350.797 64.9873 351.237 62.8755 351.237 60.312V24.6797ZM378.373 45.9932V93.2344H369.547V38.376H377.677L378.373 45.9932ZM404.191 57.8218V58.5908C404.191 61.4717 403.849 64.145 403.166 66.6108C402.506 69.0522 401.518 71.1885 400.199 73.0195C398.905 74.8262 397.306 76.23 395.402 77.231C393.498 78.2319 391.3 78.7324 388.81 78.7324C386.344 78.7324 384.184 78.2808 382.328 77.3774C380.497 76.4497 378.947 75.1436 377.677 73.459C376.408 71.7744 375.382 69.7969 374.601 67.5264C373.844 65.2314 373.307 62.7168 372.99 59.9824V57.0161C373.307 54.1108 373.844 51.4741 374.601 49.106C375.382 46.7378 376.408 44.6992 377.677 42.9902C378.947 41.2812 380.497 39.9629 382.328 39.0352C384.159 38.1074 386.295 37.6436 388.737 37.6436C391.227 37.6436 393.437 38.1318 395.365 39.1084C397.294 40.0605 398.917 41.4277 400.236 43.21C401.554 44.9678 402.543 47.0918 403.202 49.582C403.861 52.0479 404.191 54.7944 404.191 57.8218ZM395.365 58.5908V57.8218C395.365 55.9907 395.194 54.2939 394.853 52.7314C394.511 51.1445 393.974 49.7529 393.241 48.5566C392.509 47.3604 391.569 46.4326 390.421 45.7734C389.298 45.0898 387.943 44.748 386.356 44.748C384.794 44.748 383.451 45.0166 382.328 45.5537C381.205 46.0664 380.265 46.7866 379.508 47.7144C378.751 48.6421 378.166 49.7285 377.75 50.9736C377.335 52.1943 377.042 53.5249 376.872 54.9653V62.0698C377.165 63.8276 377.665 65.439 378.373 66.9038C379.081 68.3687 380.082 69.5405 381.376 70.4194C382.694 71.2739 384.379 71.7012 386.43 71.7012C388.017 71.7012 389.372 71.3594 390.495 70.6758C391.618 69.9922 392.533 69.0522 393.241 67.856C393.974 66.6353 394.511 65.2314 394.853 63.6445C395.194 62.0576 395.365 60.373 395.365 58.5908Z" fill="white"/>
<defs>
<clipPath id="clip0_2197_3476">
<rect width="96" height="96" fill="white"/>
</clipPath>
</defs>
</svg>
