<?xml version="1.0" encoding="UTF-8"?>
<svg id="Layer_2" data-name="Layer 2" xmlns="http://www.w3.org/2000/svg" xmlns:xlink="http://www.w3.org/1999/xlink" viewBox="0 0 453.54 119.63">
  <defs>
    <style>
      .cls-1 {
        fill: url(#linear-gradient);
      }

      .cls-1, .cls-2, .cls-3 {
        stroke-width: 0px;
      }

      .cls-2 {
        fill: #ed1c24;
      }

      .cls-3 {
        fill: #fff;
        fill-rule: evenodd;
      }
    </style>
    <linearGradient id="linear-gradient" x1="227.62" y1="19.95" x2="227.62" y2="94.64" gradientUnits="userSpaceOnUse">
      <stop offset=".56" stop-color="#ed1c24"/>
      <stop offset=".6" stop-color="#e11921"/>
      <stop offset=".73" stop-color="#c6141b"/>
      <stop offset=".83" stop-color="#b61217"/>
      <stop offset=".92" stop-color="#b11116"/>
    </linearGradient>
  </defs>
  <g id="Logo">
    <g>
      <path class="cls-3" d="m59.82,0h333.91c33.04,0,59.81,26.78,59.81,59.82s-26.78,59.81-59.81,59.81H59.82C26.78,119.63,0,92.85,0,59.82S26.78,0,59.82,0Z"/>
      <g>
        <path class="cls-2" d="m407.06,51.51c-.58,0-1.16.05-1.73.15-11.36,2.02-19.74,14.2-21.73,24.77-.29,1.55-.52,3.36-.52,5.21.01.68.04,1.38.11,2.07-.07.05-.15.09-.23.13-2.68,1.5-6,3-8.26,3.24h-.22s-.15,0-.15,0c-.2,0-.33-.02-.41-.04-.05,0-.08-.01-.11-.02,0-.04-.01-.1-.01-.21,0-.22.05-.6.18-1.09.52-2.08,2.16-4.73,2.19-7.59.03-2.05-.91-3.51-2.2-4.46,2.6-.72,5.43-2.15,7.74-4.98,5.18-6.32,6.72-14.33,8.89-21.6,1.56-5.52,3.61-13.56,8.61-15.91.96-.47,2.01-.7,3.04-.7,1.5,0,3,.51,4.16,1.53.35.3.65.82,1.12,1.4.42.58,1.29,1.24,2.42,1.22.08,0,.14,0,.18,0,2.33-.17,3.2-2.24,3.16-3.85,0-.82-.18-1.61-.53-2.31h-.01c-1.59-2.68-5.59-3.31-8.06-3.38-.08,0-.18,0-.29,0-10.63,0-16.16,8.03-19.03,15.35-1.6,4.02-1.45,3.5-3.96,10.78-2.01,6.02-5.42,14.99-8.28,16.96-3.67,2.56-6.17,2.69-8.19,2.71l8.06-19h-8.13l-.26.62h-.02c-3.58,8.68-9.76,13.45-14.32,16.28-1.23-1.19-2.89-1.68-4.47-1.67-2.5.01-4.99,1.06-6.71,2.44-1.24,1.04-2.11,2.69-2.15,4.31-.01.91.38,1.96,1.39,2.51,1.05.58,2.05.86,3.02.86.75,0,1.43-.15,2.13-.38-.16.92-.59,2.44-1.75,4.59-1.39,2.66-4.13,5.4-6.83,6.49-1.12.47-2.95,1.15-4.28,1.14-.95-.02-1.42-.21-1.77-.88-.08-.15-.12-.38-.12-.7-.04-1.42,1.18-3.9,1.76-5.19,3.52-8.31,12.26-29,12.26-29l.57-1.35h-8.15l-4.95,11.69c-.79,1.3-1.74,2.93-2.87,4.98l.63.32-.63-.32h0c-6.25,11.28-12.92,16.16-15.81,17.95-1.32.82-2.53,1.37-3.94,1.82-.76.26-1.94.56-2.79.56-.33,0-.58-.04-.74-.1-.86-.3-1.8-1.69-1.8-4.64,0-2.24.53-5.26,1.87-9,2.16-6.14,5.92-11.3,9.34-15.06,1.31-1.5,4.58-4,6.59-3.91.5,0,.91.12,1.31.4.12.19.36.61.4.94v.09c0,.15,0,.18-.44.49-.38.3-1.12.6-1.56,1.49-.29.63-.43,1.29-.43,1.92,0,2.1,1.66,3.91,3.86,3.92.97,0,1.99-.37,2.91-1.11,1.65-1.39,2.04-3.64,2.12-5.29.01-.12.01-.23.01-.33,0-.8-.12-1.58-.39-2.32-.34-.95-.9-1.82-1.69-2.53-.78-.72-1.75-1.28-2.73-1.65-1.19-.45-2.58-.63-3.94-.63-.75,0-1.49.06-2.18.18-1.87.37-3.5,1.26-4.97,2.09-3.31,1.88-6.04,4.3-8.53,7.09-1.16,1.27-2.23,2.62-3.2,4.07-1.71,2.56-3.17,5.46-4.24,8.38-1.14,3.18-1.72,6.04-1.86,8.59-.66.57-1.46,1.26-2.42,1.96-2.17,1.61-5.02,3.13-7.22,3.1-.13,0-.2-.01-.23-.03-.01-.03-.04-.13-.04-.26,0-.66.48-1.93.77-2.68,0,0,0-.01,0-.01,0,0,0,0,.02-.03.53-1.28,13.04-30.77,13.04-30.81l.57-1.35h-8.13l-8.64,20.39c-1.34.59-2.26.78-2.81.77-.96-.03-1.14-.37-1.78-1.22-.51-.78-1.46-2.12-3.36-2.1-.9.01-1.91.26-3.2.82l7.92-18.67h-8.15l-12.59,29.71c-.68.62-1.69,1.52-2.92,2.42-2.17,1.61-5,3.12-7.23,3.1-.11,0-.18-.01-.22-.02,0-.04-.03-.13-.03-.27-.01-.66.48-1.94.78-2.69,0-.03.09-.26.23-.6l1.94-4.55c1.16-2.73,2.6-6.12,3.87-9.09l.57-1.37h-.03l7.04-16.59h-8.14l-7.3,17.21c-2.57,4.74-4.54,7.7-5.83,9.44-.66.87-1.14,1.43-1.45,1.76-.31.34-.41.41-.41.41-.08.08-1.63,1.66-3.81,3.26-2.19,1.61-5.01,3.12-7.22,3.1-.14,0-.21-.01-.23-.03-.01-.03-.04-.13-.04-.27-.01-.65.48-1.93.76-2.69.04-.07.11-.23.25-.57l1.94-4.58c1.16-2.73,2.61-6.12,3.87-9.09l.58-1.36h-.03l7.04-16.59h-8.14l-12.03,28.39c-.66.67-1.78,1.74-3.14,2.82-2.22,1.75-5.15,3.4-7.52,3.37-.29-.01-.28-.05-.29-.04,0,0-.07-.12-.07-.41-.01-.78.51-2.18.81-2.98.15-.51,8.56-21.28,8.57-21.3.97-2.62,1.46-4.54,1.46-6.07,0-1.18-.34-2.22-1.14-2.91-.81-.68-1.83-.88-2.94-.88-4.17.12-9.65,4.08-14.21,8.8.79-1.91,1.28-3.62,1.31-5.08,0-1.01-.27-1.99-1.02-2.71-.77-.72-1.84-1.01-3.1-1.01-4.57.11-10.27,4.15-15.04,8.87.7-1.36,1.38-2.73,1.93-3.89.19-.43.66-1.31.67-2.37.07-.91-.6-2.14-1.93-2.48-.64-.2-1.33-.35-2.08-.34-1.83,0-3.75.86-6.34,3.04-4.76,3.94-7.51,4.85-9.47,5.42-.37-2.86-1.47-5.14-3.29-6.5-1.97-1.44-4.13-2.08-6.26-2.07-8.13.11-15.77,8.39-19.2,13.43-1.72,2.56-3.17,5.46-4.24,8.38-.52,1.43-.9,2.79-1.2,4.1-2.01,2.76-4.29,5.33-6.83,7.32-1.05.87-5.34,3.66-8.07,3.6-1.08-.02-1.78-.29-2.36-1.18-.08-.14-.15-.34-.15-.62-.13-2.31,4.62-7.9,6.14-9.43,3.7-4.01,9.28-10.27,11.19-15.85.26-.8.41-1.69.41-2.63,0-1.64-.45-3.42-1.62-4.86-1.19-1.43-3.14-2.41-5.74-2.4-.22,0-.45,0-.69.02-2.55.16-5.32,1.19-7.34,2.73-10.87,7.9-16.4,21.61-21.46,28.52-2.21,3.06-3.72,5.55-6.89,5.53-.9-.2-.79-.23-.92-1-.01-.98.64-2.68,1.28-4.11,3.32-7.72,9.3-19.9,19.74-40.27.07-.16.11-.34.11-.49-.08-.82-.59-.97-.78-1.09-1.35-.54-4.25-.63-4.94-.66-.03,0-.06,0-.14,0t-.01,0h-.02c-1.34.18-1.57.98-2.1,1.59-.44.66-.82,1.38-.94,1.57-1.97,3.09-3.88,6.16-6.04,9.07-.65.89-1.34,1.77-2.03,2.66-.72.96-6.93,8.57-11.21,10.29-1.13.49-3.65.92-5.82.91-1.47.02-2.84-.21-3.44-.55-2.28-1.24-3.1-3.32-3.13-6.08-.01-5.22,3.33-12.14,4.99-15.59,2.34-4.93,5.54-9.41,9.04-13.65,2.47-3.01,6.05-5.48,9.53-7.17,1.23-.6,2.65-.93,4.02-.93,1.16,0,2.29.24,3.29.71,1.92.89,2.89,3.14,2.89,5.4,0,.4-.04.8-.08,1.18-.56,3.59-2.35,7.16-4.4,10.29-1.15,1.76-2.46,3.45-3.84,5.08-1.37,1.64-2.85,3.23-4.39,4.75-.88.86-1.75,1.73-2.58,2.7-.01.02-.33.3-.6.59-.26.34-.65.59-.74,1.41,0,0-.02.15.08.38h.01c.45,1.14,1.41,1.14,2.06,1.21.4-.02.82-.03,1.3-.42,6.41-5.87,12.03-12.88,16.06-20.6,1.21-2.32,2.2-5.04,2.2-7.83,0-.44-.03-.89-.07-1.33-.36-2.57-2.11-5.49-4.32-6.98-1.71-1.08-3.86-1.58-6.23-1.58-8.68.03-20.9,6.54-28.87,19.29-4.45,7.13-6.22,14.46-6.22,20.42.03,5.49,1.42,9.84,4.02,11.94,2.25,1.77,4.74,2.31,6.89,2.3.64,0,1.24-.04,1.8-.12-.7.56-1.52,1.22-2.46,2.01-16.25,13.41-21.72,14.77-24.4,14.75-.25,0-.49-.01-.73-.03-1.68-.21-2.6-.91-2.69-3.52,0-.21,0-.43.02-.65.04-1.68,2.09-3.89,3.43-3.87.08,0,.16-.01.22-.01,1.75-.08,3.94,1.62,6.73,1.7.3,0,.59-.02.87-.07,3.07-.52,4.75-3.15,4.74-5.73-.01-1.28-.4-2.61-1.23-3.72-1.49-2.02-3.88-2.67-6.14-2.66-2.2,0-4.39.57-6.06,1.26-4.33,1.77-8.34,5.29-9.41,10.16-.19.84-.29,1.71-.29,2.58,0,3.41,1.46,6.86,4.66,8.83,2.34,1.45,4.84,2.06,7.33,2.06h.01c7.82-.04,15.39-5.77,20.58-10.08,2.97-2.46,5.7-5.14,8.39-7.8.61-.62,5.85-5.92,9.83-9.96-1.05,2.12-2.09,4.2-2.49,5.04-3.17,6.65-5.3,11.55-5.33,15.37,0,1.12.2,2.18.68,3.12.45.94,1.08,1.84,2.01,2.6,1.23,1,2.76,1.46,4.32,1.46,2.62-.01,5.38-1.23,7.68-3.3,3.7-3.36,7.34-9.03,8.68-11.32,1.28-2.2,5.6-9.37,8.12-13.04,2.28-3.38,5.15-6.58,8.16-8.87.81-.66,2.94-1.89,4.04-1.83.57.07.72.05,1.02.83.1.31.15.64.15.99.14,3.92-6.52,10.17-8.69,12.26-4.07,4.13-9.78,9.81-9.84,16.86,0,.35.01.7.06,1.06.32,3.95,3.99,5.96,8.08,5.9,4.14-.01,9.06-1.77,13.12-5.34,1.33-1.16,2.77-2.39,4.14-3.74.42,4.22,2.46,7.3,5.71,8.47,1.01.35,2.07.52,3.15.52,4.8-.03,10.06-3.1,14.86-7.44,5.35-4.88,8.27-10.3,10.09-16.51.4-1.31.68-2.57.86-3.78,1.98-.93,5.51-2.89,10.09-6.75l-15.27,34.02h8.6l3.09-7.06c4.88-10.99,9.65-18.31,13.41-22.72,3.66-4.02,6.79-5.65,7.52-5.56.17.02.14.01.17.02.01.01.09.2.09.55.01.86-.48,2.4-1.08,3.69l-13.41,31.07h8.57l3.09-7.06c4.59-10.38,9.1-17.53,12.74-22.05,3.57-4.53,6.66-6.34,7.18-6.2.29.05.23-.12.34.8.03.88-.37,2.28-.9,3.47l-9.16,21.74c-.06.09-.11.23-.15.35-.47,1.25-.99,2.93-.99,4.52,0,.64.08,1.28.35,1.9.86,2.15,2.86,3.02,4.68,3.02.05,0,.1,0,.15,0,.86,0,1.69-.14,2.5-.33.76-.21,1.52-.45,2.24-.74,2.78-1.11,5.08-2.68,6.96-4.23-.03.24-.05.48-.05.72,0,.62.1,1.25.37,1.83.94,2.04,3.05,2.7,4.84,2.67.83,0,1.65-.12,2.39-.29.71-.17,1.4-.37,2.09-.63,3.72-1.39,6.7-3.64,8.78-5.54,1.02-.96,1.82-1.82,2.36-2.45.17-.2.32-.38.46-.53l-.27.62c-.07.14-.1.24-.1.24-.44,1.19-.9,2.68-.9,4.09,0,.61.09,1.24.36,1.82.94,2,2.98,2.67,4.73,2.67h.12c.83,0,1.65-.12,2.39-.29.71-.17,1.41-.37,2.08-.63,2.35-.88,4.39-2.09,6.09-3.34l-1.64,3.87h8.13l6.89-16.22c1.8-.84,2.99-1.12,3.72-1.11,1.11.03,1.34.45,2.1,1.37.62.87,1.78,2.2,3.89,2.16.37,0,.76-.03,1.18-.11-.94,2.22-2.39,5.63-2.42,5.7-.42,1.17-.88,2.64-.89,4.06,0,.61.1,1.24.36,1.82.94,1.99,2.98,2.67,4.74,2.67h.11c.83,0,1.64-.12,2.39-.3.71-.16,1.41-.37,2.08-.62,3.74-1.4,6.72-3.65,8.77-5.54.19-.18.33-.32.51-.49.77,3.23,2.66,5.58,5.4,6.55,1.06.38,2.24.55,3.43.55,1.07,0,2.15-.14,3.22-.37,3.34-.74,5.89-2.39,8.36-4.31,1.77-1.38,3.53-3.01,5.07-4.56.68-.68,1.35-1.44,2.01-2.24-.57,1.66-.86,3.12-.86,4.4-.07,3.61,2.44,5.79,5.62,6.57.86.23,1.67.35,2.5.35s1.73-.12,2.72-.32c2.74-.57,5.29-1.48,7.57-2.84,1.67-.99,4.21-2.75,6.13-4.65,2.76-2.79,6.11-6.66,6.13-11.89,0-.41-.03-.84-.07-1.26,3.3-2.71,4.83-4.01,6.21-5.34l-11,25.96h8.15l4.82-11.41,2.76-6.12,1.93-.09c2.78.36,3.24,1.33,3.35,3.21.01,1.14-.36,2.58-.94,4.05-1.16,2.98-1.76,4.74-1.77,6.27,0,.53.08,1.04.26,1.51v.04l.04.1c.25.99,1.02,1.88,2.11,2.31.68.38,1.54.51,2.39.51.89,0,1.8-.15,2.75-.32.74-.14,1.95-.58,2.12-.65l.65-.24v-.02c2.99-1.23,6.05-2.8,8.57-4.18.52,1.01,1.17,1.94,2.09,2.72,2.16,1.84,4.82,2.62,7.49,2.61,4.81-.01,9.71-2.42,12.79-5.81.82-.9,1.55-1.82,2.24-2.74.25-.4.59-1.06.59-1.96.01-.67-.23-1.49-.86-2.17-.9-.98-2.16-1.54-3.4-1.56-1.12-.07-2.5.75-2.62,2.15-.31,2.69-2.13,5.07-2.12,5.09-.79,1-2.75,2.38-5.29,2.37-.34,0-.7-.03-1.08-.08-2.04-.28-3.33-2.05-3.51-4.16,3.6-1.9,7.79-4.33,10.27-6.21,5.68-4.38,9.43-9.07,12.01-15.06.85-1.69,1.42-3.47,1.53-5.31.01-.14.01-.28.01-.43,0-4.39-4.04-6.29-7.52-6.29m-15.98,27.78c1.06-6.49,4.18-13.06,6.25-16.12,1.76-2.76,5.06-7.04,7.87-7.06h.04c.44.09.71.03.78.93v.2c-.23,4.24-3.38,11.05-7.5,16.03-1.77,2.26-4.66,4.68-7.44,6.03m-233.84-3.26h0l-.92-.43c-2.42,4.75-4.76,8.07-7.09,10.29-1.87,1.82-4.27,3.11-5.48,3.06-.22,0-.4-.03-.53-.08-.88-.3-1.82-1.69-1.82-4.64,0-2.24.55-5.26,1.89-9,2.16-6.14,5.92-11.3,9.33-15.06,1.3-1.5,4.58-4,6.59-3.91.55,0,.99.13,1.4.47.58.44.94,1.44.93,2.91.04,5.01-4.14,13.89-5.22,15.97l.92.43h0Z"/>
        <path class="cls-1" d="m143.69,91.02c-1.63-.55-2.58-2.68-2.58-5.68,0-2.57.67-5.8,1.94-9.37,1.87-5.34,5.08-10.52,9.54-15.42,1.32-1.5,4.83-4.31,7.38-4.31h.12c.85.01,1.53.24,2.1.72.91.69,1.38,2,1.38,3.78.04,5.97-5.3,16.37-5.36,16.47-2.42,4.75-4.81,8.22-7.31,10.58-1.67,1.64-4.35,3.39-6.29,3.39-.37,0-.71-.06-.93-.15m247.1-10.79c1.05-6.4,4.07-13.06,6.41-16.53,1.8-2.84,5.37-7.57,8.86-7.59l.3.02.1.02c1.02.18,1.51.77,1.59,2v.25c-.25,4.54-3.51,11.54-7.74,16.64-1.94,2.49-5.02,4.98-7.84,6.36l-2.02.98.35-2.15ZM71.7,38.69c-3.91,6.25-6.06,13.3-6.06,19.84.03,5.23,1.34,9.28,3.6,11.09,1.73,1.37,3.8,2.05,6.15,2.05.59,0,1.15-.04,1.67-.11l3.92-.47-3.03,2.44c-.7.56-1.52,1.22-2.45,1.99-16.13,13.32-21.88,15.02-25.16,15.02-.27,0-.55-.01-.86-.04-2.48-.31-3.59-1.69-3.71-4.63,0-.23.01-.49.03-.66.05-2.23,2.57-4.96,4.49-4.96h0c.12-.01.23-.01.46-.02,1,0,1.98.38,3.04.78,1.12.43,2.3.88,3.57.92.23,0,.45-.02.67-.05,2.61-.43,3.78-2.7,3.77-4.62-.02-1.12-.36-2.18-1-3.08-1.34-1.81-3.54-2.19-5.21-2.19-2.38,0-4.52.74-5.59,1.17-4.58,1.88-7.86,5.37-8.76,9.37-.16.76-.25,1.55-.25,2.35,0,3.34,1.55,6.29,4.13,7.88,2.02,1.26,4.28,1.89,6.7,1.89h.01c7.15-.04,14.35-5.26,19.83-9.8,2.87-2.39,5.58-5.02,8.31-7.73.62-.61,5.85-5.91,9.83-9.94l1.89,1.25c-1.05,2.11-2.09,4.18-2.49,5.01-2.95,6.19-5.19,11.22-5.22,14.9,0,1.02.18,1.89.56,2.64.46.93,1.02,1.66,1.72,2.23.96.79,2.19,1.2,3.57,1.2,2.27,0,4.78-1.1,6.89-2.99,4.13-3.73,8.04-10.32,8.46-11.05,1.31-2.24,5.66-9.44,8.16-13.09,2.45-3.62,5.42-6.86,8.38-9.11.68-.57,3.09-2.1,4.71-2.1h.22s.09.02.09.02c1.02.12,1.48.48,1.9,1.6.15.4.21.85.21,1.28.13,3.8-4.65,8.88-8.82,12.88l-.31.31c-3.95,3.99-9.35,9.45-9.39,15.96,0,.31.01.63.04.98.3,3.59,3.81,4.87,6.93,4.87,4.13,0,8.74-1.89,12.35-5.04l.92-.82c1.04-.91,2.13-1.86,3.17-2.88l1.75-1.7.23,2.38c.38,3.85,2.14,6.52,4.96,7.52.85.3,1.77.45,2.74.45,4.09-.03,8.95-2.5,14.08-7.13,4.8-4.37,7.8-9.31,9.77-16.01.37-1.24.64-2.48.84-3.65l.08-.58.55-.25c2.08-.97,5.45-2.91,9.84-6.59l1.83,1.28-14.58,32.46h6.07l2.79-6.39c5.4-12.16,10.38-19.21,13.61-23.02,3.51-3.87,6.9-5.94,8.31-5.94.09,0,.18,0,.25.02l.38.05.19.12c.45.26.67.76.67,1.49.01,1.16-.6,2.91-1.16,4.12l-12.75,29.54h6.07l2.78-6.39c5.15-11.59,9.87-18.53,12.9-22.29,3.28-4.18,6.66-6.67,8.02-6.67l.22.03h.04c1.11.07,1.22.99,1.29,1.49l.04.39c.01,1.19-.5,2.8-1,3.89l-9.17,21.76-.11.28h-.01c-.6,1.67-.9,3.02-.92,4.16,0,.58.1,1.06.27,1.48.85,2.13,2.92,2.31,3.72,2.31h.02c.67,0,1.41-.1,2.2-.29.77-.19,1.45-.41,2.1-.68,2.29-.92,4.51-2.28,6.64-4.04l2.2-1.76-.3,2.79c-.01.19-.04.36-.04.53,0,.56.08,1,.27,1.38.83,1.81,2.84,2,3.77,2,.66,0,1.37-.08,2.12-.25.72-.17,1.35-.36,1.94-.59,2.93-1.1,5.75-2.88,8.39-5.31.81-.75,1.59-1.54,2.3-2.35.16-.19.31-.36.42-.51l1.98,1.11-.26.62-.07.16v.03c-.37.97-.83,2.41-.85,3.72,0,.55.08.99.26,1.36.85,1.81,2.85,2.01,3.79,2.01.66,0,1.35-.08,2.1-.25.75-.18,1.38-.37,1.95-.59,1.98-.74,3.94-1.82,5.81-3.19l3.38-2.47-1.6,3.79-1,2.33h5.65l6.57-15.52.18-.4.39-.19c1.75-.8,3.16-1.22,4.27-1.22,1.57.04,2.14.76,2.82,1.6l.19.25c.6.83,1.42,1.69,2.95,1.69.3,0,.63-.03.97-.1l2.07-.34-.79,1.86-1.84,4.36-.53,1.28c-.38,1.04-.82,2.42-.82,3.69,0,.56.08.99.26,1.37.85,1.81,2.84,2,3.77,2,.66,0,1.37-.09,2.13-.26.63-.14,1.26-.34,1.92-.58,2.94-1.09,5.76-2.89,8.4-5.31l.25-.24.25-.25,1.47-1.38.47,1.93c.7,2.93,2.31,4.92,4.67,5.76.89.31,1.9.48,3.02.48.92,0,1.92-.12,2.97-.34,3.21-.71,5.7-2.39,7.9-4.09,1.52-1.19,3.18-2.69,4.96-4.48.6-.6,1.26-1.34,1.94-2.16l2.01,1.05c-.53,1.55-.8,2.88-.8,4.07-.07,3.85,3.31,5.12,4.78,5.48.75.21,1.46.3,2.18.3s1.45-.09,2.47-.3c2.76-.56,5.11-1.45,7.22-2.69,1.66-1,4.1-2.7,5.89-4.47,2.86-2.89,5.79-6.48,5.81-11.13,0-.37-.03-.77-.05-1.15l-.05-.59.45-.37c3.37-2.78,4.81-4.02,6.13-5.28l1.9,1.2-10.35,24.43h5.63l4.55-10.74,2.75-6.11.29-.64.72-.04,1.93-.09h.21c3.44.47,4.22,1.97,4.36,4.31,0,1.55-.54,3.28-1.01,4.45-1.15,2.93-1.69,4.56-1.71,5.89,0,.4.07.78.19,1.12l.05.2v.06c.2.69.72,1.26,1.58,1.61.42.24,1.05.36,1.8.36.77,0,1.57-.12,2.53-.3.37-.06,1-.26,1.91-.58l.63-.26c2.46-1.01,5.3-2.4,8.45-4.13l1.08-.58.55,1.07c.49.99,1.09,1.76,1.81,2.38,1.8,1.53,4.12,2.34,6.72,2.33,4.27-.01,8.97-2.15,11.93-5.43.7-.78,1.4-1.63,2.11-2.57.2-.33.44-.79.44-1.41,0-.24-.06-.85-.59-1.42-.66-.73-1.61-1.17-2.68-1.18-.52,0-1.24.39-1.31,1.16-.14,1.18-.63,3.09-2.22,5.44l-.11.17-.03.04c-1.12,1.39-3.45,2.79-6.2,2.79-.41,0-.82-.03-1.26-.09-2.46-.34-4.27-2.42-4.49-5.17l-.06-.72.66-.35c2.05-1.09,7.15-3.86,10.09-6.11,5.56-4.26,9.16-8.77,11.69-14.66.86-1.7,1.33-3.35,1.42-4.89.02-.13.02-.25.02-.37,0-4.08-4.16-5.17-6.36-5.17-.52,0-1.02.04-1.51.13-10.95,1.94-18.89,13.75-20.8,23.87-.33,1.76-.49,3.45-.49,5.02,0,.64.04,1.3.09,1.95l.03.72-.61.36-.22.12c-2.04,1.13-5.87,3.08-8.84,3.39h-.37c-.25,0-.45-.02-.64-.05l-.83-.17-.15-.7c-.04-.14-.07-.29-.07-.45,0-.44.12-.99.23-1.35.19-.8.52-1.62.86-2.51.61-1.56,1.27-3.18,1.27-4.83.03-1.5-.56-2.69-1.73-3.57l-1.83-1.35,2.21-.61c2.9-.78,5.29-2.33,7.15-4.59,4.17-5.1,5.93-11.43,7.64-17.56.34-1.23.67-2.45,1.02-3.64l.23-.8c1.59-5.64,3.76-13.35,8.98-15.8,1.12-.54,2.35-.83,3.57-.83,1.85,0,3.61.65,4.92,1.81.34.28.6.64.86,1.02.12.17.25.35.42.57.11.12.62.76,1.59.76,2.13-.16,2.08-2.61,2.08-2.73,0-.66-.15-1.3-.4-1.76-1.48-2.48-5.8-2.78-7.05-2.81h-.29c-8.1.01-14.15,4.93-17.95,14.64l-.43,1.11c-1.15,2.89-1.24,3.12-3.49,9.61-2.28,6.82-5.65,15.4-8.72,17.52-3.79,2.66-6.45,2.91-8.84,2.93l-1.74.02.64-1.55,7.4-17.48h-5.63c-2.87,6.87-7.68,12.33-14.75,16.73l-.79.49-.66-.64c-.9-.87-2.19-1.35-3.65-1.35-2.03.01-4.26.83-5.95,2.17-1.04.86-1.71,2.24-1.74,3.49-.02.52.18,1.19.79,1.51.86.47,1.65.7,2.43.7.55,0,1.08-.1,1.76-.32l1.83-.59-.31,1.84c-.18.98-.64,2.63-1.86,4.91-1.6,3.05-4.59,5.86-7.4,7-1.94.82-3.52,1.23-4.8,1.23-1.04-.04-2.09-.24-2.77-1.51-.16-.32-.25-.73-.25-1.16-.03-1.52,1-3.75,1.67-5.23l.17-.4,12.2-28.83h-5.63l-4.73,11.15c-.8,1.29-1.73,2.91-2.86,4.94-6.11,11.07-12.77,16.26-16.2,18.36-1.35.85-2.65,1.44-4.2,1.94-.57.19-2.01.61-3.17.61-.44,0-.85-.06-1.12-.16-1.61-.55-2.58-2.67-2.58-5.68,0-2.57.67-5.8,1.93-9.37,1.89-5.34,5.11-10.52,9.57-15.42,1.3-1.5,4.8-4.31,7.48-4.31h.01c.76.01,1.39.21,1.98.62l.18.12.11.18c.15.23.51.83.57,1.43l.02.18v.09c-.04.7-.47,1.01-.9,1.31-.09.08-.22.16-.36.25-.34.22-.65.43-.86.82-.22.47-.33.98-.33,1.45,0,1.57,1.17,2.8,2.69,2.81.72,0,1.48-.3,2.14-.82,1.05-.9,1.63-2.38,1.74-4.5v-.3c0-.69-.11-1.35-.33-1.95-.29-.82-.76-1.52-1.39-2.09-.64-.59-1.48-1.09-2.35-1.43-.98-.36-2.2-.55-3.53-.55-.71,0-1.37.05-1.94.17-1.73.33-3.33,1.22-4.62,1.94-2.9,1.65-5.61,3.89-8.25,6.86-1.18,1.29-2.19,2.58-3.09,3.93-1.65,2.48-3.09,5.3-4.11,8.15-1.07,2.93-1.67,5.71-1.8,8.28l-.03.45-.35.31c-.82.73-1.67,1.42-2.49,2.01-1.35,1-4.85,3.34-7.93,3.34-.26,0-.44-.04-.55-.07l-.57-.17-.21-.55c-.07-.19-.1-.41-.1-.6-.03-.8.38-1.91.87-3.17.3-.73,4.63-10.94,8.21-19.41,2.32-5.48,4.33-10.23,4.75-11.23h-5.63l-8.34,19.7-.18.41-.42.19c-1.33.57-2.42.87-3.31.87-1.49-.05-1.98-.73-2.57-1.52l-.17-.21c-.5-.77-1.13-1.59-2.38-1.59-.76.02-1.63.24-2.72.73l-2.67,1.16,1.1-2.6,7.27-17.15h-5.63l-12.3,29.03-.08.22-.19.15c-1.01.93-2.02,1.78-3.02,2.5-1.35,1.01-4.82,3.33-7.93,3.33-.19,0-.37-.02-.53-.07l-.52-.14-.23-.48c-.08-.19-.14-.43-.14-.68-.01-.81.4-1.92.85-3.1l.06-.19h0s.18-.46.18-.46l1.94-4.55,1.23-2.87,2.65-6.22.55-1.36,6.38-15.06h-5.63l-7.04,16.62c-2.69,4.96-4.72,7.95-5.93,9.57-.69.92-1.19,1.49-1.54,1.86-.24.27-.38.39-.49.5-1.2,1.19-2.56,2.34-3.88,3.3-1.36,1.01-4.83,3.33-7.94,3.33-.19,0-.37-.02-.54-.07l-.59-.16-.19-.56c-.07-.18-.1-.39-.1-.59-.03-.78.37-1.89.81-3.03l.12-.3h0s.16-.38.16-.38l1.94-4.58,1.52-3.57,2.35-5.54.56-1.35,6.38-15.06h-5.65l-11.74,27.7-.07.19-.15.16c-.72.72-1.87,1.82-3.26,2.9-1.72,1.36-5.07,3.64-8.32,3.64-.23-.02-.4-.05-.55-.09h0c-.37-.11-.9-.43-.9-1.47-.01-.88.41-2.11.86-3.33.19-.57,8.53-21.21,8.58-21.34.94-2.56,1.39-4.37,1.39-5.7.01-.94-.25-1.64-.74-2.07-.48-.41-1.16-.6-2.13-.6-3.38.09-8.4,3.25-13.4,8.44l-1.93-1.17c.81-1.95,1.2-3.48,1.23-4.68,0-.83-.23-1.48-.68-1.91-.49-.45-1.24-.68-2.27-.68-3.65.08-8.83,3.19-14.22,8.53l-1.88-1.27c.7-1.35,1.37-2.71,1.95-3.95.19-.4.52-1.08.53-1.89.02-.35-.27-1.11-1.14-1.34-.63-.19-1.18-.28-1.72-.28-1.59,0-3.3.85-5.58,2.76-4.73,3.93-7.6,4.98-9.91,5.65l-1.31.39-.18-1.32c-.33-2.64-1.31-4.62-2.83-5.75-1.67-1.22-3.53-1.83-5.53-1.83-7.05.09-14.24,7.02-18.26,12.91-1.65,2.49-3.07,5.3-4.1,8.15-.46,1.27-.85,2.57-1.17,3.97l-.04.22-.14.17c-2.25,3.12-4.63,5.66-7.04,7.54-.78.63-5.41,3.86-8.86,3.86-1.09-.03-2.34-.26-3.31-1.71-.22-.34-.33-.73-.33-1.15-.19-3.3,6.41-10.19,6.44-10.22,2.69-2.92,8.98-9.72,10.96-15.45.23-.7.35-1.49.35-2.28-.01-1.14-.25-2.8-1.39-4.17-1.04-1.27-2.73-1.97-4.81-1.97-.21,0-.41,0-.63.02-2.28.14-4.84,1.1-6.7,2.51-7.56,5.49-12.55,14-16.57,20.84-1.63,2.79-3.17,5.41-4.65,7.43l-.52.72c-2.02,2.83-3.78,5.29-7.28,5.29h-.16l-.14-.03c-1.09-.24-1.61-.54-1.76-1.68l-.04-.38c-.01-.98.43-2.47,1.37-4.56,3.37-7.81,9.28-19.87,19.68-40.39-1.01-.4-3.46-.53-4.25-.57l-.23-.04c-.56.08-.68.26-1.01.72-.11.17-.23.33-.29.39-.29.41-.53.86-.71,1.16-.1.18-.18.32-.22.38l-.48.75c-1.78,2.79-3.59,5.68-5.61,8.39-.66.89-1.35,1.79-2.05,2.66-.06.08-6.75,8.7-11.66,10.65-1.35.57-4.02,1.01-6.41,1.01-1.67,0-3.13-.27-3.91-.71-2.47-1.34-3.68-3.64-3.7-7.05-.02-5.39,3.25-12.24,5.1-16.06,2.08-4.39,4.99-8.81,9.16-13.88,2.35-2.85,5.88-5.5,9.92-7.47,1.38-.68,2.99-1.05,4.55-1.05,1.37,0,2.68.29,3.8.83,2.17,1.02,3.53,3.47,3.53,6.4,0,.46-.04.9-.1,1.35-.52,3.26-2.05,6.87-4.55,10.71-1.05,1.6-2.3,3.26-3.92,5.19-1.34,1.59-2.84,3.21-4.47,4.82-.88.85-1.73,1.7-2.53,2.63l-.13.15-.06.04c-.1.1-.29.27-.38.35-.05.09-.13.17-.2.25-.19.21-.26.28-.27.48.15.37.3.41.96.49.32-.02.41-.02.53-.12,6.56-6.01,12.03-13.03,15.83-20.29,1.37-2.66,2.08-5.13,2.08-7.34,0-.4-.02-.8-.07-1.18-.33-2.34-1.92-4.95-3.8-6.19-1.46-.93-3.35-1.39-5.59-1.39-7.8.03-19.86,5.9-27.88,18.74"/>
      </g>
    </g>
  </g>
</svg>