<svg width="2544" height="455" viewBox="0 0 2544 455" fill="none" xmlns="http://www.w3.org/2000/svg">
<rect width="2544" height="454.893" fill="#EFEFEF"/>
<path d="M2428.72 290.045C2428.72 290.045 2428.32 204.013 2428.32 183.241C2428.32 137.225 2390.45 114.132 2343.64 114.132C2284.97 114.132 2259.03 144.64 2255.92 174.525C2265.53 174.525 2294.52 174.525 2301.76 174.525C2308.37 160.261 2320.24 157.148 2343.08 157.148C2371.96 157.148 2384.34 165.412 2384.34 179.166C2384.34 182.166 2383.38 185.448 2380.95 187.712C2375.75 192.637 2368.46 194.618 2360.83 196.372C2350.6 198.693 2339.8 199.429 2329.34 200.108C2324.2 200.447 2318.89 200.787 2313.52 201.353C2292.04 204.126 2241.39 213.465 2241.39 269.33C2241.39 305.95 2266.49 340.646 2323.97 340.646C2349.75 340.646 2374.34 329.269 2386.49 318.572C2387.4 323.836 2390.67 332.722 2392.48 335.608C2398.81 335.608 2432.45 335.325 2437.42 335.325C2432.96 328.42 2428.49 303.403 2428.83 290.045H2428.72ZM2384.46 232.2C2384.46 233.558 2384.46 234.973 2384.46 236.275C2384.46 237.917 2384.46 239.558 2384.46 241.143C2384.46 249.067 2384.51 256.538 2382.14 263.67C2379.14 273.462 2371.62 282.065 2361.51 287.272C2351.5 292.592 2339.18 297.573 2324.88 297.573C2304.7 297.573 2287.18 283.989 2287.18 270.292C2286.89 263.839 2287.46 257.84 2291.41 253.765C2296.39 248.671 2303.51 246.18 2309.11 244.652C2318.09 242.275 2327.25 241.539 2336.97 240.747C2343.76 240.181 2350.77 239.615 2357.66 238.426C2366.2 237.011 2375.81 234.917 2384.51 230.389C2384.51 231.011 2384.51 231.577 2384.51 232.2H2384.46Z" fill="#CE0E2D"/>
<path d="M1309.73 246.803C1309.73 277.084 1294.7 297.63 1265.08 297.63C1237.49 297.63 1224.09 279.291 1224.09 247.708C1224.09 227.842 1224.09 119.226 1224.09 119.226H1178.99C1178.99 119.226 1178.99 241.482 1178.99 249.067C1178.99 294.347 1203.18 340.589 1260.44 340.589C1282.09 340.589 1298.43 333.627 1310.92 322.987C1310.92 323.27 1310.97 335.665 1310.97 335.665H1355.46V119.226H1309.56C1309.56 119.226 1309.56 235.143 1309.56 246.803H1309.73Z" fill="#CE0E2D"/>
<path d="M1094.25 246.803C1094.25 277.084 1081.03 297.63 1053.9 297.63C1026.76 297.63 1017.21 279.291 1017.21 247.708C1017.21 227.842 1017.21 119.226 1017.21 119.226H972.102C972.102 119.226 972.102 232.2 972.102 247.652C971.876 277.48 958.649 297.686 931.8 297.686C904.95 297.686 895.114 279.348 895.114 247.765C895.114 227.898 895.114 119.283 895.114 119.283H850.007C850.007 119.283 850.007 241.539 850.007 249.123C850.007 294.403 872.617 340.646 927.164 340.646C953.392 340.646 978.264 326.609 989.06 310.195C1001.5 328.307 1021.11 340.646 1049.26 340.646C1069.61 340.646 1082.95 333.684 1095.44 323.043C1095.44 323.326 1095.5 335.722 1095.5 335.722H1139.98V119.226H1094.09C1094.09 119.226 1094.09 235.143 1094.09 246.803H1094.25Z" fill="#CE0E2D"/>
<path d="M2237.66 114.132H2174.52L2096.8 191.335V42.4766H2050.9V335.608H2096.8V234.294L2185.88 335.608H2249.02L2137.78 210.918L2237.66 114.132Z" fill="#CE0E2D"/>
<path d="M480.215 114.132C417.754 114.132 369.989 165.299 369.989 227.389C369.989 289.479 417.754 340.646 480.215 340.646C542.676 340.646 590.44 289.479 590.44 227.389C590.44 165.299 542.676 114.132 480.215 114.132ZM480.215 297.63C443.077 297.63 415.832 265.82 415.832 227.389C415.832 188.958 443.134 157.148 480.215 157.148C517.296 157.148 544.598 188.958 544.598 227.389C544.598 265.82 517.296 297.63 480.215 297.63Z" fill="#CE0E2D"/>
<path d="M1535.38 201.579H1446.3V119.17H1400.4V335.608H1446.3V244.482H1535.38V335.608H1581.22V119.17H1535.38V201.579Z" fill="#CE0E2D"/>
<path d="M1943.5 178.147H1893.87V119.17H1847.97V340.702H1943.5C1988.27 340.702 2024.56 304.309 2024.56 259.425C2024.56 214.541 1988.27 178.147 1943.5 178.147ZM1940.39 297.8H1893.87V221.05H1940.39C1961.53 221.05 1978.66 238.256 1978.66 259.425C1978.66 280.593 1961.53 297.8 1940.39 297.8Z" fill="#CE0E2D"/>
<path d="M1718.36 297.63C1681.22 297.63 1659.23 265.82 1659.23 227.389C1659.23 188.958 1681.22 157.148 1718.36 157.148C1748.88 157.148 1762.33 168.808 1767.82 181.486H1814.73C1807.84 145.206 1771.26 114.076 1718.36 114.076C1655.9 114.076 1613.39 165.242 1613.39 227.332C1613.39 289.423 1655.9 340.589 1718.36 340.589C1773.24 340.589 1809.14 309.063 1815.69 266.16H1769C1763.97 283.706 1749.39 297.573 1718.36 297.573V297.63Z" fill="#CE0E2D"/>
<path d="M718.584 114.076C695.295 114.076 676.077 122 661.323 135.357C661.323 134.169 661.38 133.037 661.38 131.848C661.38 131.565 661.323 119.17 661.323 119.17H616.838V412.415H662.737C662.737 412.415 662.737 368.493 662.737 320.723C677.264 333.231 695.974 340.589 718.641 340.589C781.102 340.589 822.535 289.423 822.535 227.332C822.535 165.242 781.102 114.076 718.641 114.076H718.584ZM718.584 297.573C681.447 297.573 660.532 265.764 660.532 227.332C660.532 188.901 681.447 157.092 718.584 157.092C755.722 157.092 776.636 188.901 776.636 227.332C776.636 265.764 755.722 297.573 718.584 297.573Z" fill="#CE0E2D"/>
<path d="M299.502 119.566L296.336 122.962L238.284 185.618C233.084 191.222 228.449 197.165 224.322 203.447C220.196 197.165 215.561 191.222 210.361 185.618L152.309 122.962L149.143 119.566H106.579V335.608H152.365V189.297C152.365 189.297 168.249 203.843 179.78 218.899C191.311 234.011 202.56 254.048 205.895 277.763H242.863C246.198 254.048 257.447 234.011 268.978 218.899C280.509 203.787 296.393 189.297 296.393 189.297V335.608H342.179V119.566H299.502Z" fill="#CE0E2D"/>
</svg>
