<svg xmlns:dc="http://purl.org/dc/elements/1.1/" xmlns:cc="http://creativecommons.org/ns#" xmlns:rdf="http://www.w3.org/1999/02/22-rdf-syntax-ns#" xmlns:svg="http://www.w3.org/2000/svg" xmlns="http://www.w3.org/2000/svg" viewBox="0 0 387.556 213.77733" height="213.77733" width="387.556" xml:space="preserve" id="svg2" version="1.1"><metadata id="metadata8" fill="#ffffff"><rdf:RDF fill="#ffffff"><cc:Work rdf:about="" fill="#ffffff"><dc:format fill="#ffffff">image/svg+xml</dc:format><dc:type rdf:resource="http://purl.org/dc/dcmitype/StillImage" fill="#ffffff"/></cc:Work></rdf:RDF></metadata><defs id="defs6" fill="#ffffff"><clipPath id="clipPath18" clipPathUnits="userSpaceOnUse" fill="#ffffff"><path id="path16" d="M 0,160.333 H 290.667 V 0 H 0 Z" fill="#ffffff"/></clipPath><clipPath id="clipPath26" clipPathUnits="userSpaceOnUse" fill="#ffffff"><path id="path24" d="M 71.06,115.853 H 221.25 V 62.1833 H 71.06 Z" fill="#ffffff"/></clipPath><clipPath id="clipPath80" clipPathUnits="userSpaceOnUse" fill="#ffffff"><path id="path78" d="M 0,160.333 H 290.667 V 0 H 0 Z" fill="#ffffff"/></clipPath><clipPath id="clipPath88" clipPathUnits="userSpaceOnUse" fill="#ffffff"><path id="path86" d="M 78.73,52.4033 H 213.6 v -13.65 H 78.73 Z" fill="#ffffff"/></clipPath></defs><g transform="matrix(1.3333333,0,0,-1.3333333,0,213.77733)" id="g10"><g id="g12"><g clip-path="url(#clipPath18)" id="g14"><g id="g20"><g id="g22"/><g id="g52"><g id="g50" clip-path="url(#clipPath26)"><path id="path28" style="fill:#ffffff;fill-opacity:1;fill-rule:nonzero;stroke:none" d="m 207.42,103.003 h -5.34 v -8.92 h 5.34 z m 13.83,9.45 v -46.87 h -13.83 v 18.92 h -5.34 V 65.583 H 188.5 v 46.87 z"/><g id="g32" transform="translate(149.44,89.0233)"><path id="path30" style="fill:#ffffff;fill-opacity:1;fill-rule:nonzero;stroke:none" d="m 0,0 c 0,1.74 -0.2,3.44 -0.58,5.06 l -0.01,0.01 c -2.29,9.85 -11.12,17.18 -21.66,17.18 -12.29,0 -22.25,-9.96 -22.25,-22.25 0,-3.18 0.67,-6.2 1.87,-8.93 3.44,-7.84 11.27,-13.32 20.38,-13.32 0.8,0 1.59,0.04 2.37,0.12 C -8.71,-20.94 0,-11.49 0,0 m 19.89,13.98 h -6 V 5.06 h 6 z m 13.34,9.45 V -4.52 H 13.89 V -23.44 H 0.14 v 8.65 c -4.8,-7.26 -13.04,-12.05 -22.39,-12.05 -9.47,0 -17.81,4.91 -22.57,12.33 v -8.93 H -59 v 19.31 h -5.38 v -19.31 h -14 v 46.87 h 14 V 5.06 H -59 v 18.37 h 14.18 V 14.5 c 4.76,7.42 13.09,12.33 22.57,12.33 9.35,0 17.59,-4.79 22.39,-12.05 v 8.65 z"/></g><g id="g36" transform="translate(127.79,84.8933)"><path id="path34" style="fill:#39ac90;fill-opacity:1;fill-rule:nonzero;stroke:none" d="M 0,0 C 1.52,0 2.75,1.23 2.75,2.75 2.75,3.42 2.51,4.04 2.12,4.51 1.94,5.85 0.78,6.88 -0.6,6.88 -2.12,6.88 -3.35,5.65 -3.35,4.13 -3.35,3.46 -3.11,2.84 -2.72,2.37 -2.54,1.03 -1.39,0 0,0 m 1.77,-18 c -0.78,-0.08 -1.57,-0.12 -2.37,-0.12 -9.11,0 -16.94,5.48 -20.38,13.32 -0.43,1.71 -0.65,3.5 -0.65,5.34 0,12.27 9.95,22.22 22.23,22.22 9.2,0 17.09,-5.59 20.46,-13.56 L 21.07,9.19 C 21.45,7.57 21.65,5.87 21.65,4.13 21.65,-7.36 12.94,-16.81 1.77,-18"/></g><g id="g40" transform="translate(127.19,111.2733)"><path id="path38" style="fill:#2a8271;fill-opacity:1;fill-rule:nonzero;stroke:none" d="M 0,0 C 10.54,0 19.37,-7.33 21.66,-17.18 18.29,-9.21 10.4,-3.62 1.2,-3.62 c -12.28,0 -22.23,-9.95 -22.23,-22.22 0,-1.84 0.22,-3.63 0.65,-5.34 -1.2,2.73 -1.87,5.75 -1.87,8.93 C -22.25,-9.96 -12.29,0 0,0"/></g><g id="g44" transform="translate(130.54,87.6433)"><path id="path42" style="fill:#2a8271;fill-opacity:1;fill-rule:nonzero;stroke:none" d="m 0,0 c 0,-1.52 -1.23,-2.75 -2.75,-2.75 -1.39,0 -2.54,1.03 -2.72,2.37 0.51,-0.61 1.27,-0.99 2.12,-0.99 1.51,0 2.75,1.23 2.75,2.75 0,0.13 -0.01,0.26 -0.03,0.38 C -0.24,1.29 0,0.67 0,0"/></g><g id="g48" transform="translate(129.91,89.4033)"><path id="path46" style="fill:#ffffff;fill-opacity:1;fill-rule:nonzero;stroke:none" d="m 0,0 c 0.02,-0.12 0.03,-0.25 0.03,-0.38 0,-1.52 -1.24,-2.75 -2.75,-2.75 -0.85,0 -1.61,0.38 -2.12,0.99 -0.39,0.47 -0.63,1.09 -0.63,1.76 0,1.52 1.23,2.75 2.75,2.75 C -1.34,2.37 -0.18,1.34 0,0"/></g></g></g></g></g></g><g transform="translate(114.44,99.7133)" id="g54"><path id="path56" style="fill:none;stroke:#ffffff;stroke-width:0.5;stroke-linecap:round;stroke-linejoin:miter;stroke-miterlimit:10;stroke-dasharray:none;stroke-opacity:1" d="M 0,0 V -21.07"/></g><g transform="translate(129.56,79.3333)" id="g58"><path id="path60" style="fill:none;stroke:#ffffff;stroke-width:0.5;stroke-linecap:round;stroke-linejoin:miter;stroke-miterlimit:10;stroke-dasharray:none;stroke-opacity:1" d="M 0,0 V -12.44"/></g><g transform="translate(122.31,93.4533)" id="g62"><path id="path64" style="fill:none;stroke:#ffffff;stroke-width:0.5;stroke-linecap:round;stroke-linejoin:miter;stroke-miterlimit:10;stroke-dasharray:none;stroke-opacity:1" d="M 0,0 V 12.72"/></g><g transform="translate(133.62,94.0833)" id="g66"><path id="path68" style="fill:none;stroke:#ffffff;stroke-width:0.5;stroke-linecap:round;stroke-linejoin:miter;stroke-miterlimit:10;stroke-dasharray:none;stroke-opacity:1" d="M 0,0 V 6.36"/></g><g transform="translate(139.69,100.0233)" id="g70"><path id="path72" style="fill:none;stroke:#ffffff;stroke-width:0.5;stroke-linecap:round;stroke-linejoin:miter;stroke-miterlimit:10;stroke-dasharray:none;stroke-opacity:1" d="M 0,0 V -16.13"/></g><g id="g74"><g clip-path="url(#clipPath80)" id="g76"><g id="g82"><g id="g84"/><g id="g168"><g id="g166" clip-path="url(#clipPath88)"><g id="g92" transform="translate(213.6,45.3833)"><path id="path90" style="fill:#ffffff;fill-opacity:1;fill-rule:nonzero;stroke:none" d="m 0,0 c 0,-1.14 -0.26,-2.06 -0.78,-2.75 -0.51,-0.68 -1.21,-1.03 -2.09,-1.03 -0.68,0 -1.24,0.25 -1.68,0.75 v -3.45 h -2.3 V 3.76 h 2.15 l 0.07,-0.69 c 0.45,0.55 1.03,0.82 1.75,0.82 0.91,0 1.62,-0.33 2.12,-1 C -0.25,2.21 0,1.29 0,0.11 Z m -3.44,-2 c 0.74,0 1.11,0.63 1.14,1.9 v 0.25 c 0,1.31 -0.39,1.97 -1.15,1.97 -0.55,0 -0.91,-0.2 -1.1,-0.59 V -1.38 C -4.35,-1.79 -3.98,-2 -3.44,-2"/></g><g id="g96" transform="translate(198.59,45.1233)"><path id="path94" style="fill:#ffffff;fill-opacity:1;fill-rule:nonzero;stroke:none" d="m 0,0 -0.01,0.39 c 0,0.74 0.15,1.39 0.43,1.97 0.29,0.58 0.7,1.02 1.24,1.33 C 2.2,4 2.83,4.15 3.55,4.15 4.66,4.15 5.53,3.81 6.17,3.12 6.81,2.44 7.13,1.51 7.13,0.33 V 0.24 C 7.13,-0.91 6.81,-1.82 6.17,-2.5 5.53,-3.18 4.66,-3.52 3.57,-3.52 2.51,-3.52 1.67,-3.2 1.03,-2.57 0.39,-1.94 0.05,-1.08 0,0 m 2.62,-1.26 c 0.21,-0.32 0.53,-0.48 0.95,-0.48 0.82,0 1.24,0.63 1.26,1.89 V 0.39 C 4.83,1.71 4.4,2.38 3.55,2.38 2.78,2.38 2.37,1.8 2.3,0.66 V 0.24 c 0,-0.68 0.1,-1.18 0.32,-1.5"/></g><g id="g100" transform="translate(198.21,49.1433)"><path id="path98" style="fill:#ffffff;fill-opacity:1;fill-rule:nonzero;stroke:none" d="M 0,0 V -1.78 H -2.91 V -7.4 H -5.22 V 0 Z"/></g><path id="path102" style="fill:#ffffff;fill-opacity:1;fill-rule:nonzero;stroke:none" d="m 191.62,41.743 h -2.31 v 7.4 h 2.31 z"/><g id="g106" transform="translate(189.17,51.0433)"><path id="path104" style="fill:#ffffff;fill-opacity:1;fill-rule:nonzero;stroke:none" d="M 0,0 C 0,0.33 0.12,0.6 0.35,0.81 0.59,1.02 0.9,1.12 1.28,1.12 1.66,1.12 1.96,1.02 2.2,0.81 2.44,0.6 2.56,0.33 2.56,0 2.56,-0.32 2.44,-0.59 2.2,-0.8 1.96,-1.01 1.66,-1.12 1.28,-1.12 0.9,-1.12 0.59,-1.01 0.35,-0.8 0.12,-0.59 0,-0.32 0,0"/></g><g id="g110" transform="translate(183.01,45.5333)"><path id="path108" style="fill:#ffffff;fill-opacity:1;fill-rule:nonzero;stroke:none" d="m 0,0 2.04,-3.79 h -2.4 L -1.52,-1.6 -2.67,-3.79 H -5.09 L -3.04,0 -4.98,3.61 h 2.42 l 1.04,-2.04 1.08,2.04 h 2.39 z"/></g><g id="g114" transform="translate(174.95,46.0533)"><path id="path112" style="fill:#ffffff;fill-opacity:1;fill-rule:nonzero;stroke:none" d="m 0,0 -2.03,-4.31 h -2.32 v 7.4 h 2.32 v -4.3 L 0,3.09 h 2.31 v -7.4 H 0 Z"/></g><g id="g118" transform="translate(165.06,44.4733)"><path id="path116" style="fill:#ffffff;fill-opacity:1;fill-rule:nonzero;stroke:none" d="m 0,0 v -2.73 h -2.31 v 7.4 H 0 V 1.78 h 2.02 v 2.89 h 2.31 v -7.4 H 2.02 V 0 Z"/></g><g id="g122" transform="translate(158.54,47.1133)"><path id="path120" style="fill:#ffffff;fill-opacity:1;fill-rule:nonzero;stroke:none" d="M 0,0 C 0.69,0 1.29,-0.12 1.81,-0.34 2.33,-0.56 2.72,-0.88 3,-1.29 3.27,-1.7 3.41,-2.18 3.41,-2.72 3.41,-3.51 3.1,-4.16 2.48,-4.64 1.86,-5.13 1.02,-5.37 -0.04,-5.37 H -3.5 v 7.4 h 2.32 l 0,-2.03 z m 1.11,-2.71 c 0,0.28 -0.09,0.5 -0.27,0.67 -0.17,0.17 -0.46,0.26 -0.85,0.26 h -1.17 v -1.83 h 1.17 c 0.35,0 0.63,0.08 0.82,0.25 0.2,0.16 0.3,0.38 0.3,0.65"/></g><g id="g126" transform="translate(146.45,43.5033)"><path id="path124" style="fill:#ffffff;fill-opacity:1;fill-rule:nonzero;stroke:none" d="M 0,0 0.24,0.03 C 0.55,0.07 0.77,0.27 0.92,0.64 1.07,1.01 1.16,1.58 1.2,2.33 l 0.15,3.31 h 5.84 v -7.4 H 4.88 V 3.86 H 3.5 L 3.38,1.6 C 3.29,0.48 3.04,-0.36 2.62,-0.92 2.2,-1.48 1.58,-1.76 0.75,-1.76 H 0.03 Z"/></g><path id="path128" style="fill:#ffffff;fill-opacity:1;fill-rule:nonzero;stroke:none" d="m 145.61,41.743 h -2.31 v 7.4 h 2.31 z"/><g id="g132" transform="translate(145.72,51.0433)"><path id="path130" style="fill:#ffffff;fill-opacity:1;fill-rule:nonzero;stroke:none" d="m 0,0 c 0,-0.32 -0.12,-0.59 -0.36,-0.8 -0.23,-0.21 -0.54,-0.32 -0.92,-0.32 -0.38,0 -0.68,0.11 -0.92,0.32 -0.24,0.21 -0.36,0.48 -0.36,0.8 0,0.33 0.12,0.6 0.36,0.81 0.24,0.21 0.54,0.31 0.92,0.31 0.38,0 0.69,-0.1 0.92,-0.31 C -0.12,0.6 0,0.33 0,0"/></g><g id="g136" transform="translate(137.67,47.3733)"><path id="path134" style="fill:#ffffff;fill-opacity:1;fill-rule:nonzero;stroke:none" d="M 0,0 H -2.29 V 1.77 H 4.65 V 0 H 2.32 V -5.63 H 0 Z"/></g><g id="g140" transform="translate(130.85,43.8133)"><path id="path138" style="fill:#ffffff;fill-opacity:1;fill-rule:nonzero;stroke:none" d="m 0,0 c 0.18,-0.29 0.46,-0.43 0.85,-0.43 0.32,0 0.57,0.09 0.75,0.26 0.18,0.18 0.27,0.42 0.26,0.74 h 2.16 c 0,-0.81 -0.29,-1.48 -0.87,-2 -0.58,-0.52 -1.33,-0.78 -2.25,-0.78 -1.07,0 -1.92,0.34 -2.54,1.02 -0.62,0.67 -0.93,1.6 -0.93,2.8 V 1.7 c 0,0.75 0.14,1.41 0.42,1.98 0.27,0.57 0.67,1.01 1.19,1.32 0.52,0.31 1.13,0.46 1.84,0.46 0.97,0 1.73,-0.26 2.29,-0.8 C 3.74,4.13 4.02,3.41 4.02,2.5 H 1.86 C 1.86,2.88 1.77,3.17 1.58,3.38 1.39,3.58 1.14,3.69 0.83,3.69 0.23,3.69 -0.12,3.31 -0.22,2.54 -0.25,2.3 -0.26,1.97 -0.26,1.55 -0.26,0.8 -0.18,0.29 0,0"/></g><g id="g144" transform="translate(123.33,43.4433)"><path id="path142" style="fill:#ffffff;fill-opacity:1;fill-rule:nonzero;stroke:none" d="m 0,0 c 0.14,-0.13 0.32,-0.2 0.54,-0.2 0.28,0 0.52,0.07 0.71,0.19 0.19,0.12 0.32,0.26 0.41,0.42 V 1.59 H 0.99 C 0.18,1.59 -0.22,1.23 -0.22,0.51 -0.22,0.3 -0.15,0.13 0,0 m 1.76,-1.04 c -0.42,-0.53 -1.02,-0.8 -1.78,-0.8 -0.7,0 -1.29,0.21 -1.78,0.64 -0.48,0.42 -0.73,0.95 -0.73,1.59 0,0.8 0.3,1.4 0.89,1.81 0.59,0.41 1.46,0.62 2.59,0.62 h 0.71 v 0.39 c 0,0.68 -0.3,1.02 -0.89,1.02 -0.54,0 -0.82,-0.27 -0.82,-0.81 h -2.3 c 0,0.72 0.31,1.3 0.91,1.74 0.61,0.45 1.39,0.67 2.33,0.67 C 1.83,5.83 2.58,5.6 3.13,5.14 3.67,4.68 3.95,4.05 3.97,3.25 V -0.03 C 3.98,-0.7 4.08,-1.22 4.28,-1.58 V -1.7 H 1.98 C 1.9,-1.55 1.82,-1.33 1.76,-1.04"/></g><g id="g148" transform="translate(115.55,44.4733)"><path id="path146" style="fill:#ffffff;fill-opacity:1;fill-rule:nonzero;stroke:none" d="m 0,0 v -2.73 h -2.3 v 7.4 H 0 V 1.78 h 2.02 v 2.89 h 2.31 v -7.4 H 2.02 V 0 Z"/></g><g id="g152" transform="translate(107.91,47.7833)"><path id="path150" style="fill:#ffffff;fill-opacity:1;fill-rule:nonzero;stroke:none" d="m 0,0 c 0.56,-0.64 0.85,-1.5 0.85,-2.59 v -0.1 c 0,-0.69 -0.15,-1.3 -0.43,-1.84 -0.29,-0.53 -0.7,-0.94 -1.24,-1.22 -0.54,-0.29 -1.18,-0.43 -1.9,-0.43 -1.09,0 -1.97,0.35 -2.61,1.05 -0.65,0.7 -0.98,1.67 -0.98,2.9 v 0.22 c 0.01,1.68 0.29,3.01 0.84,3.98 0.54,0.96 1.38,1.57 2.5,1.82 0.51,0.11 0.84,0.22 1,0.33 0.16,0.11 0.23,0.28 0.23,0.5 H 0.12 C 0.12,4.05 0.03,3.62 -0.15,3.33 -0.32,3.03 -0.6,2.78 -0.98,2.59 -1.36,2.4 -1.9,2.24 -2.58,2.11 -3.13,2.01 -3.54,1.8 -3.84,1.47 -4.13,1.14 -4.33,0.69 -4.44,0.11 -3.82,0.67 -3.11,0.95 -2.3,0.95 -1.34,0.95 -0.57,0.63 0,0 m -1.46,-2.77 v 0.22 c 0,1.15 -0.42,1.72 -1.27,1.72 -0.85,0 -1.27,-0.58 -1.27,-1.75 v -0.11 c 0,-1.14 0.43,-1.72 1.28,-1.72 0.82,0 1.25,0.55 1.26,1.64"/></g><g id="g156" transform="translate(97.98,40.1933)"><path id="path154" style="fill:#ffffff;fill-opacity:1;fill-rule:nonzero;stroke:none" d="m 0,0 c -0.43,-0.96 -1.19,-1.44 -2.27,-1.44 -0.3,0 -0.62,0.05 -0.95,0.14 v 1.64 h 0.3 c 0.32,0 0.57,0.05 0.74,0.14 0.17,0.09 0.3,0.26 0.38,0.5 l 0.18,0.5 -2.57,7.47 h 2.47 L -0.56,4.78 0.67,8.95 H 3.14 L 0.13,0.31 Z"/></g><g id="g160" transform="translate(86.95,44.1433)"><path id="path158" style="fill:#ffffff;fill-opacity:1;fill-rule:nonzero;stroke:none" d="M 0,0 C 0.15,0.37 0.24,0.94 0.28,1.69 L 0.43,5 H 6.26 V -2.4 H 3.96 V 3.22 H 2.58 L 2.46,0.96 C 2.37,-0.16 2.12,-1 1.7,-1.56 1.28,-2.12 0.66,-2.4 -0.17,-2.4 h -0.72 l -0.03,1.76 0.24,0.03 C -0.38,-0.57 -0.15,-0.37 0,0"/></g><g id="g164" transform="translate(81.71,46.4833)"><path id="path162" style="fill:#ffffff;fill-opacity:1;fill-rule:nonzero;stroke:none" d="M 0,0 1.17,2.66 H 4.13 L 1.97,-0.76 4.35,-4.74 H 1.22 l -1.19,2.58 h -0.69 v -2.58 h -2.32 v 7.4 h 2.32 l 0,-2.66 z"/></g></g></g></g></g></g></g></svg>