<svg id="Layer_1" data-name="Layer 1" xmlns="http://www.w3.org/2000/svg" viewBox="0 0 185.1 73.33"><defs><style>.cls-1{fill:#fff;}</style></defs><title>Reprezent black w-o descriptor (white)</title><g id="Layer_2" data-name="Layer 2"><g id="Layer_1-2" data-name="Layer 1-2"><path class="cls-1" d="M83.07,29.39a3,3,0,0,0-2.31.95,3.56,3.56,0,0,0-.9,2.55,3.55,3.55,0,0,0,.9,2.54,3.17,3.17,0,0,0,4.62,0,3.55,3.55,0,0,0,.9-2.54,3.56,3.56,0,0,0-.9-2.55A3.09,3.09,0,0,0,83.07,29.39Z" transform="translate(0 0)"/><path class="cls-1" d="M135.33,29.16a3.09,3.09,0,0,0-2.08.7,3,3,0,0,0-1,1.92h6.21a3.08,3.08,0,0,0-1-1.91A3.17,3.17,0,0,0,135.33,29.16Z" transform="translate(0 0)"/><path class="cls-1" d="M108.11,29.16a3.09,3.09,0,0,0-2.08.7,2.94,2.94,0,0,0-1,1.92h6.2a3,3,0,0,0-1-1.91A3.13,3.13,0,0,0,108.11,29.16Z" transform="translate(0 0)"/><path class="cls-1" d="M.06,0V16.52H0v6.27H51.61a9.22,9.22,0,0,1,3.78.72,5.46,5.46,0,0,1,3.34,5.23,5.34,5.34,0,0,1-3.38,5.18L59,39.19H55l-3.17-4.57H48.3v4.57H0V54.9H.06V73.33H58.71q13.91,0,22.2-3.7A19.22,19.22,0,0,0,91.9,57h.45q6.51,16.16,31,16.15H149q18.39,0,27.25-8.75t8.86-27.8V0ZM73.74,33.92H64.21a3,3,0,0,0,1.22,1.85,4,4,0,0,0,2.39.68,4.72,4.72,0,0,0,1.74-.3A4.13,4.13,0,0,0,71,35.23l1.94,2.11a6.54,6.54,0,0,1-5.2,2,8.21,8.21,0,0,1-3.74-.8,6.11,6.11,0,0,1-2.53-2.3,6.76,6.76,0,0,1,0-6.69,6.11,6.11,0,0,1,2.41-2.32,7.5,7.5,0,0,1,6.78,0A5.76,5.76,0,0,1,73,29.48a6.79,6.79,0,0,1,.85,3.45S73.79,33.31,73.74,33.92Zm15.42,2.37a5.83,5.83,0,0,1-2.26,2.28,6.39,6.39,0,0,1-3.2.8,4.83,4.83,0,0,1-3.79-1.52v5.88H76.25V26.58h3.49V28a4.86,4.86,0,0,1,4-1.64,6.5,6.5,0,0,1,3.2.8,5.83,5.83,0,0,1,2.26,2.28,6.8,6.8,0,0,1,.8,3.45A6.83,6.83,0,0,1,89.16,36.29Zm11.08-6.52-.82-.05A3.38,3.38,0,0,0,97,30.6a3.59,3.59,0,0,0-.89,2.64v5.95h-3.7V26.58h3.5v1.67a4,4,0,0,1,1.76-1.39,6.65,6.65,0,0,1,2.57-.46Zm14.34,4.15H105a3,3,0,0,0,1.22,1.85,4.06,4.06,0,0,0,2.39.68,4.74,4.74,0,0,0,1.75-.3,4.15,4.15,0,0,0,1.41-.92l2,2.11a6.54,6.54,0,0,1-5.2,2,8.25,8.25,0,0,1-3.78-.83,6.17,6.17,0,0,1-2.53-2.3,6.35,6.35,0,0,1-.89-3.35,6.52,6.52,0,0,1,.88-3.34,6.14,6.14,0,0,1,2.42-2.32,7.5,7.5,0,0,1,6.78,0,5.82,5.82,0,0,1,2.35,2.29,6.8,6.8,0,0,1,.86,3.45S114.62,33.31,114.58,33.92Zm12.77,5.27H116.1V37l6.42-7.6h-6.26V26.58h10.87v2.21l-6.41,7.59h6.63Zm14.45-5.27h-9.53a3,3,0,0,0,1.21,1.85,4.06,4.06,0,0,0,2.39.68,4.74,4.74,0,0,0,1.75-.3,4.29,4.29,0,0,0,1.42-.92l2,2.11a6.54,6.54,0,0,1-5.2,2,8.18,8.18,0,0,1-3.77-.83,6,6,0,0,1-2.53-2.3,6.35,6.35,0,0,1-.89-3.35,6.42,6.42,0,0,1,.88-3.34,6.11,6.11,0,0,1,2.41-2.32,7.5,7.5,0,0,1,6.78,0A5.91,5.91,0,0,1,141,29.48a7,7,0,0,1,.85,3.45S141.85,33.31,141.8,33.92Zm15.39,5.27h-3.65V32.53a3.25,3.25,0,0,0-.66-2.23,2.38,2.38,0,0,0-1.9-.74,2.91,2.91,0,0,0-2.2.85A3.57,3.57,0,0,0,148,33v6.23h-3.65V26.58h3.49v1.48a4.86,4.86,0,0,1,1.8-1.23A6.33,6.33,0,0,1,152,26.4a5.18,5.18,0,0,1,3.78,1.4,5.59,5.59,0,0,1,1.41,4.2Zm10.11,0a7,7,0,0,1-1.65.19,5,5,0,0,1-3.48-1.14,4.41,4.41,0,0,1-1.23-3.38V29.68H159V26.86H161V23.8h3.65v3.06h3.14v2.82H164.6v5.13A1.72,1.72,0,0,0,165,36a1.52,1.52,0,0,0,1.16.43,2.4,2.4,0,0,0,1.48-.47l1,2.58a4,4,0,0,1-1.34.64Z" transform="translate(0 0)"/><path class="cls-1" d="M67.28,29.16a3.11,3.11,0,0,0-2.09.7,3,3,0,0,0-1,1.92H70.4a3,3,0,0,0-3.09-2.62Z" transform="translate(0 0)"/></g></g></svg>