<svg width="363" height="50" viewBox="0 0 363 50" fill="none" xmlns="http://www.w3.org/2000/svg">
<g clip-path="url(#clip0_1603_6224)">
<path d="M27.4987 49.1583H1.84381V41.0979H27.6906C31.0798 41.0979 34.0853 38.7377 34.0853 34.8633C34.0853 31.2639 31.0678 28.9627 27.6906 28.9627H15.4606C6.98758 28.9706 0.245117 22.9796 0.245117 14.6048C0.245117 6.30476 7.27933 0.518311 15.7524 0.518311H40.9639V8.71608H15.8323C12.4431 8.71608 9.43758 11.0448 9.43758 14.6166C9.43758 18.4755 12.4591 20.7846 15.8323 20.7846H27.5747C36.0476 20.7846 43.2779 26.6851 43.2779 35.0836C43.2779 43.3955 35.828 49.1031 27.4987 49.1699" fill="white"/>
<path d="M93.4446 0.518311L65.6994 23.1016L93.2326 49.1583H81.2305L58.9209 28.1052L57.0145 26.4373V49.1583H47.8381V0.518311H57.0145V20.4581L80.9507 0.518311H93.4446Z" fill="white"/>
<path d="M104.428 40.8187H132.668V49.1583H95.2512V0.518311H131.961V8.85376H104.428V20.879L130.55 20.8082V28.9391H104.428V40.8187Z" fill="white"/>
<path d="M148.623 40.8187H175.237V49.1583H139.443V0.518311H148.623V40.8187Z" fill="white"/>
<path d="M221.663 49.1583L216.295 36.8576H191.516L186.148 49.1583H177.043L198.434 0.518311H209.521L230.983 49.1583H221.663ZM195.116 28.6598H212.702L203.941 8.5076L195.116 28.6598Z" fill="white"/>
<path d="M276.07 49.1583H264.08L242.046 28.3136V49.162H232.854V0.518311H260.75C269.224 0.518311 275.578 6.32049 275.578 14.4829C275.578 22.5548 269.295 28.2507 260.962 28.3136H260.75L253.408 28.1721L276.07 49.1583ZM242.046 8.71608V20.4621L260.191 20.3912C263.58 20.3912 266.402 18.2749 266.402 14.4907C266.402 10.8442 263.58 8.72396 260.191 8.72396L242.046 8.71608Z" fill="white"/>
<path d="M329.787 32.4497H312.857V49.1129H329.787V32.4497Z" fill="white"/>
<path d="M339.811 22.5779H316.914V45.114H339.811V22.5779Z" fill="white"/>
<path d="M350.804 11.7593H321.937V40.1721H350.804V11.7593Z" fill="white"/>
<path d="M362.245 0.5H327.41V34.7859H362.245V0.5Z" fill="white"/>
</g>
<defs>
<clipPath id="clip0_1603_6224">
<rect width="362" height="49" fill="white" transform="translate(0.245117 0.5)"/>
</clipPath>
</defs>
</svg>
