<?xml version="1.0" encoding="utf-8"?>
<!-- Generator: Adobe Illustrator 26.2.1, SVG Export Plug-In . SVG Version: 6.00 Build 0)  -->
<svg version="1.1" id="Layer_1" xmlns="http://www.w3.org/2000/svg" xmlns:xlink="http://www.w3.org/1999/xlink" x="0px" y="0px"
	 viewBox="0 0 1136 192" style="enable-background:new 0 0 1136 192;" xml:space="preserve">
<style type="text/css">
	.st0{fill:#FFFFFF;}
	.st1{fill-rule:evenodd;clip-rule:evenodd;fill:#FFFFFF;}
</style>
<path class="st0" d="M484.6,152V0h23.8v152H484.6z"/>
<path class="st1" d="M379,151c7.3,3.2,15.7,4.8,25.3,4.8c9.6,0,18-1.6,25.3-4.8c7.3-3.3,13.4-7.7,18.4-13.1
	c5-5.4,8.8-11.5,11.3-18.3c2.6-6.9,3.8-14.1,3.8-21.4V94c0-7.3-1.3-14.5-4-21.4c-2.6-6.9-6.4-13.1-11.5-18.5
	c-5.1-5.5-11.3-9.9-18.6-13.1c-7.1-3.2-15.4-4.8-24.7-4.8c-9.3,0-17.6,1.6-24.9,4.8c-7.3,3.2-13.5,7.5-18.6,13.1
	c-5,5.4-8.8,11.6-11.5,18.5c-2.6,6.9-3.8,14.1-3.8,21.4v4.2c0,7.3,1.3,14.5,3.8,21.4c2.6,6.8,6.3,12.9,11.3,18.3
	C365.6,143.3,371.7,147.6,379,151z M423.3,129.6c-5.3,3.3-11.6,5-19,5c-7.4,0-13.7-1.7-19-5c-5.3-3.5-9.3-8.1-12.1-13.9
	c-2.7-5.8-4-12.3-4-19.5c0-7.3,1.4-13.9,4.2-19.7c2.8-5.8,6.9-10.4,12.1-13.7c5.3-3.5,11.5-5.2,18.8-5.2c7.3,0,13.5,1.7,18.8,5.2
	c5.3,3.3,9.3,7.9,12.1,13.7s4.2,12.4,4.2,19.7c0,7.2-1.4,13.7-4.2,19.5C432.5,121.5,428.5,126.1,423.3,129.6z"/>
<path class="st0" d="M252.7,145.8c8.2,6.4,19.7,9.6,34.4,9.6c9.2,0,17.2-1.5,24-4.4c7-3,12.5-7.3,16.4-12.7
	c3.9-5.4,5.9-11.7,5.9-18.9c0-10-3.6-17.7-10.9-23.3c-7.1-5.7-16.8-9.2-29.1-10.6l-10.7-1c-6.1-0.7-10.4-2.1-13.1-4.4
	c-2.7-2.2-4-5.3-4-9.1c0-4.3,1.8-7.8,5.3-10.6c3.6-2.8,8.8-4.2,15.6-4.2c7.1,0,12.5,1.5,16.2,4.4c3.6,2.9,5.6,6.5,5.9,10.8h21.6
	c-0.3-11.4-4.4-19.9-12.3-25.8c-7.9-6-18.4-8.9-31.3-8.9c-8.4,0-15.8,1.4-22.2,4.2c-6.3,2.8-11.3,6.7-15,11.8
	c-3.6,5.1-5.5,11.4-5.5,18.9c0,9.4,3.2,16.9,9.7,22.4c6.6,5.5,15.5,8.9,26.7,10.2l10.7,1c7.5,0.8,12.9,2.5,16,5
	c3.2,2.4,4.8,5.6,4.8,9.8c0,4.6-2.2,8.4-6.5,11.4c-4.3,3-10.2,4.6-17.8,4.6c-8.9,0-15.3-1.7-19.2-5.2c-3.9-3.5-6-7.3-6.3-11.4H240
	C240.4,130.6,244.6,139.4,252.7,145.8z"/>
<path class="st0" d="M534.7,40v112h23.6V40H534.7z"/>
<path class="st1" d="M632.8,155.7c-7.8,0-15-1.5-21.4-4.4c-6.3-2.9-11.9-7-16.8-12.3c-4.7-5.3-8.4-11.4-10.9-18.3
	c-2.6-6.9-3.8-14.5-3.8-22.6v-3.9c0-8,1.2-15.5,3.6-22.4c2.6-7.1,6.1-13.2,10.7-18.5c4.6-5.3,10-9.4,16.4-12.3
	c6.5-3,13.6-4.6,21.4-4.6c8.4,0,15.8,1.9,22.4,5.6c6.1,3.3,11.1,8.1,15,14.7V0H693v152h-18.8v-22.9c-0.6,1.4-1.3,2.7-2,4
	c-4.3,7.8-9.9,13.5-16.8,17.2C648.5,153.9,641,155.7,632.8,155.7z M637.2,134.8c6.1,0,11.5-1.4,16.4-4.2c5-2.8,9-6.8,11.9-12.1
	c3.1-5.4,4.6-11.7,4.6-18.9v-8.9c0-7.1-1.5-13.1-4.6-18.1c-3.1-5-7.1-8.8-12.1-11.4c-5-2.6-10.4-3.9-16.4-3.9
	c-6.6,0-12.5,1.7-17.6,5c-5,3.2-8.9,7.7-11.7,13.5c-2.8,5.8-4.2,12.6-4.2,20.4c0,7.9,1.4,14.8,4.2,20.6c3,5.8,7,10.3,12.1,13.5
	C624.9,133.2,630.7,134.8,637.2,134.8z"/>
<path class="st1" d="M732.7,192h30.8c13.5,0,26.5-1.2,34.9-4.3c8.4-3.1,16.4-7.8,20.6-16.2c4.3-8.3,6.5-19.3,6.5-32.8V40h-18.8v21.8
	c-0.3-0.7-0.7-1.4-1-2.1c-3.9-7.6-9.3-13.4-16.2-17.2c-6.7-4-14.5-6-23.4-6c-7.7,0-14.8,1.4-21.2,4.2c-6.3,2.8-11.8,6.7-16.4,11.8
	c-4.6,5-8.2,10.9-10.7,17.7c-2.4,6.8-3.6,14.1-3.6,22v3.9c0,7.8,1.2,15.1,3.6,22c2.4,6.8,5.9,12.8,10.3,18.1
	c4.4,5.3,9.8,9.4,16,12.3s13.1,4.4,20.6,4.4c8.4,0,15.8-1.9,22.2-5.6c6.6-3.7,11.9-9.3,15.8-16.6c0.1-0.1,0.1-0.3,0.2-0.4l0.2-0.4
	v10.1c0,8.3-1.3,15-4,20.2c-2.6,5.3-7.2,7.7-12.1,9.2c-5.9,1.8-23.3,2.2-23.3,2.2h-30.8V192z M786.6,127.3
	c-4.8,2.6-10.2,3.9-16.2,3.9c-6.3,0-12-1.5-17-4.4c-4.8-3-8.7-7.3-11.5-12.9c-2.8-5.7-4.2-12.3-4.2-19.9c0-7.5,1.3-14,4-19.5
	c2.8-5.7,6.7-10,11.7-13.1c5-3.2,10.7-4.8,17.2-4.8c5.7,0,10.9,1.2,15.8,3.7c4.9,2.5,8.8,6.2,11.7,11c3.1,4.7,4.6,10.5,4.6,17.5v8.5
	c0,7.1-1.5,13.2-4.4,18.3C795.5,120.6,791.6,124.5,786.6,127.3z"/>
<path class="st1" d="M918.5,152v-21.5c-0.9,2.9-2,5.6-3.4,8c-3,5.3-7.1,9.4-12.5,12.3c-5.3,2.8-11.7,4.2-19.4,4.2
	c-7.9,0-14.9-1.4-20.8-4.2c-5.9-2.9-10.5-7.1-13.7-12.5c-3.2-5.5-4.9-12.1-4.9-19.7c0-8,1.8-14.7,5.5-19.9c3.8-5.3,9.1-9.2,16-11.8
	c6.9-2.6,15.1-3.9,24.7-3.9h24.9v-2.1c0-6.9-1.8-12.2-5.3-15.8c-3.5-3.6-8.7-5.4-15.6-5.4c-3.8,0-7.9,0.1-12.5,0.2
	c-4.6,0.1-9.1,0.3-13.5,0.6c-4.3,0.1-8.2,0.3-11.5,0.6V40c3-0.3,6.2-0.5,9.7-0.6c3.6-0.3,7.3-0.5,11.1-0.6c3.9-0.1,7.6-0.2,11.1-0.2
	c11,0,20.2,1.5,27.5,4.4c7.3,2.9,12.7,7.5,16.2,13.9c3.6,6.2,5.5,14.6,5.5,25.1v70H918.5z M914.7,98.8v11.6
	c-0.3,6.8-1.7,12.1-4.2,15.8c-2.4,3.7-5.5,6.4-9.3,8.1c-3.8,1.5-7.7,2.3-11.9,2.3c-7.1,0-12.6-1.7-16.4-5c-3.8-3.5-5.7-8-5.7-13.7
	c0-5.7,1.9-10.3,5.7-13.7c3.8-3.6,9.2-5.4,16.4-5.4H914.7z"/>
<path class="st0" d="M978.8,149.5c6.2,2.5,13.8,3.7,22.8,3.7h16.4v-21.2h-18.2c-5.5,0-9.8-1.5-12.9-4.6c-3-3.2-4.4-7.7-4.4-13.5
	V58.1h35.6V40h-35.6V8H960v103.9c0,10.4,1.5,18.6,4.6,24.7C967.9,142.7,972.6,147,978.8,149.5z"/>
<path class="st1" d="M1084.5,155.7c-9.4,0-17.7-1.7-24.7-5c-7-3.3-12.7-7.7-17.2-13.1c-4.4-5.5-7.8-11.7-10.1-18.5
	c-2.2-6.9-3.2-14-3.2-21.2V94c0-7.3,1.1-14.4,3.2-21.2c2.3-6.9,5.7-13.1,10.1-18.5c4.4-5.5,10-9.9,16.8-13.1c6.9-3.3,14.8-5,23.8-5
	c11.7,0,21.5,2.6,29.3,7.9c7.8,5.3,13.7,12.1,17.6,20.6c3.9,8.3,5.9,17.3,5.9,27v9.8h-84.1c0.4,5.4,1.5,10.3,3.2,14.8
	c2.3,5.8,5.9,10.5,10.7,13.9c4.8,3.3,11.1,5,18.6,5c7.6,0,13.7-1.7,18.6-5c4.8-3.5,7.8-7.5,8.9-12.1h22c-1.5,7.6-4.5,14.3-9.1,19.9
	c-4.5,5.7-10.1,10-17,13.1C1101,154.2,1093.2,155.7,1084.5,155.7z M1055.2,75.5c-1.2,2.9-2,6.1-2.6,9.6h60.5
	c-0.5-4.1-1.5-7.7-2.9-11c-2.3-5.5-5.7-9.8-10.1-12.7c-4.4-3-10-4.6-16.8-4.6c-7,0-12.9,1.7-17.6,5
	C1061,65.1,1057.5,69.7,1055.2,75.5z"/>
<path class="st0" d="M534.7,0v24.5h23.6V0H534.7z"/>
<g>
	<rect x="72" y="72" class="st0" width="48" height="48"/>
	<path class="st0" d="M0,0v192h192V0H0z M152,120h-32v32H40V72h32V40h80V120z"/>
</g>
</svg>
