<svg xmlns="http://www.w3.org/2000/svg" xmlns:xlink="http://www.w3.org/1999/xlink" version="1.1" id="Layer_1" x="0px" y="0px" style="enable-background:new 0 0 850.39 595.28;" xml:space="preserve" viewBox="362.68 221.74 125.03 151.82">
<style type="text/css">
	.st0{fill:#095FA8;}
</style>
<g>
	<path class="st0" d="M400.55,252.73c0.07,0.01,0.15,0.02,0.22-0.02c0.14-0.17,0.34-0.3,0.27-0.56c0.58-0.66,0.99-1.77,0.65-2.73   c-0.21-0.45-0.62-0.41-1.04-0.37c-0.3,0.03-0.59,0.05-0.81-0.1l-0.01-0.28l-7.59-3.03c-0.35-1.62-1.14-3.01-1.81-4.44   c-0.22-3.3-3.07-5.51-3.03-8.77c0.41-0.62,0.9-0.54,1.4-0.46c0.28,0.04,0.56,0.09,0.83,0.01c0.37-0.29,0.57-0.51,0.4-1.06   c0.16-0.11,0.19-0.44,0.46-0.47c0.06-0.75-0.1-1.59,0.82-1.81c-0.3-0.61-0.77-1.13-0.86-1.89c0.56-1.12-0.21-2.57-0.15-3.73   c-1.14-0.43-2.4-1.32-3.68-1.28c-0.56,0.02-1.11,0.21-1.67,0.7c-1,1.13-1.64,2.34-1.6,3.53c0.01,2.32,0.36,2.4,0.58,3.97   c-0.34,0.32-0.34,1.19-1.01,0.85c-0.86,1.1-1.86,2.35-2.81,3.5c-2.95,2.69-7.09,5.22-7.59,9.63c0.26,3.33,0.33,6.57,0.23,9.95   c0.12,0.01,0.25,0,0.37-0.01c0.23-0.02,0.46-0.04,0.62,0.09c-0.05,0.06-0.07,0.11-0.1,0.17h-0.02c0.01,0.19,0.01,0.35-0.02,0.54   l0.25-0.01c0.48,1.04,0.06,2.54,0.35,3.66c0.27,0.38,0.17,1.18,0.75,1.21c-0.01-0.14-0.04-0.32,0.09-0.43l0.51,0.94   c0.32,0.16,0.34-0.26,0.49-0.41c0.23,0.12,0.08,0.46,0.13,0.68c0.12,0.15,0.25,0.35,0.51,0.26l0.14-2.87   c0.34,0.84,0.33,1.89,0.46,2.85l0.26-0.01c0.44-0.41,0.19-1.1,0.24-1.66c-0.17-1.69,0.06-3.13-0.67-4.58   c0.23-0.19,0.31-0.4,0.26-0.72c0.16-0.04,0.19-0.3,0.39-0.26c0.48-3.01,0.27-6.45,0.36-9.41l1.02-0.84   c0.95,4.26,0.19,8.7-0.55,12.94c0.27,0.76,0.53,1.7,0.23,2.59l-0.03,1.63l0.13-0.01l0.03-0.73c0.05,1.6-0.49,3.59,0.67,4.38   c-0.02,4.14-0.04,8.26-0.63,12.13c-2.47,5.98-6.26,11.99-5.76,18.72l2.93-0.02l0.31-0.68c2.58,0.39,5.52,1.08,7.71-0.72   c-0.29-1.43-2.34-0.77-3.35-1.45c-0.49-0.27-1.09-0.54-1.43-1.02l-0.47-0.05c0.68-3.05,2.23-5.75,3.58-8.48   c3.88-4.89,3.66-11.48,4.35-17.69c0.14-0.26,0.39-0.32,0.64-0.3c0.18-0.02,0.4-0.03,0.64-0.03c0.79-0.01,1.71-0.02,1.49-0.85   c3.73,0.27,6.8,2.17,10.5,2.67c-0.07,0.39-0.32,0.71-0.42,1.08c-0.06,0.97-0.09,1.91-0.14,2.85l-0.01,0.72   c-0.12,4.77-0.1,7.52,0.83,12.09l2.61-0.08l0.27-0.67c2.47-0.18,5.37,0.12,7.67-1.5c-0.44-1.38-2.42-0.49-3.52-1.09   c-0.61-0.3-1.48-0.6-1.73-1.32c-0.25-4.89,0.08-9.97,0.96-14.76c-3.69-4.94-8.89-5.99-13.54-8.42c0.18-0.56,0.01-0.41,0.31-0.91   c-1.23,0-1.97-1-3.03-0.65c-0.22-1.21-0.36-2.67-0.09-3.94c0.34,0.27,0.74,0.39,0.99,0.78c2.39,0.87,5.04,1.11,7.36,2.24l0.87-0.59   "/>
	<path class="st0" d="M362.68,345.57h28.47v-50.93h-28.47V345.57z M384.88,334.03c-0.49,0.99-1.43,1.82-2.83,2.49   c-1.4,0.67-3.03,1-4.88,1c-2.04,0-3.78-0.38-5.21-1.16c-1.44-0.77-2.38-1.75-2.83-2.95c-0.45-1.19-0.67-2.89-0.67-5.08v-1.92h7.07   v3.56c0,1.1,0.1,1.8,0.3,2.12c0.2,0.31,0.55,0.47,1.06,0.47c0.51,0,0.88-0.2,1.13-0.6c0.25-0.4,0.37-0.99,0.37-1.77   c0-1.72-0.23-2.85-0.71-3.38c-0.48-0.53-1.67-1.42-3.56-2.66c-1.89-1.25-3.15-2.16-3.76-2.73c-0.62-0.57-1.12-1.35-1.53-2.35   c-0.4-1-0.61-2.28-0.61-3.83c0-2.24,0.29-3.88,0.86-4.92c0.57-1.04,1.5-1.85,2.78-2.43c1.28-0.58,2.82-0.88,4.63-0.88   c1.98,0,3.66,0.32,5.05,0.96c1.39,0.64,2.32,1.44,2.77,2.41c0.45,0.97,0.68,2.62,0.68,4.95v1.16h-7.07v-2.17   c0-1.01-0.09-1.66-0.27-1.93c-0.18-0.28-0.48-0.41-0.91-0.41c-0.46,0-0.8,0.19-1.04,0.56c-0.23,0.38-0.35,0.94-0.35,1.7   c0,0.98,0.13,1.71,0.4,2.21c0.25,0.5,0.97,1.09,2.15,1.79c3.39,2.01,5.52,3.66,6.4,4.95c0.88,1.29,1.32,3.37,1.32,6.24   C385.61,331.51,385.37,333.04,384.88,334.03"/>
	<path class="st0" d="M394.79,345.57h28.46v-62.44h-28.46V345.57z M417.69,313.12h-4.71v24.38h-7.93v-24.38h-4.69v-6.1h17.32V313.12   z"/>
	<path class="st0" d="M426.91,345.57h28.46v-74.31h-28.46V345.57z M448.23,337.52h-13.09v-30.5h12.56v6.11h-5.29v5.79h4.96v5.8   h-4.96v6.71h5.82V337.52z"/>
	<path class="st0" d="M472.64,312.22v7.76c0.23,0.01,0.42,0.02,0.58,0.02c0.73,0,1.24-0.18,1.52-0.54c0.28-0.36,0.42-1.1,0.42-2.23   v-2.51c0-1.04-0.16-1.72-0.49-2.04C474.35,312.38,473.67,312.22,472.64,312.22"/>
	<path class="st0" d="M459.02,345.57h28.46v-85.82h-28.46V345.57z M481.8,318.2c0,1.95-0.2,3.37-0.6,4.26   c-0.4,0.89-1.14,1.58-2.21,2.05c-1.07,0.48-2.48,0.72-4.21,0.72h-2.13v12.29h-7.25V307h7.3c2.16,0,3.82,0.17,4.98,0.51   c1.16,0.34,2.04,0.83,2.62,1.47c0.59,0.64,0.98,1.42,1.19,2.33c0.21,0.91,0.31,2.32,0.31,4.23V318.2z"/>
	<rect x="362.68" y="351.85" class="st0" width="5.57" height="21.25"/>
	<polygon class="st0" points="381.69,351.85 381.69,356.1 378.39,356.1 378.39,373.1 372.82,373.1 372.82,356.1 369.53,356.1    369.53,351.85  "/>
	<path class="st0" d="M397.36,351.85l3.18,21.25h-5.69l-0.3-3.82h-1.99l-0.33,3.82h-5.75l2.84-21.25H397.36z M394.41,365.51   c-0.28-2.41-0.56-5.38-0.85-8.92c-0.57,4.07-0.92,7.04-1.07,8.92H394.41z"/>
	<path class="st0" d="M414.48,361.1h-5.57v-3.69c0-1.07-0.06-1.74-0.18-2.01c-0.12-0.27-0.38-0.4-0.79-0.4   c-0.46,0-0.75,0.16-0.87,0.49c-0.12,0.32-0.18,1.02-0.18,2.1v9.87c0,1.03,0.06,1.71,0.18,2.02c0.12,0.32,0.4,0.47,0.83,0.47   c0.42,0,0.69-0.16,0.81-0.47c0.13-0.31,0.19-1.06,0.19-2.22v-2.67h5.57v0.83c0,2.2-0.16,3.76-0.47,4.68   c-0.31,0.92-1.01,1.73-2.08,2.42c-1.07,0.69-2.39,1.04-3.96,1.04c-1.63,0-2.97-0.29-4.03-0.88c-1.06-0.59-1.76-1.4-2.1-2.43   c-0.34-1.04-0.51-2.6-0.51-4.68v-6.21c0-1.53,0.05-2.68,0.16-3.45c0.11-0.77,0.42-1.5,0.95-2.21c0.52-0.71,1.25-1.27,2.18-1.67   c0.93-0.41,2-0.61,3.21-0.61c1.64,0,2.99,0.31,4.06,0.94c1.07,0.63,1.77,1.41,2.1,2.35c0.33,0.94,0.5,2.4,0.5,4.38V361.1z"/>
	<path class="st0" d="M426.1,351.85l3.18,21.25h-5.69l-0.3-3.82h-1.99l-0.33,3.82h-5.75l2.84-21.25H426.1z M423.15,365.51   c-0.28-2.41-0.57-5.38-0.85-8.92c-0.57,4.07-0.92,7.04-1.07,8.92H423.15z"/>
	<path class="st0" d="M430.23,351.85h4.17c2.69,0,4.5,0.12,5.45,0.37c0.95,0.25,1.67,0.65,2.16,1.21c0.49,0.56,0.8,1.18,0.93,1.87   c0.12,0.69,0.19,2.04,0.19,4.05v7.44c0,1.91-0.09,3.18-0.27,3.83c-0.18,0.64-0.5,1.15-0.94,1.51c-0.45,0.36-1.01,0.62-1.67,0.76   c-0.66,0.15-1.66,0.22-2.99,0.22h-7.02V351.85z M435.79,355.49v13.98c0.8,0,1.3-0.16,1.48-0.48c0.19-0.32,0.28-1.19,0.28-2.6v-8.25   c0-0.96-0.03-1.58-0.09-1.85c-0.06-0.27-0.2-0.47-0.42-0.6C436.82,355.55,436.4,355.49,435.79,355.49"/>
	<polygon class="st0" points="445.19,351.85 454.48,351.85 454.48,356.1 450.76,356.1 450.76,360.13 454.24,360.13 454.24,364.17    450.76,364.17 450.76,368.85 454.85,368.85 454.85,373.1 445.19,373.1  "/>
	<path class="st0" d="M473.62,351.85v21.25h-4.86l-0.01-14.34l-1.94,14.34h-3.45l-2.04-14.01l-0.01,14.01h-4.86v-21.25h7.2   c0.21,1.28,0.43,2.78,0.66,4.52l0.79,5.41l1.28-9.92H473.62z"/>
	<path class="st0" d="M487.71,351.85l-4.06,13.55v7.69h-5.16v-7.69l-3.91-13.55h5.11c0.8,4.15,1.25,6.94,1.35,8.37   c0.31-2.27,0.83-5.06,1.55-8.37H487.71z"/>
</g>
</svg>