<svg width="394" height="121" viewBox="0 0 394 121" fill="none" xmlns="http://www.w3.org/2000/svg">
<mask id="mask0_1603_6235" style="mask-type:luminance" maskUnits="userSpaceOnUse" x="0" y="0" width="394" height="121">
<path d="M0.145996 0.5H393.854V120.5H0.145996V0.5Z" fill="white"/>
</mask>
<g mask="url(#mask0_1603_6235)">
<path d="M321.778 73.3725C329.877 71.1511 331.4 65.1002 331.587 61.6927C331.838 57.1436 329.258 53.6008 326.972 51.9471C324.954 50.3759 322.089 49.6805 317.666 49.6805L304.087 49.7076L296.398 89.0254H305.018L311.152 57.0451H316.232C320.239 57.0451 323.079 57.3782 323.106 61.6858C323.126 64.8629 321.124 66.8268 316.985 67.6929C314.362 68.2419 311.56 68.7422 310.303 68.9622L320.694 89.0254H329.736L321.162 73.5419L321.778 73.3725Z" fill="#EFEFEF"/>
<path d="M134.114 49.6817L130.069 71.3417C129.838 72.568 129.665 74.1988 129.665 76.126C129.723 79.6258 131.92 82.4899 136.254 82.4899C141.344 82.4899 144.643 79.1636 146.091 71.3417L150.138 49.6817H158.872L154.819 71.2251C152.395 83.95 146.72 89.7275 135.155 89.7275C126.539 89.7851 120.987 85.3526 120.987 76.126C120.987 74.3737 121.219 72.5097 121.508 70.8156L125.444 49.6817H134.114Z" fill="#EFEFEF"/>
<path d="M159.418 89.0247L166.763 49.6812H177.639L183.482 64.5096C185.27 69.4702 186.428 73.6126 187.527 78.3456H187.701C187.76 74.3718 188.279 70.8734 189.324 65.3854L192.211 49.6812H200.541L193.195 89.0247H183.713L177.523 72.9693C175.673 67.7165 174.339 63.867 173.126 59.0798H172.894C172.489 62.8746 171.566 68.1259 170.466 74.1386L167.689 89.0247H159.418Z" fill="#EFEFEF"/>
<path d="M217.543 49.6809L210.143 89.0244H201.465L208.869 49.6809H217.543Z" fill="#EFEFEF"/>
<path d="M248.064 88.8668C246.387 89.2575 244.131 89.7349 239.222 89.7322C228.757 89.7266 220.021 84.19 220.021 71.9321C220.021 63.2899 224.243 56.6929 230.66 52.8954C234.945 50.2721 239.857 48.9868 245.875 48.9868C250.846 48.9868 252.842 49.8495 254.91 50.5886L253.444 57.8837C252.229 57.3015 249.059 56.4 245.122 56.4C241.306 56.4 237.776 57.3924 235.177 59.373C231.702 61.8284 229.511 65.9708 229.511 71.1729C229.511 77.8858 233.727 82.3197 241.596 82.3197C244.774 82.3197 247.185 82.2149 249.501 81.2218L248.064 88.8668Z" fill="#EFEFEF"/>
<path d="M272.333 82.4965C275.342 82.4965 278.117 81.2098 280.2 79.0536C283.034 76.2492 284.709 71.8722 284.709 67.2572C284.709 61.5374 282.517 56.2256 275.228 56.2256C272.043 56.2256 269.329 57.5685 267.187 59.7247C264.234 62.7061 262.562 67.1392 262.562 71.5225C262.562 78.1778 265.738 82.4965 272.275 82.4965H272.333ZM271.06 89.7327C260.422 89.7327 253.191 82.9045 253.191 72.1651C253.191 65.3342 255.795 59.4325 260.132 55.2915C264.175 51.324 269.902 48.9873 276.212 48.9873C287.141 48.9873 294.083 55.6996 294.083 66.7298C294.083 73.4434 291.651 79.2882 287.374 83.4306C283.378 87.3967 277.71 89.7327 271.117 89.7327H271.06Z" fill="#EFEFEF"/>
<path d="M333.243 89.0259L340.588 49.6817H351.459L357.3 64.5115C359.095 69.4714 360.25 73.6145 361.352 78.3454H361.524C361.582 74.373 362.103 70.8747 363.137 65.3866L366.033 49.6817H374.364L367.017 89.0259H357.532L351.343 72.9705C349.49 67.7184 348.166 63.8682 346.952 59.0818H346.72C346.314 62.8765 345.389 68.1286 344.288 74.1392L341.516 89.0259H333.243Z" fill="#EFEFEF"/>
</g>
<path d="M98.4299 74.6033C97.9314 75.7768 99.4688 76.4486 98.9291 77.6221C98.5956 78.7131 99.3444 79.4258 100.341 79.3418C100.756 79.049 101.712 79.1746 101.628 78.4612C101.919 76.4063 99.759 75.4423 98.4299 74.6033ZM81.7746 50.3651C80.7783 50.9099 78.9088 50.4075 78.785 51.9592C79.989 52.2097 81.5264 51.4561 82.5639 52.1688C81.567 53.0488 79.573 53.1751 79.4898 54.6852C80.6119 55.0197 81.2349 56.7817 82.3976 56.9913C83.8511 56.4035 86.7596 57.1169 87.049 54.8948C85.2221 53.3423 84.89 49.9883 81.7746 50.3651ZM124.18 31.5366C122.809 30.5726 120.318 30.5726 118.989 32.0397C116.768 33.3187 120.693 33.4242 121.606 33.4652C123.018 33.4652 123.516 32.6261 124.18 31.5366ZM117.203 35.1856C115.625 35.3528 114.877 33.5915 113.216 33.969C112.219 33.9267 111.097 34.765 110.641 35.688C111.431 36.0655 112.634 36.5263 113.63 36.9878C115.085 36.8199 116.539 36.6533 117.203 35.1856ZM108.149 37.8692C106.943 37.0302 105.407 36.9462 103.87 36.9878C101.71 37.1565 101.42 39.0851 100.132 40.092C102.126 41.0775 101.71 41.0775 103.309 41.2864C104.93 40.8249 107.732 39.5042 108.149 37.8692ZM98.4704 42.6077C94.9603 40.0289 93.8183 40.0504 91.7005 41.7271C91.7005 41.7271 94.2336 44.3267 90.6203 43.9083C90.6203 43.9083 92.3654 44.9555 92.5311 45.5426C95.2725 45.7945 95.9374 44.8306 96.8931 43.5301C97.4322 43.0269 97.7643 43.1733 98.4704 42.6077ZM90.9944 55.1876C89.5401 54.1814 87.8377 53.9718 86.7162 52.6712C87.5475 51.4144 88.834 52.8808 89.9142 52.9648C90.1225 52.7975 90.7455 52.9648 90.5791 52.4624C89.5821 49.8203 85.5948 51.9592 84.5146 49.4435C85.7193 48.2686 88.1292 49.3172 89.208 48.5628C88.9186 47.7238 87.7957 47.5982 87.0896 47.1367C85.9269 47.0104 84.8055 47.4303 84.0168 46.8431C85.0124 45.7529 86.4667 45.5849 87.9209 45.8362C87.2141 44.2428 85.0124 45.5426 83.8085 44.7473C82.3969 45.9208 79.696 45.5003 79.4478 47.9334C79.0318 48.8141 77.9523 49.5684 76.9554 49.2756C75.585 49.5261 75.8339 51.0362 75.1278 51.8752C74.5468 51.7073 74.214 52.2097 73.7567 52.3784C73.2177 53.7622 75.1278 53.4263 75.4599 54.4749C74.1308 55.4812 72.3039 55.1037 70.642 55.1876V56.1946C69.48 57.0329 68.3159 55.6484 67.1532 55.3139C64.6195 53.6366 66.2394 57.3265 65.7822 58.3342C67.0707 60.0525 64.5363 60.5133 65.076 62.4426C65.9073 65.1679 65.9905 68.5226 68.4823 70.2839C68.7319 67.0555 66.6135 63.6584 68.3572 60.5133C68.6906 60.7659 69.2297 60.0525 69.48 60.7236C69.0221 64.1206 69.6037 67.6843 71.2649 70.4102C71.639 70.5358 72.3039 70.7878 72.5528 70.4102C72.1794 68.5649 71.639 66.678 71.8466 64.7494C72.5108 64.1206 72.8024 62.7361 73.9651 63.1553C73.7155 66.3837 75.0865 69.1937 75.4599 72.2979C76.4569 73.0099 76.5291 74.8864 77.4539 75.1071C77.3713 74.3937 77.2462 73.638 76.7484 73.0932C76.7065 71.8773 76.2499 70.4942 77.1211 69.5712C78.4921 71.1236 78.4921 73.2611 79.6129 74.9392C81.6075 76.4902 79.2395 73.681 79.738 72.8003C79.6129 71.3749 78.2019 69.8648 79.6129 68.5649C81.3064 72.2139 81.3799 72.8711 81.8145 73.6289C82.5 74.4673 82.6568 71.9516 83.5706 75.6519C85.2517 76.4063 82.916 72.2139 84.8055 72.8531C85.46 72.6324 85.4078 73.2611 85.5116 74.2251C86.1346 76.3015 86.3945 77.0357 87.0064 78.7547C87.3282 79.3946 87.6926 79.3418 88.471 79.4681C89.2053 79.328 88.2399 81.6306 88.8642 82.9693C89.3538 83.4829 89.7945 83.7785 89.7945 83.7785L90.247 84.3212C90.5481 84.7938 90.5997 84.8465 90.9112 85.0873C92.3654 87.2047 92.3654 86.68 94.5664 86.5961C94.8978 86.764 94.5664 86.1353 94.5664 85.884L92.4582 83.6508C91.6902 82.5397 91.4516 79.9289 90.4952 78.965C90.1638 78.4612 89.4569 78.9747 89.3744 78.0621C87.63 76.6783 90.7035 76.2814 90.8699 75.232C91.7005 74.9808 92.386 75.7567 93.0502 76.2598C93.6113 78.0843 95.8954 78.3987 96.8931 80.5577C97.7643 82.1719 98.6987 83.5349 100.152 84.1026C102.021 84.7938 102.333 83.6397 103.662 82.8638C107.318 79.8665 104.451 78.3772 103.953 76.4486C104.12 74.5193 101.918 73.597 100.671 72.8003C100.568 71.7933 101.191 71.3749 99.9652 70.9141C97.9713 70.6615 96.3933 69.2776 94.8978 68.0618C93.6519 67.1811 91.4929 66.9708 91.202 65.3781C93.2785 64.9159 94.8159 66.7612 96.768 66.678C96.975 64.8743 95.1893 64.9999 94.1923 63.952C94.0266 63.1553 93.403 62.7361 92.7807 62.233C92.3235 61.0164 93.7351 62.065 94.2748 61.7292C95.0222 59.3814 90.9112 58.795 92.406 56.6138C92.1158 56.0267 91.5334 55.4396 90.9944 55.1876ZM96.1856 84.0804C95.4795 82.1095 94.2336 80.7055 92.7807 79.049C93.1548 80.6 93.8705 82.9582 94.7946 83.2837C95.3763 83.4093 95.6465 84.3323 96.1856 84.0804ZM71.4726 85.884C69.064 85.6745 67.1945 84.3323 64.8691 83.9964C61.0062 81.523 56.3548 80.2641 53.4057 76.1134C53.8623 75.1071 52.4912 73.9745 53.8203 73.4298C55.399 75.4 57.3098 76.6589 59.0948 78.5451C59.8428 78.7971 60.7154 78.7971 61.2971 79.4681C63.7057 79.3002 64.8691 81.607 67.1532 81.7736C68.1089 82.5293 69.8526 82.0255 70.9748 82.0678C70.8916 81.691 71.1412 81.1865 70.7671 80.9776C64.9523 79.049 59.3863 76.6589 54.402 72.5068C54.7348 71.8773 54.6097 71.039 54.9005 70.4102C55.9388 70.5775 56.6869 71.1653 57.393 71.7094C59.1367 73.9322 62.0452 74.8136 64.1636 76.4486C66.1988 76.4063 67.5692 78.2932 69.5632 77.958C70.2274 76.8685 68.7738 76.4902 68.8563 75.4423C65.9486 74.8552 62.959 74.1418 60.5077 72.7163C58.4306 71.3325 55.7304 70.4519 54.818 67.9778C54.7348 67.4754 55.2326 67.0125 55.6899 67.0555C56.3548 67.2221 56.4785 67.8938 56.6869 68.397C58.7633 70.075 61.0062 71.2486 63.3736 72.2139C64.0797 72.2548 64.8278 72.1292 65.492 72.2979C65.9073 72.1716 65.492 71.7524 65.492 71.4998C63.9133 70.6198 62.6674 68.9834 61.0887 68.1881C59.5939 67.2221 57.5587 67.517 56.1884 66.1741C55.9807 65.4621 56.1471 64.4135 56.603 63.7424C58.0572 65.1679 59.8023 66.7613 61.8781 65.755C61.92 65.0839 61.5047 64.5814 61.1719 64.036C60.1756 62.4842 56.5617 62.4002 57.6832 59.8422C59.0948 59.9685 60.0924 62.065 61.8781 61.1427C62.1277 58.6687 58.8878 57.956 58.6801 55.6908C60.4665 54.5172 60.965 57.3681 62.8758 56.9073C63.2072 55.4396 62.3759 53.7199 62.1689 52.0848C63.7057 50.8683 62.2521 49.1916 62.2934 47.7654C62.543 45.9618 64.6614 46.0041 64.495 44.0325C63.9965 41.811 64.2874 39.6722 63.7889 37.4917C61.5872 38.2884 61.4215 41.2663 61.0887 43.5301C60.0924 45.2498 62.2102 46.5496 61.1719 48.1423C60.7154 48.1423 60.3407 47.8487 60.0092 47.4303C59.345 43.5717 59.6359 39.2947 61.6704 36.1911C61.5872 35.9816 61.3803 35.6464 61.0887 35.772C58.6802 36.8622 57.9327 39.5042 57.8908 42.0199C58.1404 43.9916 58.0991 46.1714 59.0948 47.7654C59.0535 48.0167 58.9291 48.3942 58.5138 48.2686C56.396 46.5079 56.396 43.8659 55.8143 41.5168C54.6097 42.8597 54.6097 45.0395 54.1119 46.8431C54.0699 47.4719 54.7348 48.059 54.1944 48.6461C54.6516 50.9099 54.9005 53.259 55.6067 55.3965C55.399 55.7331 55.0669 55.7748 54.6929 55.8171C54.3181 55.1037 53.2806 54.6429 53.5302 53.6789C52.2829 51.9176 52.5744 49.5261 52.1179 47.4303C52.0347 47.8918 51.4949 48.1423 51.4117 48.5628C50.7056 50.6587 50.1246 53.8038 51.9102 55.6068C51.9515 56.949 53.0729 57.5354 53.5302 58.711C53.2806 60.0108 54.7761 60.8499 54.1944 62.0234C53.3638 61.9811 52.408 61.4356 51.6194 60.9332C51.2034 57.4112 48.6284 54.7678 48.4214 51.1625C48.0474 48.6461 47.6727 45.9618 46.7183 43.8236C46.4687 45.9618 46.3862 48.6461 46.4275 51.1625C46.3862 53.3847 47.5902 55.062 47.2168 57.4112C48.0474 57.9969 48.5452 60.2197 48.5452 60.2197L49.1269 61.4356C49.1269 61.4356 51.2034 64.5391 51.9102 66.3837C52.2004 66.4261 52.2004 67.0125 51.9102 67.1811C49.8331 66.51 48.2963 65.2102 47.9223 62.9457C45.1396 59.6326 45.3892 55.062 44.4342 50.9522C44.0601 49.1493 44.8488 47.4303 44.0601 45.8362C43.6448 46.5079 43.2288 47.1783 43.2288 48.059C43.6448 52.2944 42.9799 57.0746 45.3473 60.4293C45.6381 63.4489 48.1719 65.5044 47.8391 68.7752C49.4597 69.6128 48.2963 71.7933 49.6261 72.8003C49.9994 73.2195 49.252 73.3874 49.0444 73.513C48.7536 73.3451 48.3383 73.0515 48.3383 72.7163C47.0504 72.0453 48.1361 70.3471 46.5155 69.8016C46.2666 66.4052 43.1876 63.8264 43.2288 60.4293C41.0692 57.1586 42.0661 53.9718 41.2355 50.2818C40.6126 51.4561 40.4043 53.5519 40.6545 55.3139C42.0661 59.9685 41.4439 66.3213 45.4305 69.5087C45.4724 70.0112 45.8045 71.1445 45.1396 71.2284C43.8525 69.1735 42.6478 67.5586 41.0691 65.6724C40.4462 61.8555 39.0759 58.0399 38.9514 53.9718C38.6186 54.3909 38.6186 54.9781 38.3697 55.3965C38.9514 59.6743 39.5331 63.9943 40.5713 68.0618C40.6126 68.2721 40.8622 68.5226 41.0691 68.5649C41.4844 70.4102 42.938 71.8773 43.4372 73.597C43.5197 73.7643 43.2708 73.7643 43.354 73.9322C45.2641 75.7768 45.6794 78.3772 47.5489 80.1385C48.0474 81.3551 48.9612 82.5293 49.0444 83.7868C48.6284 83.9548 48.2131 83.4933 47.8391 83.3677C45.5549 80.8929 43.9769 77.5805 41.8585 75.0225C40.9454 71.1653 38.8682 67.7682 37.8712 63.952C37.4979 62.988 38.2453 61.6042 37.1658 61.3523C37.4147 66.7612 38.2865 71.5845 40.8622 76.0287C42.357 77.7908 42.8562 80.0546 44.725 81.5647C45.5144 82.3621 45.5549 83.7022 46.8434 84.1643C47.0504 84.5412 46.8847 84.9604 46.5519 85.1706C44.7663 84.2067 43.4784 82.6966 42.357 81.2711C40.8622 81.1025 40.779 79.4681 40.4462 78.3362C38.1208 76.0711 37.7055 72.842 36.252 70.075C36.6253 72.3812 37.207 74.5193 37.9544 76.6159C40.4462 80.4321 41.9417 84.6675 46.1366 87.3935C46.345 88.4844 47.6314 88.1909 48.0474 89.1125C47.0917 90.5393 47.1955 89.9307 46.1366 88.9029C43.8937 87.2672 41.0691 84.7098 38.9514 82.5703C37.9125 81.3128 37.4979 79.5098 36.4589 78.5451C36.3345 80.0546 37.0826 81.1448 37.3727 82.487C39.4499 86.0936 42.3989 89.6156 45.4305 92.8447C45.1816 93.223 44.5999 93.1799 44.2265 93.0543C42.6478 91.293 40.2812 90.6642 39.5743 88.3165C37.4559 87.1422 36.9574 84.4579 35.2543 82.6549C35.5039 87.5614 38.8682 92.216 43.0624 94.1446C43.6029 94.6054 43.1044 95.7803 43.9357 95.8636C44.351 95.1099 45.2228 95.0669 45.8458 94.5637C49.3352 95.0245 52.6164 94.815 55.3158 92.7191C53.3218 91.5449 50.4979 90.7898 50.5392 87.8959C50.7056 87.7287 50.9545 87.1839 51.3285 87.5191C51.7851 87.771 52.2004 88.2741 52.3248 88.8189C54.402 89.5726 56.022 91.3353 58.597 91.2104C61.546 91.0834 57.6832 90.0348 57.1847 89.406C54.7761 88.2325 52.6576 85.7994 51.0377 83.8708C51.2453 83.1581 51.2034 82.1941 51.9102 81.7736C54.6929 86.2616 59.3031 88.4421 63.8721 89.1125C64.0797 88.9029 64.4531 88.7349 64.1636 88.4004C60.7154 87.2672 57.5175 85.3386 54.6929 82.7805C54.0287 81.648 52.2423 81.8166 52.1179 80.2641C52.4493 79.3418 51.8683 77.958 52.6164 77.3293C57.0602 83.3677 63.7057 86.8903 70.7671 87.0159C71.1817 86.8903 71.639 86.4281 71.4726 85.884ZM42.357 95.9475C40.4043 94.019 38.1208 92.4256 36.1688 90.329C35.2543 93.0127 37.8712 94.6893 39.0759 96.7442C39.4086 96.9538 39.8232 97.0808 40.2385 97.0808C41.0279 96.8282 42.6478 97.2474 42.357 95.9475ZM38.2453 97.2474C36.6253 96.5354 36.0024 94.5214 34.5901 93.5581C33.9252 94.3965 35.2543 95.9052 34.5901 96.7866C32.8876 96.2404 33.1778 93.5998 32.3891 92.4256C30.9762 92.8031 31.4334 94.4374 30.4777 95.2348C30.1875 95.4444 29.9799 95.1932 29.8967 94.942C30.5196 92.8031 29.9798 89.6579 32.8876 89.0285C33.9252 87.8543 32.264 88.9445 31.9731 88.3165C31.7648 87.687 32.3472 87.3935 32.4716 86.8903C31.8067 86.1353 31.1432 83.4509 29.689 85.1706C28.734 86.3032 28.9409 88.0639 29.4814 89.3221C30.4777 92.5935 25.6185 94.3965 27.7789 97.6672C31.3089 97.7096 34.7565 97.6256 38.1627 97.4577C38.204 97.416 38.2865 97.373 38.2453 97.2474ZM25.9919 94.4374C26.7819 93.223 27.3629 91.5449 27.4049 89.8266C25.7849 90.3707 25.5766 92.1736 25.2864 93.7261C25.536 93.9766 25.4109 94.7317 25.9919 94.4374ZM25.2864 81.4807C25.9919 79.845 27.9027 78.7131 28.2774 76.9517C28.6088 75.9031 27.695 74.8975 27.9859 74.0162C27.8202 73.8066 27.6538 73.7219 27.4049 73.7219C26.7819 74.6456 26.4079 75.6929 25.6185 76.5319C25.4941 78.1683 24.4978 79.9289 25.2864 81.4807ZM25.9919 72.4228C25.0788 71.9613 24.4551 72.9266 23.7077 73.2195C22.7946 74.1002 22.8359 75.5263 23.0016 76.7422C23.3344 77.0357 23.1267 77.8317 23.7902 77.7484C24.7047 76.1134 25.2864 74.1841 25.9919 72.4228ZM23.5008 70.2839C24.3307 71.4998 25.2445 69.6968 26.4911 70.2839C25.9919 69.152 27.2797 66.678 25.2864 66.678C23.9154 67.3491 24.0405 69.0674 23.5008 70.2839ZM24.4978 62.5265C24.6215 62.6945 24.6215 63.113 24.9131 63.029C25.6185 62.9457 25.2025 62.1907 25.2864 61.7292C26.117 59.9269 26.6155 57.956 26.7819 55.9011C24.7047 57.2849 23.542 59.8845 24.4978 62.5265ZM26.7819 52.8808C29.2318 49.9466 29.8547 45.7106 33.5931 43.3205V43.0269C32.4304 42.4821 31.7648 44.4531 30.4777 44.2428C27.5286 46.0464 26.7819 49.4851 26.7819 52.8808ZM31.8899 40.888C33.4274 40.972 34.5481 39.6298 35.9604 39.7145C35.6703 38.4147 36.9162 37.6173 36.4589 36.3591C36.3757 36.1911 36.3757 35.9816 36.1688 35.856C33.5931 36.4431 32.2227 38.33 31.8899 40.888ZM37.7461 50.1548C36.5421 49.1493 34.8816 49.7787 33.5931 50.1548C31.8899 51.7073 29.5639 53.4263 29.6058 55.4812C32.5961 54.3486 35.3375 51.7913 37.7461 50.1548ZM33.7588 75.7359C34.216 72.0036 34.9641 68.1451 34.6733 64.3712C34.5901 63.9104 34.3824 63.4912 34.0916 63.1553C32.8876 64.3288 32.2227 65.7133 31.7648 67.1811C31.267 70.2839 32.0563 73.7219 33.7588 75.7359ZM31.1013 81.5647C32.3891 82.1941 32.5136 83.8292 33.6763 84.4995C33.8007 83.3677 33.7588 82.1095 33.4686 81.0608C32.8457 80.0969 34.0084 78.3362 32.4716 77.8317C32.0151 75.6929 30.8104 73.7219 29.9798 71.7933C28.2774 75.1904 30.5615 78.3772 31.1013 81.5647ZM28.692 81.3551C28.4424 80.4321 27.6538 80.5577 27.1133 81.2711C26.2002 82.8229 26.2422 85.129 26.6987 86.8903C27.0721 87.0159 27.1546 86.7224 27.4049 86.5961C28.0691 85.0457 29.315 83.4093 28.692 81.3551ZM28.9829 66.4684C30.4777 64.8743 31.1432 62.9457 32.3891 61.2267C30.1875 61.4786 29.4401 63.6168 28.4837 65.1679C28.5256 65.6287 28.318 66.51 28.9829 66.4684ZM35.4626 55.1037C33.5931 54.6012 32.0151 56.1946 30.6028 57.2009C30.1043 58.3751 28.734 59.3814 28.692 60.8499C28.8171 61.0588 29.0248 61.0164 29.1905 61.1427C30.312 59.9269 31.6823 58.9199 33.4686 59.1295C34.5481 58.3751 34.5901 56.9073 35.3794 55.985C35.213 55.6068 35.6703 55.3556 35.4626 55.1037ZM35.8772 44.621C34.0084 45.2921 31.4334 47.0104 31.3921 49.1493C33.9671 47.7238 36.9994 47.263 40.0728 46.9271C40.4462 46.5079 41.1936 46.0041 41.0691 45.2497C39.2416 45.2081 37.7461 44.4947 35.8772 44.621ZM37.5811 42.3982C39.2003 42.0616 40.4875 42.734 42.0661 42.2309C43.2288 41.5591 45.1396 41.2239 45.3473 39.7145C44.4342 38.8755 42.8967 39.5882 41.8585 39.0851C40.156 39.8825 37.9125 40.092 37.5811 42.3982ZM39.2416 35.9816C41.1523 35.8143 42.2325 34.2202 43.6448 33.1723C44.0601 32.5429 45.0984 32.5012 45.1396 31.9564C44.5167 31.0758 43.2708 31.9134 42.2325 31.6629C40.4875 32.3333 39.3254 34.2626 39.2416 35.9816ZM48.4214 44.1172C48.7948 44.9555 48.8367 46.3816 49.6261 46.6329C49.6261 44.621 49.7505 42.4821 49.1269 40.8041C48.1306 41.5168 48.504 42.9429 48.4214 44.1172ZM46.0541 34.1786C44.5167 34.4721 42.938 35.3528 42.1493 36.8622H45.3473C46.6764 36.8199 48.0474 38.0788 49.3352 36.8622C49.8743 36.3591 51.4117 36.5263 50.9132 35.3528C49.9994 34.0099 47.6314 34.1786 46.0541 34.1786ZM52.6164 38.2884C52.6576 38.1621 52.5744 37.9525 52.408 37.9941C51.827 38.1621 51.6194 38.7908 51.2034 39.2114C50.7888 40.7201 51.1209 42.5661 51.7026 43.8236C51.9102 43.7396 52.0759 43.5717 52.2004 43.4037C52.0347 41.7271 52.4912 40.0081 52.6164 38.2884ZM47.4245 30.2367C48.3795 31.4942 49.5841 31.8308 50.7056 32.8364C51.5369 33.4652 51.8683 34.6394 52.8233 34.849C53.6952 34.0939 54.7761 34.3042 55.8143 33.6754C55.1082 32.8364 54.3181 32.2493 53.4057 31.8308C52.7828 31.7045 52.6576 30.9918 52.1179 30.6559C50.7475 30.3624 48.7535 29.0209 47.4245 30.2367ZM55.1914 37.0718C54.1944 38.2037 53.4889 39.8825 53.8203 41.3919C54.9005 41.056 55.1082 39.6298 55.6067 38.7068C56.0639 38.0372 56.6449 37.6173 57.1015 36.8622C57.7664 35.1432 55.7304 36.6943 55.1914 37.0718ZM52.408 28.2235C54.2769 29.9432 57.0602 30.2784 58.0159 32.8364C58.7221 33.2146 59.7184 33.4242 60.5077 33.0467C61.6704 32.9204 62.9995 32.9204 63.9965 32.6692C64.1217 31.7469 62.8338 31.4526 62.501 30.6559C59.8428 29.7336 57.3923 28.3082 54.5265 27.9299C53.8623 27.8883 52.7828 27.5108 52.408 28.2235ZM68.3572 37.575C67.7762 36.8622 68.8144 35.1016 67.486 35.0586C66.9875 35.8976 66.7792 36.8199 66.3639 37.7013C66.3639 38.9171 66.7792 40.092 66.7792 41.2239C66.9456 41.5168 67.0707 42.1053 67.5692 42.0199C68.1502 40.6785 68.9808 39.253 68.3572 37.575ZM67.7762 48.4365C67.486 47.7238 66.5303 47.0527 65.8654 47.4303C65.076 48.4782 64.4118 49.8203 64.9935 51.1625C65.7409 50.7427 67.0288 50.8266 67.7762 50.2818C68.067 49.6524 67.6104 49.1076 67.7762 48.4365ZM63.2904 28.0139C63.5812 29.5233 65.2424 29.8592 66.1569 30.9495C66.7372 31.3693 66.6967 32.2077 67.2777 32.4596C68.1915 32.4596 68.7738 31.7045 69.48 31.1597C69.6037 30.4463 68.4823 30.1528 68.3572 29.3144C66.6547 28.8946 65.2844 27.0916 63.2904 28.0139ZM73.5491 48.9397C72.3864 49.8627 70.8503 50.3235 70.061 51.6657C69.8946 52.1265 69.6863 52.9648 70.3511 53.0911C71.5565 52.0425 73.7987 50.8266 73.5491 48.9397ZM68.9808 46.6329C69.2297 47.0527 69.6863 47.0104 69.9778 47.4303C71.5984 49.0653 72.9268 46.7592 73.8399 45.9208C76.3324 42.0616 76.8728 35.6464 74.5468 31.5366C73.7987 30.4887 73.3834 29.2305 72.1375 28.7266C70.3511 34.3042 70.4756 40.972 68.9808 46.6329ZM77.4539 46.0464C79.0319 44.9978 80.6937 43.9916 82.313 43.2372C82.313 42.1462 81.1104 41.3919 80.112 41.0144C79.2814 42.8166 77.4126 43.9916 76.1254 45.6266C75.8752 46.2977 77.0379 46.1714 77.4539 46.0464ZM78.2432 39.8825C78.8661 39.2947 79.738 39.253 79.738 38.2884C79.115 37.8692 78.9493 34.3674 78.0355 34.9968C78.16 35.9607 77.0379 39.7145 78.2432 39.8825ZM81.732 39.5882C83.5596 41.1823 86.052 42.3558 88.7927 41.895C89.2906 40.9304 87.9209 41.2239 87.5888 40.5945C87.0896 37.9941 83.2275 38.7068 81.732 39.5882ZM131.971 28.7454C130.185 29.5004 128.251 32.2493 125.968 31.7469C124.472 33.1723 124.139 34.6817 121.918 34.8712C117.494 35.1016 118.014 38.9803 113.839 38.7068C108.918 38.3862 108.252 44.0124 101.461 43.4037C98.8025 46.0041 96.4139 48.1006 91.8662 48.1222C92.1571 48.7301 92.2609 48.8349 92.5724 49.4012C93.4449 51.1625 95.8123 53.259 96.6848 54.9781C97.2245 56.949 97.5979 58.9622 98.2628 60.8499C99.4262 62.3579 100.568 64.5606 101.855 66.5315C102.852 70.0112 106.196 71.2486 107.234 75.0225C107.982 75.9455 109.353 76.5742 108.854 78.042C107.94 81.4391 108.605 86.2185 104.16 86.8064C103.475 87.2047 101.503 88.0222 99.8827 88.1062L98.8857 87.0999C98.3872 87.7287 98.6361 88.3539 98.2628 89.025C94.1091 88.7731 93.1431 90.717 88.1595 85.7057C87.498 85.0409 87.2037 84.07 87.1618 83.063C85.6677 82.1823 84.0168 79.4681 82.4381 78.7547C79.3227 78.3772 75.792 79.049 73.7567 76.1134C72.9674 76.5742 73.5491 77.5805 73.633 78.2516C75.3361 80.3474 74.0483 83.8292 76.1254 85.6745C76.4988 86.3865 76.2912 87.3095 76.3324 88.1062C75.0446 88.3574 73.4659 88.0222 72.636 89.406C66.7792 89.1541 62.8758 93.6838 57.1847 93.9343C53.6546 95.6547 49.8331 97.3314 45.6381 97.7505C40.9454 99.5542 35.5458 99.6798 30.3951 100.393C28.4837 101.609 26.3659 99.9741 24.7879 99.176C24.6215 99.4702 24.6635 99.8901 24.2894 100.099C22.7946 99.7221 21.5068 98.5896 21.1334 97.0808C20.7594 96.4097 20.1364 96.9538 19.7205 97.1634C20.3434 94.3548 21.2572 91.5449 23.5008 89.5316C25.536 86.6384 23.2099 83.5779 22.4199 80.852C21.9221 77.7484 19.18 74.9392 20.9251 71.4998C22.2129 69.0674 22.9603 66.1332 22.6275 63.2393C22.2549 61.6452 20.6762 59.591 22.4199 58.1232C22.9603 55.6068 24.9956 53.7199 24.4978 50.7843C24.5383 49.694 24.0818 48.8141 24.1237 47.7654C25.5766 43.9916 29.9379 42.4398 29.9798 38.2037C30.1043 36.9462 30.4364 35.8143 31.267 34.849C33.8007 34.765 35.3794 32.4596 37.5811 31.5366C38.6606 30.1104 39.6156 27.2179 41.9417 27.9299C45.7206 27.721 48.2131 23.2337 52.1179 24.6175C54.5677 24.8688 57.4755 26.3372 59.8841 24.7015C61.3803 23.0665 62.9583 25.204 64.495 24.9951C65.4095 25.7501 66.7372 25.6238 67.8594 25.9174C70.6839 25.3719 69.3961 21.9339 70.7671 20.1726C71.8879 20.675 71.5984 22.1435 72.636 22.8985C72.9674 25.6238 75.0446 27.3428 76.6233 29.5233C77.4126 29.9855 78.5753 30.4047 79.3227 29.9432C80.6105 29.1881 81.4618 28.9161 83.3107 29.2089C83.3107 29.2089 83.9336 30.0265 83.8085 30.2367C82.8115 30.615 81.8145 31.0758 80.9426 31.7469C81.4824 32.2077 83.1663 31.6407 84.0168 31.5366C85.7193 31.327 86.5086 31.0126 87.9621 32.0612C88.3156 32.8996 88.4187 33.0044 88.5438 34.0738C85.304 33.0044 85.5529 34.8913 83.3519 35.3944C83.8917 36.0246 84.4314 35.1856 85.304 35.5624C86.5918 36.1488 86.4467 37.407 89.0004 37.575C90.2889 39.7145 91.1188 38.0371 92.3235 37.575C93.8183 36.7783 94.8572 36.9878 97.0581 36.9878C98.6361 35.0169 102.188 34.3465 104.804 34.765C105.967 34.5978 106.072 33.4652 106.943 32.8364C109.602 31.9564 110.225 31.6414 114.712 31.7469C117.038 27.721 122.23 30.4887 125.177 27.8043C126.466 27.2179 128.274 27.4455 129.645 27.1103C130.6 26.7751 131.597 26.5239 132.469 26.9431C133.051 27.5718 132.719 28.4532 131.971 28.7454ZM72.9275 42.3142C72.5541 42.9429 72.5122 44.1172 71.5159 44.1172C71.3488 44.0748 71.474 43.8659 71.3083 43.8236C72.0144 41.4752 71.9725 38.7908 72.8031 36.4854C74.5062 37.8269 73.4673 40.5112 72.9275 42.3142Z" fill="#EFEFEF"/>
</svg>
