<?xml version="1.0" encoding="UTF-8"?>
<svg id="_Шар_2" data-name="Шар 2" xmlns="http://www.w3.org/2000/svg" viewBox="0 0 636.7 120.03">
  <defs>
    <style>
      .cls-1 {
        fill: #feffff;
        stroke-width: 0px;
      }
    </style>
  </defs>
  <g id="_Шар_3" data-name="Шар 3">
    <g>
      <path class="cls-1" d="M491.25,17.3c0,1.78-.35,3.11-1.05,3.99-.7.88-1.87,1.32-3.5,1.32s-2.81-.44-3.5-1.32c-.7-.88-1.05-2.21-1.05-3.99V1.84h-5.35v14.88c0,1.85.17,3.46.52,4.82.35,1.36.92,2.48,1.72,3.36.79.88,1.82,1.53,3.07,1.95,1.25.42,2.78.63,4.59.63s3.33-.21,4.59-.63c1.25-.42,2.28-1.07,3.07-1.95.79-.88,1.37-2,1.72-3.36.35-1.36.52-2.97.52-4.82V1.84h-5.35v15.46Z"/>
      <polygon class="cls-1" points="507.07 21.71 509.45 19.03 513.72 27.05 520.07 27.05 513.03 15.35 519.35 8.09 513.43 8.09 509.63 12.61 507.29 16.11 507.07 16.11 507.07 .32 501.72 .32 501.72 27.05 507.07 27.05 507.07 21.71"/>
      <path class="cls-1" d="M527.91,15.96c0-1.11.38-1.87,1.14-2.28.76-.41,1.92-.61,3.49-.61h1.34v-4.98h-.94c-.75,0-1.4.11-1.95.34-.55.23-1.03.54-1.43.92-.4.39-.72.82-.96,1.32-.24.49-.41,1.01-.51,1.53h-.18v-4.12h-5.35v18.96h5.35v-11.09Z"/>
      <path class="cls-1" d="M543.51,16.07c-2.5,0-4.48.49-5.94,1.46-1.46.97-2.18,2.45-2.18,4.45,0,1.66.5,2.99,1.52,4,1.01,1.01,2.47,1.51,4.37,1.51,1.45,0,2.66-.32,3.65-.96s1.62-1.57,1.91-2.8h.22c.17,1.01.57,1.82,1.21,2.42.64.6,1.44.9,2.4.9h2.96v-4.15h-1.77v-8.31c0-2.26-.67-3.99-2.02-5.17-1.35-1.18-3.37-1.77-6.07-1.77-2,0-3.58.32-4.75.96-1.17.64-2.14,1.53-2.91,2.67l3.18,2.83c.41-.58.93-1.1,1.55-1.55.63-.46,1.47-.69,2.53-.69,1.13,0,1.94.27,2.42.81.48.54.72,1.27.72,2.19v1.19h-3ZM546.51,21.33c0,.86-.32,1.48-.96,1.86-.64.38-1.4.57-2.29.57-.79,0-1.41-.16-1.84-.48s-.65-.83-.65-1.52v-.54c0-1.41,1.05-2.11,3.14-2.11h2.6v2.22Z"/>
      <rect class="cls-1" x="557.2" y="8.09" width="5.35" height="18.96"/>
      <path class="cls-1" d="M559.88,6.07c1.08,0,1.87-.25,2.37-.74.49-.49.74-1.13.74-1.9v-.79c0-.77-.25-1.4-.74-1.9-.49-.49-1.28-.74-2.37-.74s-1.87.25-2.37.74c-.49.49-.74,1.13-.74,1.9v.79c0,.77.25,1.4.74,1.9.49.49,1.28.74,2.37.74Z"/>
      <path class="cls-1" d="M584.29,27.05v-11.88c0-2.41-.5-4.26-1.5-5.56-1-1.3-2.47-1.95-4.42-1.95-1.49,0-2.66.36-3.5,1.08-.84.72-1.43,1.58-1.77,2.56h-.22v-3.21h-5.35v18.96h5.35v-12.28c0-.46.1-.86.29-1.21.19-.35.45-.64.78-.88.33-.24.69-.42,1.1-.52s.83-.16,1.26-.16c.99,0,1.67.3,2.06.88.38.59.58,1.5.58,2.73v11.45h5.35Z"/>
      <rect class="cls-1" x="589.06" y="8.09" width="5.35" height="18.96"/>
      <path class="cls-1" d="M591.73,6.07c1.08,0,1.87-.25,2.37-.74.49-.49.74-1.13.74-1.9v-.79c0-.77-.25-1.4-.74-1.9-.49-.49-1.28-.74-2.37-.74s-1.87.25-2.37.74c-.49.49-.74,1.13-.74,1.9v.79c0,.77.25,1.4.74,1.9.49.49,1.28.74,2.37.74Z"/>
      <path class="cls-1" d="M614.59,14.59c0-2.26-.67-3.99-2.02-5.17-1.35-1.18-3.37-1.77-6.07-1.77-2,0-3.58.32-4.75.96-1.17.64-2.14,1.53-2.91,2.67l3.18,2.83c.41-.58.93-1.1,1.55-1.55.63-.46,1.47-.69,2.53-.69,1.13,0,1.94.27,2.42.81.48.54.72,1.27.72,2.19v1.19h-3c-2.5,0-4.48.49-5.94,1.46-1.46.97-2.18,2.45-2.18,4.45,0,1.66.5,2.99,1.52,4,1.01,1.01,2.47,1.51,4.37,1.51,1.45,0,2.66-.32,3.65-.96s1.62-1.57,1.91-2.8h.22c.17,1.01.57,1.82,1.21,2.42.64.6,1.44.9,2.4.9h2.96v-4.15h-1.77v-8.31ZM609.25,21.33c0,.86-.32,1.48-.96,1.86-.64.38-1.4.57-2.29.57-.79,0-1.41-.16-1.84-.48s-.65-.83-.65-1.52v-.54c0-1.41,1.05-2.11,3.14-2.11h2.6v2.22Z"/>
      <path class="cls-1" d="M635.2,9.61c-1-1.3-2.47-1.95-4.42-1.95-1.49,0-2.66.36-3.5,1.08-.84.72-1.43,1.58-1.77,2.56h-.22v-3.21h-5.35v18.96h5.35v-12.28c0-.46.1-.86.29-1.21.19-.35.45-.64.78-.88.33-.24.69-.42,1.1-.52s.83-.16,1.26-.16c.99,0,1.67.3,2.06.88.38.59.58,1.5.58,2.73v11.45h5.35v-11.88c0-2.41-.5-4.26-1.5-5.56Z"/>
      <path class="cls-1" d="M487.28,55.14l-2.49-.4c-1.06-.17-1.82-.44-2.29-.82-.47-.38-.7-1-.7-1.86,0-.76.3-1.36.9-1.79.6-.43,1.52-.64,2.75-.64,1.3,0,2.38.22,3.23.66.85.44,1.58,1.01,2.19,1.7l3.65-3.69c-1.04-1.16-2.28-2.04-3.72-2.64-1.45-.6-3.12-.9-5.02-.9-1.49,0-2.82.19-3.99.56-1.17.37-2.16.9-2.96,1.57-.81.68-1.43,1.48-1.86,2.42s-.65,1.98-.65,3.11c0,2.12.62,3.82,1.86,5.1s3.2,2.09,5.87,2.42l2.49.32c1.18.17,1.96.48,2.35.95.39.47.58,1.04.58,1.74,0,.91-.33,1.64-.97,2.18-.65.55-1.65.82-3,.82-2.5,0-4.61-.95-6.32-2.86l-3.61,3.65c1.08,1.21,2.4,2.19,3.94,2.95,1.54.76,3.42,1.14,5.63,1.14,1.56,0,2.96-.2,4.19-.6,1.23-.4,2.26-.96,3.09-1.68.83-.72,1.46-1.59,1.9-2.6.43-1.01.65-2.12.65-3.33,0-2.19-.63-3.89-1.88-5.08s-3.18-2-5.78-2.4Z"/>
      <path class="cls-1" d="M500.03,64.87c0,1.81.47,3.18,1.43,4.12.95.94,2.35,1.41,4.21,1.41h3.18v-4.15h-3.47v-10.66h3.76v-4.15h-3.76v-5.13h-4.8v3.11c0,.65-.13,1.15-.4,1.5-.27.35-.76.52-1.48.52h-1.34v4.15h2.67v9.28Z"/>
      <path class="cls-1" d="M523.03,67.07h.22c.17,1.01.57,1.82,1.21,2.42.64.6,1.44.9,2.4.9h2.96v-4.15h-1.77v-8.31c0-2.26-.67-3.99-2.02-5.17-1.35-1.18-3.37-1.77-6.07-1.77-2,0-3.58.32-4.75.96-1.17.64-2.14,1.53-2.91,2.67l3.18,2.83c.41-.58.93-1.1,1.55-1.55.63-.46,1.47-.69,2.53-.69,1.13,0,1.94.27,2.42.81.48.54.72,1.27.72,2.19v1.19h-3c-2.5,0-4.48.49-5.94,1.46-1.46.97-2.18,2.45-2.18,4.45,0,1.66.5,2.99,1.52,4,1.01,1.01,2.47,1.51,4.37,1.51,1.45,0,2.66-.32,3.65-.96s1.62-1.57,1.91-2.8ZM517.62,66.63c-.43-.32-.65-.83-.65-1.52v-.54c0-1.41,1.05-2.11,3.14-2.11h2.6v2.22c0,.86-.32,1.48-.96,1.86-.64.38-1.4.57-2.29.57-.79,0-1.41-.16-1.84-.48Z"/>
      <path class="cls-1" d="M539.88,57.03c.76-.41,1.92-.61,3.49-.61h1.34v-4.98h-.94c-.75,0-1.4.11-1.95.34-.55.23-1.03.54-1.43.92-.4.39-.72.82-.96,1.32-.24.49-.41,1.01-.51,1.53h-.18v-4.12h-5.35v18.96h5.35v-11.09c0-1.11.38-1.87,1.14-2.28Z"/>
      <path class="cls-1" d="M554.49,46.31h-4.8v3.11c0,.65-.13,1.15-.4,1.5-.27.35-.76.52-1.48.52h-1.34v4.15h2.67v9.28c0,1.81.47,3.18,1.43,4.12.95.94,2.35,1.41,4.21,1.41h3.18v-4.15h-3.47v-10.66h3.76v-4.15h-3.76v-5.13Z"/>
      <path class="cls-1" d="M573.17,63.75c0,.46-.1.85-.29,1.19-.19.34-.45.62-.76.85-.31.23-.67.4-1.08.52-.41.12-.82.18-1.23.18-.99,0-1.69-.31-2.09-.94-.41-.63-.61-1.52-.61-2.67v-11.45h-5.35v11.92c0,2.41.5,4.26,1.5,5.54,1,1.29,2.47,1.93,4.42,1.93.77,0,1.45-.1,2.04-.29.59-.19,1.1-.46,1.54-.79.43-.34.79-.72,1.07-1.16.28-.43.5-.89.67-1.37h.18v3.18h5.35v-18.96h-5.35v12.32Z"/>
      <path class="cls-1" d="M594.12,51c-1.23,0-2.32.34-3.27,1.01-.95.67-1.56,1.54-1.82,2.6h-.18v-3.18h-5.35v26.19h5.35v-10.4h.18c.14.51.37.98.69,1.43.31.45.69.83,1.14,1.16.45.32.94.58,1.5.76.55.18,1.14.27,1.77.27,2.41,0,4.23-.85,5.45-2.55,1.23-1.7,1.84-4.16,1.84-7.39s-.61-5.68-1.84-7.37c-1.23-1.69-3.05-2.53-5.45-2.53ZM595.85,62.56c0,1.2-.33,2.16-.99,2.87-.66.71-1.5,1.07-2.51,1.07s-1.85-.25-2.51-.74c-.66-.49-.99-1.17-.99-2.04v-5.6c0-.87.33-1.55.99-2.04.66-.49,1.5-.74,2.51-.74s1.85.36,2.51,1.07c.66.71.99,1.67.99,2.87v3.29Z"/>
      <polygon class="cls-1" points="476.95 113.74 482.44 113.74 482.44 103.41 492.01 103.41 492.01 98.53 482.44 98.53 482.44 93.41 493.67 93.41 493.67 88.53 476.95 88.53 476.95 113.74"/>
      <path class="cls-1" d="M508.08,107.09c0,.46-.1.85-.29,1.19-.19.34-.45.62-.76.85-.31.23-.67.4-1.08.52-.41.12-.82.18-1.23.18-.99,0-1.69-.31-2.09-.94-.41-.63-.61-1.52-.61-2.67v-11.45h-5.35v11.92c0,2.41.5,4.26,1.5,5.54,1,1.29,2.47,1.93,4.42,1.93.77,0,1.45-.1,2.04-.29.59-.19,1.1-.46,1.54-.79.43-.34.79-.72,1.07-1.16.28-.43.5-.89.67-1.37h.18v3.18h5.35v-18.96h-5.35v12.32Z"/>
      <path class="cls-1" d="M529.25,94.34c-1.49,0-2.66.36-3.5,1.08-.84.72-1.43,1.58-1.77,2.56h-.22v-3.21h-5.35v18.96h5.35v-12.28c0-.46.1-.86.29-1.21.19-.35.45-.64.78-.88.33-.24.69-.42,1.1-.52s.83-.16,1.26-.16c.99,0,1.67.3,2.06.88.38.59.58,1.5.58,2.73v11.45h5.35v-11.88c0-2.41-.5-4.26-1.5-5.56-1-1.3-2.47-1.95-4.42-1.95Z"/>
      <path class="cls-1" d="M551.57,97.96h-.18c-.27-1.06-.87-1.93-1.82-2.6-.95-.67-2.04-1.01-3.27-1.01-2.41,0-4.23.84-5.45,2.53-1.23,1.69-1.84,4.14-1.84,7.37s.61,5.69,1.84,7.39c1.23,1.7,3.05,2.55,5.45,2.55.6,0,1.19-.09,1.75-.27.57-.18,1.07-.43,1.52-.76.45-.33.82-.71,1.14-1.16.31-.45.54-.92.69-1.43h.18v3.18h5.35v-26.73h-5.35v10.94ZM551.57,107.06c0,.87-.33,1.55-.99,2.04-.66.49-1.5.74-2.51.74s-1.85-.35-2.51-1.07c-.66-.71-.99-1.67-.99-2.87v-3.29c0-1.2.33-2.16.99-2.87.66-.71,1.5-1.07,2.51-1.07s1.85.25,2.51.74c.66.49.99,1.17.99,2.04v5.6Z"/>
      <g>
        <path class="cls-1" d="M60,120.03h320c33.08,0,60-26.92,60-60S413.08.03,380,.03H60C26.92.03,0,26.95,0,60.03s26.92,60,60,60ZM60,3.6h320c31.12,0,56.43,25.32,56.43,56.43s-25.32,56.43-56.43,56.43H60c-31.12,0-56.43-25.32-56.43-56.43S28.88,3.6,60,3.6Z"/>
        <path class="cls-1" d="M325.49,12.53H63.4c-26.99,0-48.95,21.31-48.95,47.5s21.96,47.5,48.95,47.5h262.1c26.99,0,48.95-21.31,48.95-47.5s-21.96-47.5-48.95-47.5ZM141.07,78.23c-4.84,9.33-18.12,11.8-34.26,11.8s-29.89-2.47-34.74-11.8c-3.49-6.72-4.18-15.24-4.17-33.79v-14.42h21.01v26.85c0,7.33,1.66,16.7,17.9,16.7s17.42-9.36,17.42-16.7v-26.85h21v14.42c.02,18.54-.68,27.06-4.17,33.79ZM192.3,90.03c-33.27,0-38.37-3.14-38.37-20.65h21.64c0,3.58,1.58,4.4,17.67,4.4,15.13,0,16.81.15,16.81-2.6,0-1.93-1.86-1.56-18.36-2.86-25.59-2.01-38.63-3.21-38.63-18.68,0-17.79,10.85-19.6,38.63-19.6,32.97,0,40.61,4.39,40.61,21.78h-22.28c0-3.16-1.28-4.93-17.79-4.93s-17.3.73-17.3,2.95c.15,1.58,1.28,1.66,17.12,2.89,34.98,2.72,42.47,3.19,42.47,18.65s-6.07,18.65-42.2,18.65ZM320.78,48.24c-.31,0-57.91-.01-57.91-.01v8.96s50.03,0,50.21,0v18.21h-50.21v14.64h-20.55V30.03s78.32,0,78.46,0v18.21Z"/>
      </g>
    </g>
  </g>
</svg>