<?xml version="1.0" encoding="UTF-8" standalone="no"?>
<svg
   xmlns:dc="http://purl.org/dc/elements/1.1/"
   xmlns:cc="http://creativecommons.org/ns#"
   xmlns:rdf="http://www.w3.org/1999/02/22-rdf-syntax-ns#"
   xmlns:svg="http://www.w3.org/2000/svg"
   xmlns="http://www.w3.org/2000/svg"
   viewBox="0 0 680.32001 191.21333"
   height="191.21333"
   width="680.32001"
   xml:space="preserve"
   id="svg2"
   version="1.1"><metadata
     id="metadata8"><rdf:RDF><cc:Work
         rdf:about=""><dc:format>image/svg+xml</dc:format><dc:type
           rdf:resource="http://purl.org/dc/dcmitype/StillImage" /></cc:Work></rdf:RDF></metadata><defs
     id="defs6" /><g
     transform="matrix(1.3333333,0,0,-1.3333333,0,191.21333)"
     id="g10"><g
       transform="scale(0.1)"
       id="g12"><path
         id="path14"
         style="fill:#ffffff;fill-opacity:1;fill-rule:nonzero;stroke:none"
         d="m 365.961,358.301 c 94.156,0 141.25,39.437 141.25,118.32 0,33.621 -14.219,59.758 -42.652,78.418 -28.434,18.652 -70.485,27.977 -126.114,27.977 H 219.211 V 358.301 Z m -35.773,358.625 c 49.531,0 86.359,9.019 110.523,27.054 24.156,18.028 36.23,47.836 36.23,89.43 0,33.617 -13.757,58.551 -41.273,74.75 -27.516,16.192 -65.121,24.309 -112.813,24.309 H 219.211 V 716.926 Z m 62.375,358.624 c 92.312,0 167.386,-19.87 225.171,-59.62 57.782,-39.758 86.672,-92.035 86.672,-156.836 0,-45.86 -13.156,-86.078 -39.437,-120.61 -26.293,-34.55 -61.453,-59.48 -105.477,-74.757 111.281,-34.848 166.926,-99.969 166.926,-195.36 0,-76.445 -24.914,-137.117 -74.75,-182.066 -49.848,-44.942 -118.777,-67.41 -206.824,-67.41 H 0 v 856.659 h 392.563" /><path
         id="path16"
         style="fill:#ffffff;fill-opacity:1;fill-rule:nonzero;stroke:none"
         d="m 1029.1,1434.11 c 34.85,0 64.79,-12.54 89.88,-37.61 25.07,-25.08 37.61,-55.02 37.61,-89.88 0,-33.63 -12.39,-63.44 -37.15,-89.42 -24.76,-26.01 -54.9,-38.99 -90.34,-38.99 -34.264,0 -64.069,12.98 -89.432,38.99 -25.379,25.98 -38.063,55.79 -38.063,89.42 0,35.45 12.84,65.58 38.52,90.34 25.684,24.77 55.336,37.15 88.975,37.15" /><path
         id="path18"
         style="fill:#ffffff;fill-opacity:1;fill-rule:nonzero;stroke:none"
         d="M 1141.91,1075.55 V 218.891 H 916.277 v 856.659 h 225.633" /><path
         id="path20"
         style="fill:#ffffff;fill-opacity:1;fill-rule:nonzero;stroke:none"
         d="m 1528.97,1075.55 213.7,-268.737 205.45,268.737 H 2218.7 L 1874.75,654.563 2244.38,218.891 H 1973.81 L 1742.67,502.305 1521.63,218.891 h -263.24 l 354.96,435.672 -354.96,420.987 h 270.58" /><path
         id="path22"
         style="fill:#ffffff;fill-opacity:1;fill-rule:nonzero;stroke:none"
         d="m 2551.17,650.695 c 0,-85.621 20.94,-153.953 62.82,-204.996 41.88,-51.058 97.99,-76.59 168.3,-76.578 73.38,0 131.17,24.438 173.35,73.371 42.2,48.914 63.29,118.914 63.29,210.039 0,86.813 -21.25,153.934 -63.75,201.324 -42.51,47.372 -100.12,71.079 -172.89,71.079 -68.47,0 -124.14,-25.082 -166.92,-75.211 -42.8,-50.137 -64.2,-116.485 -64.2,-199.028 z m 57.61,-443.707 C 2504.46,251 2425.24,318.93 2371.05,414.699 c -99.67,176.133 -77.86,401.406 53.86,561.571 69.55,84.58 156.57,146.86 253.56,195.76 130.37,65.7 267.81,107.99 413.61,121.15 74.65,6.74 183.59,-4.47 233.76,-22.8 -61.83,-25.1 -125.58,-49.34 -187.93,-76.76 -62.31,-27.4 -120.74,-62.02 -173.33,-103.7 31.73,-18.37 64.42,-33.89 93.38,-54.63 C 3184.25,944.828 3252.11,821.348 3259.9,665.945 3269.4,476.75 3185.93,332.102 3041.64,217.859 2936.12,134.309 2815.62,80.1914 2687.36,42.1992 2619.52,22.1094 2550.55,7.26172 2479.86,2.03906 c -76.31,-5.6289 -151.77,0.25 -226.01,19.51174 -3.77,0.9805 -7.51,2.1211 -15.32,4.3398 133.6,43.5391 258.96,95.5894 370.25,181.0974" /><path
         id="path24"
         style="fill:#ffffff;fill-opacity:1;fill-rule:nonzero;stroke:none"
         d="M 3978.8,218.898 3769.68,726.105 3565.14,218.898 H 3328.5 l 387.06,873.172 h 109.15 L 4217.26,218.898 H 3978.8" /><path
         id="path26"
         style="fill:#ffffff;fill-opacity:1;fill-rule:nonzero;stroke:none"
         d="m 4489.68,448.199 c 0,-31.187 9.93,-56.269 29.8,-75.211 19.86,-18.957 44.49,-28.429 73.84,-28.429 49.53,0 99.05,22.613 148.58,67.871 v 225.629 c -62.98,-21.411 -112.35,-41.594 -148.12,-60.532 -35.77,-18.957 -62.06,-38.218 -78.88,-57.785 -16.83,-19.582 -25.22,-43.426 -25.22,-71.543 z m 137.57,643.871 c 110.07,0 194.13,-23.39 252.23,-70.16 58.1,-46.781 87.14,-112.055 87.14,-195.824 V 406.93 c 0,-32.418 13.14,-48.61 39.43,-48.61 11.01,0 26.45,4.719 46.32,14.211 19.86,9.481 36.54,20.321 49.99,32.559 V 274.852 c -78.88,-48.313 -151.03,-72.461 -216.45,-72.461 -40.36,0 -71.41,6.738 -93.1,20.179 -21.71,13.442 -36.85,37.282 -45.4,71.539 -86.22,-61.14 -172.75,-91.718 -259.57,-91.718 -61.77,0 -114.8,20.781 -159.13,62.371 -44.35,41.578 -66.5,91.398 -66.5,149.5 0,73.976 22.02,132.379 66.04,175.183 44.02,42.793 121.06,80.102 231.13,111.899 l 182.52,53.199 v 39.437 c 0,83.77 -50.76,125.661 -152.25,125.657 -51.98,0 -103.65,-11.926 -155,-35.77 -51.37,-23.847 -98.15,-59.023 -140.34,-105.476 V 981.09 c 93.56,73.98 204.54,110.98 332.94,110.98" /></g></g></svg>