<svg width="532" height="457" viewBox="0 0 532 457" fill="none" xmlns="http://www.w3.org/2000/svg">
<path d="M291.911 145.115L300.19 114.241L365.895 179.9L378.536 132.758L310.356 64.6254L266.491 76.6132L257.376 110.605L291.911 145.115Z" fill="#C7C7C7"/>
<path d="M254.821 120.135L202.827 314.042L229.975 340.892L258.129 333.354L270.769 286.211L252.787 291.026L289.356 154.645L254.821 120.135Z" fill="#C7C7C7"/>
<path d="M275.538 284.934L262.897 332.077L280.57 327.345L293.211 280.202L275.538 284.934Z" fill="#C7C7C7"/>
<path d="M305.378 320.702L285.338 326.068L297.979 278.925L318.018 273.56L305.378 320.702Z" fill="#C7C7C7"/>
<path d="M474.953 275.297L484.561 238.709L399.48 153.687L386.839 200.83L429.696 243.657L372.092 259.081L359.451 306.223L474.953 275.297Z" fill="#C7C7C7"/>
<path d="M340.378 311.331L314.914 318.149L327.555 271.006L353.018 264.188L340.378 311.331Z" fill="#C7C7C7"/>
<path d="M252.099 69.907L242.985 103.899L257.376 110.605L266.491 76.6132L252.099 69.907Z" fill="#C7C7C7"/>
<path d="M295.964 57.9192L252.099 69.907L266.491 76.6132L310.356 64.6253L295.964 57.9192Z" fill="#C7C7C7"/>
<path d="M240.43 113.428L188.436 307.336L202.827 314.042L254.821 120.135L240.43 113.428Z" fill="#C7C7C7"/>
<path d="M242.985 103.899L277.52 138.409L291.911 145.115L257.376 110.605L242.985 103.899Z" fill="#C7C7C7"/>
<path d="M274.965 147.939L240.43 113.428L254.821 120.135L289.356 154.645L274.965 147.939Z" fill="url(#paint0_linear_818_2578)"/>
<path d="M277.52 138.409L285.798 107.535L300.19 114.241L291.911 145.115L277.52 138.409Z" fill="url(#paint1_linear_818_2578)"/>
<path d="M188.436 307.336L215.583 334.186L229.975 340.892L202.827 314.042L188.436 307.336Z" fill="#C7C7C7"/>
<path d="M238.396 284.32L274.965 147.939L289.356 154.645L252.787 291.026L238.396 284.32Z" fill="url(#paint2_linear_818_2578)"/>
<path d="M364.145 126.052L295.964 57.9192L310.356 64.6253L378.536 132.758L364.145 126.052Z" fill="url(#paint3_linear_818_2578)"/>
<path d="M256.378 279.505L238.396 284.32L252.787 291.026L270.769 286.211L256.378 279.505Z" fill="#C7C7C7"/>
<path d="M215.583 334.186L243.737 326.647L258.129 333.354L229.975 340.892L215.583 334.186Z" fill="url(#paint4_linear_818_2578)"/>
<path d="M285.798 107.535L351.504 173.194L365.895 179.9L300.19 114.241L285.798 107.535Z" fill="#C7C7C7"/>
<path d="M256.378 279.505L243.737 326.647L258.129 333.354L270.769 286.211L256.378 279.505Z" fill="url(#paint5_linear_818_2578)"/>
<path d="M248.506 325.371L261.146 278.228L275.538 284.934L262.897 332.077L248.506 325.371Z" fill="#C7C7C7"/>
<path d="M278.819 273.496L261.146 278.228L275.538 284.934L293.211 280.202L278.819 273.496Z" fill="#C7C7C7"/>
<path d="M248.506 325.371L266.178 320.639L280.57 327.345L262.897 332.077L248.506 325.371Z" fill="url(#paint6_linear_818_2578)"/>
<path d="M266.178 320.639L278.819 273.496L293.211 280.202L280.57 327.345L266.178 320.639Z" fill="url(#paint7_linear_818_2578)"/>
<path d="M270.947 319.362L283.587 272.219L297.979 278.925L285.338 326.068L270.947 319.362Z" fill="#C7C7C7"/>
<path d="M283.587 272.219L303.627 266.853L318.018 273.56L297.979 278.925L283.587 272.219Z" fill="#C7C7C7"/>
<path d="M351.504 173.194L364.145 126.052L378.536 132.758L365.895 179.9L351.504 173.194Z" fill="url(#paint8_linear_818_2578)"/>
<path d="M290.986 313.996L270.947 319.362L285.338 326.068L305.378 320.702L290.986 313.996Z" fill="url(#paint9_linear_818_2578)"/>
<path d="M303.627 266.853L290.986 313.996L305.378 320.702L318.018 273.56L303.627 266.853Z" fill="url(#paint10_linear_818_2578)"/>
<path d="M300.523 311.442L313.164 264.3L327.555 271.006L314.914 318.149L300.523 311.442Z" fill="#C7C7C7"/>
<path d="M313.164 264.3L338.627 257.482L353.018 264.188L327.555 271.006L313.164 264.3Z" fill="#C7C7C7"/>
<path d="M325.986 304.624L300.523 311.442L314.914 318.149L340.378 311.33L325.986 304.624Z" fill="url(#paint11_linear_818_2578)"/>
<path d="M385.089 146.981L372.448 194.124L386.839 200.83L399.48 153.687L385.089 146.981Z" fill="#C7C7C7"/>
<path d="M338.627 257.482L325.986 304.624L340.378 311.331L353.018 264.188L338.627 257.482Z" fill="url(#paint12_linear_818_2578)"/>
<path d="M357.7 252.375L345.06 299.517L359.451 306.223L372.092 259.081L357.7 252.375Z" fill="#C7C7C7"/>
<path d="M372.448 194.124L415.305 236.95L429.696 243.657L386.839 200.83L372.448 194.124Z" fill="#C7C7C7"/>
<path d="M415.305 236.95L357.7 252.375L372.092 259.081L429.696 243.657L415.305 236.95Z" fill="#C7C7C7"/>
<path d="M470.17 232.002L385.089 146.981L399.48 153.687L484.561 238.709L470.17 232.002Z" fill="url(#paint13_linear_818_2578)"/>
<path d="M345.06 299.517L460.561 268.59L474.953 275.297L359.451 306.223L345.06 299.517Z" fill="url(#paint14_linear_818_2578)"/>
<path d="M460.561 268.59L470.17 232.002L484.561 238.709L474.953 275.297L460.561 268.59Z" fill="url(#paint15_linear_818_2578)"/>
<g filter="url(#filter0_f_818_2578)">
<path d="M272.844 150.061C273.092 150.308 273.381 150.51 273.698 150.658L288.089 157.364C289.409 157.979 290.98 157.558 291.815 156.366C292.649 155.173 292.507 153.553 291.477 152.524L256.942 118.013C256.694 117.766 256.405 117.564 256.088 117.416L241.696 110.71C240.377 110.095 238.806 110.516 237.971 111.708C237.137 112.901 237.279 114.521 238.309 115.55L272.844 150.061Z" fill="#4AB4F5" stroke="#4AB4F5" stroke-width="6" stroke-linejoin="round"/>
<path d="M257.645 276.786C256.841 276.411 255.913 276.411 255.11 276.786C254.306 277.16 253.71 277.871 253.48 278.727L240.839 325.87C240.462 327.276 241.15 328.751 242.47 329.366L256.862 336.072C257.666 336.447 258.594 336.447 259.397 336.072C260.201 335.698 260.797 334.987 261.027 334.131L273.667 286.989C274.045 285.582 273.357 284.107 272.036 283.492L257.645 276.786Z" fill="#4AB4F5" stroke="#4AB4F5" stroke-width="6" stroke-linejoin="round"/>
<path d="M263.281 319.861C262.903 321.268 263.591 322.742 264.912 323.357L279.303 330.064C280.107 330.438 281.035 330.438 281.838 330.064C282.642 329.689 283.238 328.978 283.468 328.122L296.109 280.98C296.486 279.573 295.798 278.099 294.477 277.483L280.086 270.777C279.282 270.403 278.354 270.403 277.551 270.777C276.747 271.152 276.151 271.862 275.921 272.718L263.281 319.861Z" fill="#4AB4F5" stroke="#4AB4F5" stroke-width="6" stroke-linejoin="round"/>
<path d="M348.606 172.417C348.229 173.823 348.917 175.298 350.237 175.913L364.629 182.619C365.432 182.994 366.36 182.994 367.164 182.619C367.967 182.245 368.564 181.534 368.793 180.678L381.434 133.535C381.811 132.129 381.123 130.654 379.803 130.039L365.411 123.333C364.608 122.958 363.68 122.958 362.876 123.333C362.073 123.707 361.476 124.418 361.247 125.274L348.606 172.417Z" fill="#4AB4F5" stroke="#4AB4F5" stroke-width="6" stroke-linejoin="round"/>
<path d="M304.894 264.135C304.09 263.76 303.162 263.76 302.358 264.135C301.555 264.509 300.958 265.22 300.729 266.076L288.088 313.218C287.711 314.625 288.399 316.1 289.719 316.715L304.111 323.421C304.915 323.796 305.843 323.796 306.646 323.421C307.449 323.047 308.046 322.336 308.276 321.48L320.916 274.337C321.293 272.931 320.606 271.456 319.285 270.841L304.894 264.135Z" fill="#4AB4F5" stroke="#4AB4F5" stroke-width="6" stroke-linejoin="round"/>
<path d="M339.894 254.763C339.09 254.388 338.162 254.388 337.359 254.763C336.555 255.137 335.959 255.848 335.729 256.704L323.088 303.847C322.711 305.253 323.399 306.728 324.72 307.343L339.111 314.049C339.915 314.424 340.843 314.424 341.646 314.049C342.45 313.675 343.046 312.964 343.276 312.108L355.916 264.965C356.294 263.559 355.606 262.084 354.285 261.469L339.894 254.763Z" fill="#4AB4F5" stroke="#4AB4F5" stroke-width="6" stroke-linejoin="round"/>
</g>
<path fill-rule="evenodd" clip-rule="evenodd" d="M277.52 138.409L285.799 107.535L351.504 173.194L364.145 126.052L295.964 57.9192L252.099 69.907L242.985 103.899L277.52 138.409ZM240.43 113.429L188.436 307.336L215.583 334.186L243.737 326.647L256.378 279.505L238.396 284.32L274.965 147.939L240.43 113.429ZM261.146 278.228L248.506 325.371L266.178 320.639L278.819 273.496L261.146 278.228ZM290.986 313.996L270.947 319.362L283.587 272.219L303.627 266.853L290.986 313.996ZM460.561 268.59L470.17 232.002L385.089 146.981L372.448 194.124L415.305 236.95L357.7 252.375L345.06 299.517L460.561 268.59ZM325.986 304.624L300.523 311.442L313.164 264.3L338.627 257.482L325.986 304.624Z" fill="#EFEFEF"/>
<path fill-rule="evenodd" clip-rule="evenodd" d="M48.1536 419.344L114.781 400.565C118.999 414.848 127.371 427.352 138.499 436.678C151.496 447.572 168.255 454.132 186.546 454.132C227.865 454.132 261.36 420.66 261.36 379.371C261.36 356.361 250.957 335.779 234.595 322.065C221.597 311.17 204.838 304.61 186.546 304.61C151.539 304.61 122.148 328.638 113.986 361.09L98.7024 365.398L105.518 331.818C106.968 324.843 106.695 317.818 104.698 310.742C102.071 301.434 97.2902 293.874 90.3564 288.063C88.0899 286.164 85.5934 284.451 82.8668 282.926C71.8608 276.714 60.2091 275.342 47.9117 278.808C35.6763 282.257 26.4771 289.573 20.3141 300.758C14.1336 311.88 12.7688 323.554 16.2199 335.781C18.4447 343.663 22.309 350.346 27.8127 355.83C28.7183 356.733 29.6579 357.592 30.6316 358.408C35.5762 362.551 41.4 365.581 48.1032 367.499L56.2082 333.857C55.3293 333.398 54.5513 332.884 53.8743 332.316C52.3703 331.054 51.3646 329.525 50.8573 327.727C50.2091 325.431 50.487 323.208 51.6909 321.06C52.9394 318.832 54.7127 317.394 57.0107 316.746C60.7445 315.694 63.581 315.981 65.5202 317.608C66.6454 318.552 67.4686 319.947 67.9896 321.793C68.5502 323.779 68.5605 325.953 68.0207 328.316L67.359 331.317L48.1536 419.344ZM224.472 334.832C237.182 345.494 245.262 361.49 245.262 379.371C245.262 411.473 219.221 437.496 187.097 437.496C172.867 437.496 159.83 432.39 149.722 423.91C137.011 413.248 128.931 397.253 128.931 379.371C128.931 347.27 154.973 321.246 187.097 321.246C201.327 321.246 214.363 326.353 224.472 334.832Z" fill="#C7C7C7"/>
<path d="M34.0724 267.204C21.837 270.652 12.6378 277.969 6.47481 289.153L20.3141 300.757C26.4771 289.573 35.6763 282.257 47.9117 278.808L34.0724 267.204Z" fill="#C7C7C7"/>
<path d="M6.47481 289.153C0.294272 300.275 -1.07047 311.95 2.38059 324.177L16.2199 335.781C12.7688 323.554 14.1336 311.88 20.3141 300.758L6.47481 289.153Z" fill="#C7C7C7"/>
<path d="M69.0275 271.321C58.0215 265.11 46.3698 263.737 34.0724 267.204L47.9117 278.808C60.2091 275.342 71.8608 276.714 82.8668 282.926L69.0275 271.321Z" fill="#C7C7C7"/>
<path d="M2.38058 324.177C4.60538 332.059 8.46967 338.742 13.9735 344.226L27.8127 355.83C22.309 350.346 18.4447 343.663 16.2199 335.781L2.38058 324.177Z" fill="#C7C7C7"/>
<path d="M37.8516 309.455C39.1002 307.227 40.8734 305.79 43.1714 305.142L57.0107 316.746C54.7127 317.394 52.9394 318.832 51.6909 321.06L37.8516 309.455Z" fill="#C7C7C7"/>
<path d="M37.018 316.123C36.3698 313.826 36.6477 311.604 37.8516 309.455L51.6909 321.06C50.487 323.208 50.2091 325.431 50.8573 327.727L37.018 316.123Z" fill="#C7C7C7"/>
<path d="M76.5171 276.459C74.2506 274.56 71.7541 272.847 69.0275 271.321L82.8668 282.926C85.5934 284.451 88.0899 286.164 90.3564 288.063L76.5171 276.459Z" fill="#C7C7C7"/>
<path d="M43.1714 305.142C46.9052 304.089 49.7417 304.377 51.6809 306.003L65.5184 317.606C63.5792 315.981 60.7433 315.694 57.0107 316.746L43.1714 305.142Z" fill="url(#paint16_linear_818_2578)"/>
<path d="M13.9735 344.226C14.879 345.128 15.8186 345.987 16.7923 346.803L30.6096 358.389C29.6438 357.579 28.7115 356.726 27.8128 355.83L13.9735 344.226Z" fill="#C7C7C7"/>
<path d="M40.0351 320.712C38.5311 319.45 37.5254 317.92 37.018 316.122L50.8573 327.727C51.3646 329.524 52.3703 331.054 53.8744 332.316L40.0351 320.712Z" fill="url(#paint17_linear_818_2578)"/>
<path d="M42.3689 322.253C41.4918 321.794 40.7153 321.282 40.0393 320.715L53.8743 332.316C54.5513 332.884 55.3293 333.398 56.2082 333.857L42.3689 322.253Z" fill="#C7C7C7"/>
<path d="M51.6809 306.003C52.8062 306.947 53.6293 308.342 54.1503 310.188L67.9896 321.793C67.4686 319.947 66.6455 318.552 65.5202 317.608L51.6809 306.003Z" fill="#C7C7C7"/>
<path d="M54.1503 310.188C54.7109 312.174 54.7213 314.349 54.1814 316.712L68.0207 328.316C68.5606 325.953 68.5502 323.779 67.9896 321.792L54.1503 310.188Z" fill="#C7C7C7"/>
<path d="M16.7923 346.803C21.7369 350.947 27.5607 353.977 34.2639 355.894L48.1032 367.499C41.4 365.581 35.5762 362.551 30.6316 358.408L16.7923 346.803Z" fill="url(#paint18_linear_818_2578)"/>
<path d="M54.1814 316.712L53.5197 319.713L67.359 331.317L68.0207 328.316L54.1814 316.712Z" fill="#C7C7C7"/>
<path d="M34.2639 355.894L42.3689 322.253L56.2082 333.857L48.1032 367.499L34.2639 355.894Z" fill="url(#paint19_linear_818_2578)"/>
<path d="M53.5197 319.713L34.3143 407.74L48.1536 419.344L67.359 331.317L53.5197 319.713Z" fill="#C7C7C7"/>
<path fill-rule="evenodd" clip-rule="evenodd" d="M90.8588 299.138C88.2337 289.838 83.4591 282.283 76.5348 276.474L90.3564 288.063C97.2902 293.874 102.071 301.434 104.698 310.742C106.695 317.818 106.968 324.843 105.518 331.818L105.517 331.818L98.7024 365.398L84.8631 353.793L91.6782 320.214L91.6782 320.214C93.129 313.239 92.8558 306.213 90.8588 299.138Z" fill="url(#paint20_linear_818_2578)"/>
<path d="M100.146 349.486L84.8632 353.793L98.7024 365.398L113.986 361.09L100.146 349.486Z" fill="#C7C7C7"/>
<path d="M34.3143 407.74L100.942 388.96L114.781 400.564L48.1536 419.344L34.3143 407.74Z" fill="#C7C7C7"/>
<path d="M172.707 293.006C137.7 293.006 108.308 317.033 100.146 349.486L113.986 361.09C122.148 328.638 151.539 304.61 186.546 304.61L172.707 293.006Z" fill="#C7C7C7"/>
<path d="M220.756 310.46C207.758 299.566 190.999 293.006 172.707 293.006L186.546 304.61C204.838 304.61 221.597 311.17 234.595 322.065L220.756 310.46Z" fill="#C7C7C7"/>
<path d="M100.942 388.96C105.16 403.244 113.531 415.747 124.659 425.074L138.473 436.657C127.358 427.332 118.996 414.837 114.781 400.564L100.942 388.96Z" fill="#C7C7C7"/>
<path fill-rule="evenodd" clip-rule="evenodd" d="M115.092 367.767C115.092 335.665 141.133 309.642 173.257 309.642C187.488 309.642 200.524 314.748 210.632 323.228L224.454 334.817C214.348 326.347 201.318 321.246 187.097 321.246C154.973 321.246 128.931 347.27 128.931 379.371L115.092 367.767ZM115.092 367.767L128.931 379.371C128.931 397.253 137.011 413.248 149.722 423.91L135.882 412.306C123.172 401.644 115.092 385.648 115.092 367.767Z" fill="url(#paint21_linear_818_2578)"/>
<path d="M173.257 425.892C159.036 425.892 146.006 420.791 135.9 412.321L149.722 423.91C159.83 432.39 172.866 437.496 187.097 437.496L173.257 425.892Z" fill="#C7C7C7"/>
<path d="M210.632 323.228C223.343 333.89 231.423 349.885 231.423 367.767L245.263 379.371C245.263 361.49 237.182 345.494 224.472 334.832L210.632 323.228Z" fill="#C7C7C7"/>
<path d="M173.258 426.586C161.3 426.586 150.176 423.023 140.889 416.902L154.728 428.506C164.015 434.628 175.14 438.191 187.097 438.191L173.258 426.586Z" fill="#C7C7C7"/>
<path d="M232.118 367.767C232.118 363.706 231.706 359.742 230.922 355.913L244.762 367.517C245.546 371.346 245.958 375.311 245.958 379.371L232.118 367.767Z" fill="#C7C7C7"/>
<path d="M231.423 367.767C231.423 399.868 205.381 425.892 173.257 425.892L187.097 437.496C219.221 437.496 245.263 411.473 245.263 379.371L231.423 367.767Z" fill="#C7C7C7"/>
<path d="M173.258 426.586C205.765 426.586 232.118 400.252 232.118 367.767L245.958 379.371C245.958 411.856 219.605 438.191 187.097 438.191L173.258 426.586Z" fill="#C7C7C7"/>
<path fill-rule="evenodd" clip-rule="evenodd" d="M247.521 367.767C247.521 344.768 237.128 324.194 220.78 310.48L234.595 322.065C250.957 335.779 261.36 356.361 261.36 379.371C261.36 420.66 227.865 454.132 186.546 454.132C168.255 454.132 151.496 447.572 138.499 436.678L124.659 425.074C137.657 435.968 154.415 442.528 172.707 442.528C214.025 442.528 247.521 409.056 247.521 367.767Z" fill="url(#paint22_linear_818_2578)"/>
<path fill-rule="evenodd" clip-rule="evenodd" d="M247.521 367.767C247.521 344.768 237.128 324.194 220.78 310.48L234.595 322.065C250.957 335.779 261.36 356.361 261.36 379.371C261.36 420.66 227.865 454.132 186.546 454.132C168.255 454.132 151.496 447.572 138.499 436.678L124.659 425.074C137.657 435.968 154.415 442.528 172.707 442.528C214.025 442.528 247.521 409.056 247.521 367.767Z" fill="url(#paint23_linear_818_2578)"/>
<path fill-rule="evenodd" clip-rule="evenodd" d="M100.942 388.96L34.3143 407.74L53.5197 319.713L54.1814 316.712C54.7213 314.349 54.7109 312.174 54.1503 310.188C52.7314 305.161 49.0717 303.479 43.1714 305.142C40.8734 305.79 39.1002 307.227 37.8516 309.455C36.6477 311.604 36.3698 313.826 37.018 316.123C37.7537 318.729 39.5374 320.773 42.3689 322.253L34.2639 355.894C26.2407 353.599 19.4773 349.71 13.9735 344.226C8.46967 338.742 4.60538 332.059 2.38059 324.177C-1.07047 311.95 0.294272 300.275 6.47481 289.153C12.6378 277.969 21.837 270.652 34.0724 267.204C46.3698 263.737 58.0215 265.11 69.0275 271.321C80.0956 277.515 87.3727 286.787 90.8588 299.138C92.8558 306.213 93.129 313.239 91.6782 320.214L84.8632 353.793L100.146 349.486C108.308 317.033 137.7 293.006 172.707 293.006C214.025 293.006 247.521 326.477 247.521 367.767C247.521 409.056 214.025 442.528 172.707 442.528C138.755 442.528 110.086 419.927 100.942 388.96ZM232.118 367.767C232.118 400.252 205.765 426.586 173.258 426.586C140.75 426.586 114.397 400.252 114.397 367.767C114.397 335.282 140.75 308.948 173.258 308.948C205.765 308.948 232.118 335.282 232.118 367.767Z" fill="#EFEFEF"/>
<g filter="url(#filter1_f_818_2578)">
<path d="M139.047 174.445L161.981 255.647L131.498 264.234L108.565 183.031L139.047 174.445ZM113.652 142.471C117.781 141.308 121.754 141.771 125.571 143.862C129.426 145.882 131.914 148.874 133.033 152.838C134.23 157.073 133.771 160.954 131.658 164.48C129.599 167.991 126.342 170.374 121.886 171.629C117.431 172.884 113.38 172.56 109.733 170.656C106.141 168.737 103.747 165.66 102.551 161.425C101.431 157.461 101.96 153.619 104.135 149.9C106.35 146.111 109.522 143.634 113.652 142.471Z" fill="#23202B" fill-opacity="0.2"/>
<path d="M249.865 230.891L219.383 239.478L206.432 193.623C205.113 188.953 202.525 187.162 198.667 188.249C194.864 189.32 193.621 192.191 194.94 196.86L207.89 242.715L177.408 251.302L164.619 206.017C161.628 195.429 162.618 185.537 167.588 176.341C172.542 167.09 180.1 161.034 190.261 158.172C201.889 154.896 212.396 156.479 221.782 162.921C229.126 167.945 234.454 176.321 237.766 188.05L249.865 230.891Z" fill="#23202B" fill-opacity="0.2"/>
<path d="M260.954 107.747L269.741 138.86L283.433 135.003L292.519 167.175L278.826 171.032C280.651 177.493 282.914 181.663 285.614 183.54C288.369 185.401 292.464 185.567 297.897 184.036L306.937 216.045C305.377 216.543 304.216 216.9 303.455 217.114C296.555 219.058 289.582 219.293 282.537 217.819C275.547 216.329 269.43 213.363 264.186 208.92C257.535 203.232 252.576 194.605 249.31 183.039L230.471 116.334L260.954 107.747Z" fill="#23202B" fill-opacity="0.2"/>
</g>
<path d="M122.315 143.012L145.25 224.242L114.766 232.832L91.8309 151.602L122.315 143.012ZM96.9181 111.028C101.048 109.864 105.021 110.328 108.838 112.419C112.694 114.44 115.181 117.433 116.301 121.398C117.497 125.635 117.039 129.517 114.925 133.044C112.867 136.556 109.609 138.94 105.153 140.196C100.698 141.451 96.6462 141.127 92.9994 139.222C89.4069 137.303 87.0126 134.225 85.8164 129.988C84.6969 126.023 85.2251 122.18 87.401 118.459C89.6159 114.669 92.7882 112.192 96.9181 111.028Z" fill="#C7C7C7"/>
<path d="M233.14 199.477L202.656 208.067L189.705 162.197C188.934 159.468 187.73 157.721 186.093 156.958C184.928 156.414 183.543 156.369 181.939 156.821C178.135 157.892 176.893 160.764 178.212 165.435L191.163 211.305L160.678 219.895L147.888 174.595C144.898 164.003 145.888 154.108 150.858 144.909C155.813 135.655 163.371 129.597 173.532 126.734C182.924 124.087 191.585 124.611 199.515 128.306C201.403 129.185 203.25 130.245 205.056 131.485C212.4 136.51 217.728 144.889 221.04 156.622L233.14 199.477Z" fill="#C7C7C7"/>
<path d="M244.23 76.2925L253.017 107.416L266.711 103.557L275.797 135.74L262.103 139.598C263.928 146.062 266.191 150.232 268.892 152.11C269.234 152.342 269.598 152.547 269.982 152.726C272.686 153.987 276.417 153.948 281.175 152.607L290.216 184.626C288.655 185.125 287.495 185.481 286.734 185.695C279.833 187.64 272.86 187.875 265.814 186.401C262.537 185.702 259.451 184.679 256.558 183.331C253.279 181.804 250.248 179.86 247.462 177.499C240.811 171.809 235.852 163.179 232.585 151.61L213.745 84.8822L244.23 76.2925Z" fill="#C7C7C7"/>
<path d="M71.0269 110.847C68.8511 114.568 68.3229 118.41 69.4424 122.375L85.815 130.008C84.6956 126.043 85.2237 122.2 87.3995 118.48L71.0269 110.847Z" fill="#C7C7C7"/>
<path d="M80.5452 103.416C76.4154 104.579 73.243 107.056 71.0281 110.847L87.4017 118.48C89.6166 114.689 92.789 112.212 96.9188 111.049L80.5452 103.416Z" fill="#C7C7C7"/>
<path d="M69.4411 122.374C70.6372 126.61 73.0314 129.688 76.6236 131.608L92.9963 139.24C89.404 137.321 87.0098 134.243 85.8137 130.007L69.4411 122.374Z" fill="#C7C7C7"/>
<path d="M80.5462 103.414C84.676 102.251 88.6493 102.714 92.4662 104.805L106.725 111.453C107.436 111.727 108.14 112.055 108.84 112.438L106.725 111.453C103.561 110.232 100.293 110.097 96.9198 111.047L80.5462 103.414Z" fill="#C7C7C7"/>
<path fill-rule="evenodd" clip-rule="evenodd" d="M116.3 121.416C117.496 125.652 117.038 129.533 114.925 133.06L98.5531 125.426C100.666 121.899 101.124 118.017 99.9276 113.781L99.9291 113.781C98.8093 109.817 96.3217 106.824 92.4665 104.802L108.839 112.437C112.695 114.458 115.182 117.452 116.302 121.417L116.3 121.416ZM88.7769 132.579C84.8357 133.689 81.211 133.563 77.9027 132.201L76.623 131.604C77.0442 131.824 77.4707 132.023 77.9027 132.201L92.9969 139.239C96.6438 141.144 100.695 141.469 105.151 140.214L88.7769 132.579ZM88.7784 132.577C93.234 131.321 96.4911 128.938 98.5497 125.426L114.924 133.061C112.865 136.573 109.608 138.956 105.152 140.212L88.7784 132.577Z" fill="url(#paint24_linear_818_2578)"/>
<path d="M105.939 135.392L75.4526 143.983L91.8271 151.617L122.313 143.026L105.939 135.392Z" fill="#C7C7C7"/>
<path d="M75.4526 143.984L98.3805 225.202L114.749 232.834L91.8214 151.616L75.4526 143.984Z" fill="#C7C7C7"/>
<path d="M128.868 216.609L105.94 135.391L122.309 143.023L145.237 224.241L128.868 216.609Z" fill="url(#paint25_linear_818_2578)"/>
<path d="M134.482 137.283C129.512 146.482 128.522 156.376 131.512 166.967L147.884 174.6C144.894 164.009 145.884 154.114 150.854 144.916L134.482 137.283Z" fill="#C7C7C7"/>
<path d="M157.16 119.108C146.998 121.971 139.44 128.029 134.485 137.283L150.859 144.916C155.814 135.663 163.372 129.604 173.534 126.741L157.16 119.108Z" fill="#C7C7C7"/>
<path d="M98.3761 225.198L128.862 216.608L145.237 224.242L114.751 232.833L98.3761 225.198Z" fill="url(#paint26_linear_818_2578)"/>
<path d="M183.145 120.677C175.215 116.983 166.554 116.459 157.162 119.105L173.536 126.738C182.928 124.092 191.589 124.616 199.519 128.31L183.145 120.677Z" fill="#C7C7C7"/>
<path d="M131.509 166.966L144.296 212.259L160.666 219.891L147.879 174.598L131.509 166.966Z" fill="#C7C7C7"/>
<path d="M169.719 149.325C171.356 150.089 172.56 151.835 173.33 154.564L189.703 162.197C188.933 159.468 187.729 157.722 186.092 156.958L169.719 149.325Z" fill="#C7C7C7"/>
<path d="M227.869 68.6629L197.383 77.2537L213.758 84.8878L244.244 76.297L227.869 68.6629Z" fill="#C7C7C7"/>
<path fill-rule="evenodd" clip-rule="evenodd" d="M165.565 149.188C167.169 148.736 168.553 148.782 169.718 149.325L186.091 156.959C184.926 156.416 183.542 156.371 181.938 156.822L165.565 149.188ZM161.837 157.802C160.518 153.131 161.76 150.26 165.564 149.188L181.937 156.823C178.133 157.894 176.891 160.765 178.21 165.437L166.498 159.976L178.204 165.435L191.154 211.299L174.785 203.666L161.836 157.802L161.837 157.802Z" fill="url(#paint27_linear_818_2578)"/>
<path d="M144.293 212.256L174.779 203.666L191.154 211.3L160.668 219.89L144.293 212.256Z" fill="url(#paint28_linear_818_2578)"/>
<path d="M197.383 77.2549L216.218 143.973L232.587 151.605L213.752 84.8869L197.383 77.2549Z" fill="#C7C7C7"/>
<path d="M173.33 154.563L186.278 200.427L202.648 208.059L189.7 162.195L173.33 154.563Z" fill="#C7C7C7"/>
<path d="M236.656 99.7812L227.871 68.6619L244.241 76.2941L253.027 107.413L236.656 99.7812Z" fill="url(#paint29_linear_818_2578)"/>
<path d="M250.348 95.9203L236.654 99.779L253.028 107.413L266.722 103.554L250.348 95.9203Z" fill="#C7C7C7"/>
<path fill-rule="evenodd" clip-rule="evenodd" d="M188.686 123.853C186.886 122.617 185.044 121.56 183.161 120.681L199.518 128.308C201.403 129.186 203.246 130.243 205.048 131.479L205.058 131.484C212.401 136.51 217.728 144.888 221.041 156.62L221.037 156.618L233.135 199.466L216.767 191.833L204.668 148.983L204.669 148.984C201.358 137.26 196.035 128.885 188.699 123.859L188.686 123.853Z" fill="url(#paint30_linear_818_2578)"/>
<path d="M186.275 200.424L216.761 191.833L233.135 199.467L202.649 208.058L186.275 200.424Z" fill="url(#paint31_linear_818_2578)"/>
<path d="M216.214 143.97C219.48 155.538 224.439 164.167 231.089 169.856L247.461 177.489C240.81 171.799 235.852 163.17 232.586 151.602L216.214 143.97Z" fill="#C7C7C7"/>
<path d="M259.433 128.098L250.349 95.9196L266.719 103.552L275.804 135.73L259.433 128.098Z" fill="url(#paint32_linear_818_2578)"/>
<path d="M245.736 131.956L259.43 128.097L275.804 135.731L262.11 139.589L245.736 131.956Z" fill="url(#paint33_linear_818_2578)"/>
<path d="M252.524 144.467C249.823 142.589 247.561 138.419 245.736 131.956L262.108 139.589C263.933 146.052 266.195 150.222 268.896 152.1L252.524 144.467Z" fill="url(#paint34_linear_818_2578)"/>
<path d="M231.088 169.854C233.873 172.214 236.905 174.158 240.183 175.685L256.536 183.309C253.266 181.783 250.241 179.842 247.461 177.486L231.088 169.854Z" fill="#C7C7C7"/>
<path d="M253.612 145.082C253.228 144.903 252.865 144.697 252.523 144.466L268.896 152.099C269.238 152.33 269.602 152.536 269.985 152.715L253.612 145.082Z" fill="#C7C7C7"/>
<path d="M264.806 144.962C260.05 146.302 256.32 146.342 253.616 145.082L269.986 152.714C272.69 153.975 276.421 153.936 281.18 152.595L264.806 144.962Z" fill="#C7C7C7"/>
<path d="M240.183 175.684C243.077 177.032 246.162 178.055 249.44 178.753L265.813 186.386C262.535 185.688 259.45 184.665 256.556 183.317L240.183 175.684Z" fill="#C7C7C7"/>
<path d="M249.44 178.751C256.485 180.225 263.458 179.99 270.36 178.045L286.734 185.679C279.832 187.624 272.859 187.859 265.814 186.384L249.44 178.751Z" fill="#C7C7C7"/>
<path d="M273.845 176.976L264.807 144.961L281.177 152.593L290.216 184.608L273.845 176.976Z" fill="url(#paint35_linear_818_2578)"/>
<path d="M270.36 178.044C271.121 177.829 272.282 177.473 273.842 176.975L290.216 184.608C288.655 185.106 287.495 185.463 286.734 185.677L270.36 178.044Z" fill="#C7C7C7"/>
<path d="M105.946 135.385L128.879 216.588L98.3965 225.175L75.4633 143.972L105.946 135.385ZM80.5501 103.412C84.6797 102.249 88.6527 102.712 92.4693 104.802C96.3249 106.823 98.8124 109.815 99.9318 113.779C101.128 118.014 100.669 121.895 98.5564 125.421C96.4976 128.932 93.2405 131.315 88.7849 132.57C84.3293 133.825 80.2783 133.501 76.6317 131.597C73.0395 129.678 70.6453 126.601 69.4492 122.366C68.3298 118.402 68.8579 114.56 71.0337 110.841C73.2484 107.051 76.4206 104.575 80.5501 103.412Z" fill="#EFEFEF"/>
<path d="M216.764 191.832L186.281 200.419L173.331 154.564C172.012 149.894 169.424 148.103 165.566 149.189C161.762 150.261 160.52 153.131 161.839 157.801L174.789 203.656L144.306 212.243L131.517 166.958C128.527 156.37 129.516 146.478 134.486 137.282C139.441 128.031 146.999 121.975 157.159 119.112C168.787 115.837 179.294 117.42 188.681 123.862C196.024 128.886 201.352 137.262 204.664 148.991L216.764 191.832Z" fill="#EFEFEF"/>
<path d="M227.852 68.6882L236.639 99.801L250.332 95.9438L259.417 128.115L245.725 131.973C247.55 138.434 249.812 142.603 252.513 144.48C255.268 146.342 259.362 146.508 264.795 144.977L273.835 176.986C272.275 177.484 271.114 177.84 270.354 178.055C263.453 179.999 256.48 180.233 249.435 178.76C242.445 177.27 236.328 174.304 231.084 169.861C224.433 164.172 219.475 155.546 216.208 143.98L197.369 77.2749L227.852 68.6882Z" fill="#EFEFEF"/>
<path d="M423.542 313.648L433.13 347.617C437.235 342.415 441.869 339.086 447.031 337.631C454.857 335.425 461.849 336.503 468.009 340.864C468.661 341.32 469.295 341.806 469.909 342.321C475.14 346.705 478.97 353.199 481.398 361.801L495.93 413.284L465.442 421.877L453.325 378.948C452.344 375.472 451.305 373.244 450.207 372.264C449.163 371.268 447.581 371.069 445.462 371.666C442.038 372.631 441.039 375.639 442.464 380.69L454.926 424.841L424.439 433.434L393.054 322.241L423.542 313.648Z" fill="#C7C7C7"/>
<path d="M409.702 302.044L379.215 310.637L393.054 322.241L423.542 313.648L409.702 302.044Z" fill="#C7C7C7"/>
<path d="M419.29 336.013L409.702 302.044L423.542 313.648L433.129 347.617L419.29 336.013Z" fill="url(#paint36_linear_818_2578)"/>
<path d="M379.215 310.637L410.6 421.83L424.439 433.434L393.054 322.241L379.215 310.637Z" fill="#C7C7C7"/>
<path d="M433.192 326.026C428.029 327.481 423.395 330.81 419.29 336.013L433.129 347.617C437.235 342.415 441.868 339.086 447.031 337.631L433.192 326.026Z" fill="#C7C7C7"/>
<path d="M454.169 329.26C448.01 324.898 441.018 323.821 433.192 326.026L447.031 337.631C454.857 335.425 461.849 336.503 468.009 340.864L454.169 329.26Z" fill="#C7C7C7"/>
<path d="M456.07 330.716C455.455 330.202 454.822 329.716 454.169 329.26L468.008 340.864C468.661 341.32 469.295 341.806 469.909 342.321L456.07 330.716Z" fill="#C7C7C7"/>
<path d="M436.367 360.659C437.465 361.64 438.505 363.868 439.486 367.343L453.325 378.948C452.344 375.472 451.305 373.244 450.206 372.264L436.367 360.659Z" fill="#C7C7C7"/>
<path fill-rule="evenodd" clip-rule="evenodd" d="M431.622 360.062C433.742 359.465 435.323 359.664 436.367 360.659L449.889 371.998C448.852 371.237 447.377 371.127 445.462 371.666C442.038 372.631 441.039 375.639 442.464 380.69L442.465 380.69L454.926 424.841L441.087 413.237L428.625 369.085L428.625 369.085C427.2 364.035 428.199 361.027 431.622 360.062ZM450.206 372.264C450.106 372.168 450 372.079 449.889 371.998L450.206 372.264Z" fill="url(#paint37_linear_818_2578)"/>
<path d="M439.486 367.343L451.603 410.273L465.442 421.877L453.325 378.948L439.486 367.343Z" fill="#C7C7C7"/>
<path d="M410.599 421.83L441.087 413.237L454.926 424.841L424.439 433.434L410.599 421.83Z" fill="url(#paint38_linear_818_2578)"/>
<path fill-rule="evenodd" clip-rule="evenodd" d="M456.08 330.725C461.306 335.11 465.133 341.6 467.559 350.197L482.09 401.679L495.929 413.284L481.398 361.801C478.97 353.199 475.14 346.705 469.909 342.321L456.08 330.725Z" fill="url(#paint39_linear_818_2578)"/>
<path d="M451.603 410.273L482.09 401.679L495.93 413.284L465.442 421.877L451.603 410.273Z" fill="url(#paint40_linear_818_2578)"/>
<path d="M409.702 302.044L419.29 336.013C423.395 330.81 428.029 327.482 433.192 326.026C441.018 323.821 448.01 324.898 454.169 329.26C460.383 333.606 464.846 340.585 467.559 350.197L482.09 401.68L451.603 410.273L439.486 367.343C438.505 363.868 437.465 361.64 436.367 360.659C435.323 359.664 433.742 359.465 431.622 360.062C428.199 361.027 427.2 364.035 428.625 369.085L441.087 413.237L410.6 421.83L379.215 310.637L409.702 302.044Z" fill="#EFEFEF"/>
<defs>
<filter id="filter0_f_818_2578" x="134.429" y="7.42845" width="350.108" height="431.925" filterUnits="userSpaceOnUse" color-interpolation-filters="sRGB">
<feFlood flood-opacity="0" result="BackgroundImageFix"/>
<feBlend mode="normal" in="SourceGraphic" in2="BackgroundImageFix" result="shape"/>
<feGaussianBlur stdDeviation="50" result="effect1_foregroundBlur_818_2578"/>
</filter>
<filter id="filter1_f_818_2578" x="97.9803" y="103.747" width="212.957" height="164.487" filterUnits="userSpaceOnUse" color-interpolation-filters="sRGB">
<feFlood flood-opacity="0" result="BackgroundImageFix"/>
<feBlend mode="normal" in="SourceGraphic" in2="BackgroundImageFix" result="shape"/>
<feGaussianBlur stdDeviation="2" result="effect1_foregroundBlur_818_2578"/>
</filter>
<linearGradient id="paint0_linear_818_2578" x1="252.68" y1="143.796" x2="279.779" y2="138.744" gradientUnits="userSpaceOnUse">
<stop stop-color="#4AB4F5"/>
<stop offset="1" stop-color="#32769F"/>
</linearGradient>
<linearGradient id="paint1_linear_818_2578" x1="276.825" y1="134.803" x2="302.729" y2="133.552" gradientUnits="userSpaceOnUse">
<stop stop-color="#C7C7C7"/>
<stop offset="1" stop-color="#ACACAC"/>
</linearGradient>
<linearGradient id="paint2_linear_818_2578" x1="259.912" y1="203.78" x2="272.599" y2="232.293" gradientUnits="userSpaceOnUse">
<stop stop-color="#C7C7C7"/>
<stop offset="1" stop-color="#ACACAC"/>
</linearGradient>
<linearGradient id="paint3_linear_818_2578" x1="324.28" y1="91.907" x2="358.987" y2="76.3138" gradientUnits="userSpaceOnUse">
<stop stop-color="#C7C7C7"/>
<stop offset="1" stop-color="#ACACAC"/>
</linearGradient>
<linearGradient id="paint4_linear_818_2578" x1="222.581" y1="319.293" x2="243.679" y2="348.251" gradientUnits="userSpaceOnUse">
<stop stop-color="#C7C7C7"/>
<stop offset="1" stop-color="#7A7A7A"/>
</linearGradient>
<linearGradient id="paint5_linear_818_2578" x1="247.737" y1="303.395" x2="267.552" y2="314.843" gradientUnits="userSpaceOnUse">
<stop stop-color="#4AB4F5"/>
<stop offset="1" stop-color="#2B698F"/>
</linearGradient>
<linearGradient id="paint6_linear_818_2578" x1="252.809" y1="311.199" x2="275.842" y2="336.248" gradientUnits="userSpaceOnUse">
<stop stop-color="#C7C7C7"/>
<stop offset="1" stop-color="#7A7A7A"/>
</linearGradient>
<linearGradient id="paint7_linear_818_2578" x1="269.285" y1="294.15" x2="286.601" y2="302.159" gradientUnits="userSpaceOnUse">
<stop stop-color="#4AB4F5"/>
<stop offset="1" stop-color="#2F729B"/>
</linearGradient>
<linearGradient id="paint8_linear_818_2578" x1="356.063" y1="155.604" x2="373.338" y2="161.094" gradientUnits="userSpaceOnUse">
<stop stop-color="#4AB4F5"/>
<stop offset="1" stop-color="#2B698F"/>
</linearGradient>
<linearGradient id="paint9_linear_818_2578" x1="275.859" y1="305.027" x2="298.453" y2="331.186" gradientUnits="userSpaceOnUse">
<stop stop-color="#C7C7C7"/>
<stop offset="1" stop-color="#7A7A7A"/>
</linearGradient>
<linearGradient id="paint10_linear_818_2578" x1="285.404" y1="301.207" x2="308.267" y2="308.679" gradientUnits="userSpaceOnUse">
<stop stop-color="#4AB4F5"/>
<stop offset="1" stop-color="#3584B5"/>
</linearGradient>
<linearGradient id="paint11_linear_818_2578" x1="306.829" y1="296.734" x2="328.409" y2="324.905" gradientUnits="userSpaceOnUse">
<stop stop-color="#C7C7C7"/>
<stop offset="1" stop-color="#7A7A7A"/>
</linearGradient>
<linearGradient id="paint12_linear_818_2578" x1="327.325" y1="287.771" x2="352.058" y2="296.322" gradientUnits="userSpaceOnUse">
<stop stop-color="#4AB4F5"/>
<stop offset="1" stop-color="#347DA9"/>
</linearGradient>
<linearGradient id="paint13_linear_818_2578" x1="398.391" y1="153.116" x2="483.114" y2="234.728" gradientUnits="userSpaceOnUse">
<stop stop-color="#C7C7C7"/>
<stop offset="1" stop-color="#ACACAC"/>
</linearGradient>
<linearGradient id="paint14_linear_818_2578" x1="374.504" y1="278.613" x2="388.712" y2="313.986" gradientUnits="userSpaceOnUse">
<stop stop-color="#C7C7C7"/>
<stop offset="1" stop-color="#7A7A7A"/>
</linearGradient>
<linearGradient id="paint15_linear_818_2578" x1="462.215" y1="261.446" x2="480.487" y2="260.027" gradientUnits="userSpaceOnUse">
<stop stop-color="#C7C7C7"/>
<stop offset="1" stop-color="#888888"/>
</linearGradient>
<linearGradient id="paint16_linear_818_2578" x1="48.8173" y1="309.433" x2="51.594" y2="305.265" gradientUnits="userSpaceOnUse">
<stop stop-color="#C7C7C7"/>
<stop offset="1" stop-color="#A8A6A6"/>
</linearGradient>
<linearGradient id="paint17_linear_818_2578" x1="46.3854" y1="323.667" x2="44.3025" y2="326.099" gradientUnits="userSpaceOnUse">
<stop stop-color="#C7C7C7"/>
<stop offset="1" stop-color="#A8A6A6"/>
</linearGradient>
<linearGradient id="paint18_linear_818_2578" x1="30.404" y1="353.177" x2="41.1662" y2="364.294" gradientUnits="userSpaceOnUse">
<stop stop-color="#C7C7C7"/>
<stop offset="1" stop-color="#A8A6A6"/>
</linearGradient>
<linearGradient id="paint19_linear_818_2578" x1="34.5731" y1="337.207" x2="56.1117" y2="342.074" gradientUnits="userSpaceOnUse">
<stop stop-color="#C7C7C7"/>
<stop offset="1" stop-color="#A8A6A6"/>
</linearGradient>
<linearGradient id="paint20_linear_818_2578" x1="91.5501" y1="322.278" x2="108.555" y2="352.84" gradientUnits="userSpaceOnUse">
<stop stop-color="#C7C7C7"/>
<stop offset="1" stop-color="#A8A6A6"/>
</linearGradient>
<linearGradient id="paint21_linear_818_2578" x1="169.782" y1="309.642" x2="169.782" y2="423.91" gradientUnits="userSpaceOnUse">
<stop stop-color="#C7C7C7"/>
<stop offset="1" stop-color="#A8A6A6"/>
</linearGradient>
<linearGradient id="paint22_linear_818_2578" x1="193.01" y1="310.46" x2="193.01" y2="454.132" gradientUnits="userSpaceOnUse">
<stop stop-color="#C7C7C7"/>
<stop offset="1" stop-color="#A8A6A6"/>
</linearGradient>
<linearGradient id="paint23_linear_818_2578" x1="257.617" y1="393.004" x2="262.821" y2="316.277" gradientUnits="userSpaceOnUse">
<stop stop-color="#4AB4F5" stop-opacity="0"/>
<stop offset="0.874819" stop-color="#4AB4F5" stop-opacity="0.34"/>
</linearGradient>
<linearGradient id="paint24_linear_818_2578" x1="98.8451" y1="123.694" x2="117.257" y2="132.382" gradientUnits="userSpaceOnUse">
<stop stop-color="#C7C7C7"/>
<stop offset="1" stop-color="#A8A6A6"/>
</linearGradient>
<linearGradient id="paint25_linear_818_2578" x1="114.134" y1="163.964" x2="143.29" y2="217.447" gradientUnits="userSpaceOnUse">
<stop stop-color="#C7C7C7"/>
<stop offset="1" stop-color="#A8A6A6"/>
</linearGradient>
<linearGradient id="paint26_linear_818_2578" x1="116.564" y1="222.29" x2="140.537" y2="224.372" gradientUnits="userSpaceOnUse">
<stop stop-color="#C7C7C7"/>
<stop offset="1" stop-color="#A8A6A6"/>
</linearGradient>
<linearGradient id="paint27_linear_818_2578" x1="165.205" y1="160.491" x2="189.845" y2="208.421" gradientUnits="userSpaceOnUse">
<stop stop-color="#C7C7C7"/>
<stop offset="1" stop-color="#A8A6A6"/>
</linearGradient>
<linearGradient id="paint28_linear_818_2578" x1="159.992" y1="210.139" x2="186.05" y2="214.306" gradientUnits="userSpaceOnUse">
<stop stop-color="#C7C7C7"/>
<stop offset="1" stop-color="#A8A6A6"/>
</linearGradient>
<linearGradient id="paint29_linear_818_2578" x1="227.74" y1="76.128" x2="249.965" y2="95.5827" gradientUnits="userSpaceOnUse">
<stop stop-color="#C7C7C7"/>
<stop offset="1" stop-color="#A8A6A6"/>
</linearGradient>
<linearGradient id="paint30_linear_818_2578" x1="192.303" y1="141.05" x2="229.105" y2="183.43" gradientUnits="userSpaceOnUse">
<stop stop-color="#C7C7C7"/>
<stop offset="1" stop-color="#A8A6A6"/>
</linearGradient>
<linearGradient id="paint31_linear_818_2578" x1="204.114" y1="195.557" x2="226.697" y2="202.158" gradientUnits="userSpaceOnUse">
<stop stop-color="#C7C7C7"/>
<stop offset="1" stop-color="#A8A6A6"/>
</linearGradient>
<linearGradient id="paint32_linear_818_2578" x1="253.797" y1="110.846" x2="271.855" y2="126.827" gradientUnits="userSpaceOnUse">
<stop stop-color="#C7C7C7"/>
<stop offset="1" stop-color="#A8A6A6"/>
</linearGradient>
<linearGradient id="paint33_linear_818_2578" x1="259.006" y1="128.552" x2="262.823" y2="141.056" gradientUnits="userSpaceOnUse">
<stop stop-color="#C7C7C7"/>
<stop offset="1" stop-color="#A8A6A6"/>
</linearGradient>
<linearGradient id="paint34_linear_818_2578" x1="246.847" y1="130.635" x2="266.294" y2="148.007" gradientUnits="userSpaceOnUse">
<stop stop-color="#C7C7C7"/>
<stop offset="0.850065" stop-color="#A8A6A6"/>
</linearGradient>
<linearGradient id="paint35_linear_818_2578" x1="264.568" y1="158.062" x2="290.266" y2="178.906" gradientUnits="userSpaceOnUse">
<stop stop-color="#C7C7C7"/>
<stop offset="1" stop-color="#A8A6A6"/>
</linearGradient>
<linearGradient id="paint36_linear_818_2578" x1="421.416" y1="302.044" x2="421.416" y2="347.617" gradientUnits="userSpaceOnUse">
<stop stop-color="#C7C7C7"/>
<stop offset="1" stop-color="#A8A6A6"/>
</linearGradient>
<linearGradient id="paint37_linear_818_2578" x1="441.462" y1="359.726" x2="441.75" y2="426.68" gradientUnits="userSpaceOnUse">
<stop offset="0.00299988" stop-color="#A8A6A6"/>
<stop offset="0.508" stop-color="#C7C7C7"/>
<stop offset="1" stop-color="#A8A6A6"/>
</linearGradient>
<linearGradient id="paint38_linear_818_2578" x1="432.763" y1="413.237" x2="432.763" y2="433.434" gradientUnits="userSpaceOnUse">
<stop stop-color="#C7C7C7"/>
<stop offset="1" stop-color="#A8A6A6"/>
</linearGradient>
<linearGradient id="paint39_linear_818_2578" x1="477.188" y1="355.509" x2="486.208" y2="403.769" gradientUnits="userSpaceOnUse">
<stop stop-color="#C7C7C7"/>
<stop offset="1" stop-color="#A8A6A6"/>
</linearGradient>
<linearGradient id="paint40_linear_818_2578" x1="473.766" y1="401.679" x2="473.766" y2="421.877" gradientUnits="userSpaceOnUse">
<stop stop-color="#C7C7C7"/>
<stop offset="1" stop-color="#A8A6A6"/>
</linearGradient>
</defs>
</svg>
